<svg xmlns="http://www.w3.org/2000/svg" width="114.496" height="137.178" viewBox="0 0 114.496 137.178"><g transform="translate(-858.101 -555)"><path d="M879.033,675.51l.206.127a14.621,14.621,0,0,0,1.336-1.065c1.7-1.7,3.39-3.4,5.043-5.142a11.968,11.968,0,0,0,2.938-5.178,22.773,22.773,0,0,0,.379-4.092c.016-.211-.062-.428-.061-.642.014-1.475.028-2.951.06-4.426.014-.639.08-1.276.106-1.915.012-.3-.053-.6-.016-.9.191-1.513.4-3.024.61-4.536.14-1.019.345-2.034.417-3.059.073-1.046,0-2.1.03-3.153a3.863,3.863,0,0,1,.231-1.24,10.472,10.472,0,0,0,.653-3.578,22.405,22.405,0,0,1,.1-2.96c.254-1.644.591-3.281,1-4.895.495-1.973,1.1-3.917,1.648-5.877.357-1.283.763-2.557,1.016-3.86a38.7,38.7,0,0,1,1.117-5.35,13.093,13.093,0,0,1,2.235-4.323,9.525,9.525,0,0,0,1.629-2.452c.242-.574.549-1.121.839-1.674.369-.7.8-1.375,1.1-2.1a.532.532,0,0,1,.672-.391c.348.038.461.206.47.551.04,1.545.109,3.09.16,4.635.067,2.065.136,4.131.185,6.2q.079,3.316.119,6.634c.015,1.137-.056,2.276,0,3.41a5.648,5.648,0,0,1-.831,3.764,1.92,1.92,0,0,0-.288.778c-.33,1.948-.7,3.891-.94,5.85a16.642,16.642,0,0,1-1.007,5.034,6.542,6.542,0,0,0-.207,1.525c-.16.929-.314,1.862-.539,2.777-.271,1.105-.635,2.186-.919,3.288a39.761,39.761,0,0,1-1.014,4.061,37.571,37.571,0,0,1-1.92,3.772,8.379,8.379,0,0,0-.659,1.47,7.685,7.685,0,0,1-1.761,3.044,3.794,3.794,0,0,0-.858,1.344,4.186,4.186,0,0,1-1.513,2.1,4.491,4.491,0,0,0-1.047,1.086,20.277,20.277,0,0,0-1,2.072c-.075.163-.122.34-.248.7.287-.245.436-.354.564-.484.876-.889,1.735-1.795,2.624-2.671,1.961-1.932,4.019-3.775,5.883-5.8,1.7-1.846,3.237-3.856,4.784-5.841a12.185,12.185,0,0,0,1.813-2.855,31.968,31.968,0,0,0,1.521-4.993c.494-2.245.9-4.519,1.167-6.8a45.319,45.319,0,0,0,.209-5.469c0-.933-.3-1.862-.348-2.8-.07-1.306-.087-2.62-.032-3.926.067-1.586.23-3.169.357-4.753.038-.471.129-.939.142-1.411.026-1.031.008-2.062.027-3.094.022-1.2.035-2.407.105-3.608.078-1.325.217-2.647.327-3.971.113-1.348.283-2.7.32-4.045.048-1.739-.027-3.482-.019-5.223.008-1.457.1-2.915.079-4.371a18.607,18.607,0,0,1,.378-4.87,28.686,28.686,0,0,0,.454-3.7c.279-2.481.536-4.964.839-7.442.265-2.174.649-4.336.851-6.515.18-1.942.239-3.9.247-5.853a29.744,29.744,0,0,1,.943-5.588c.345-1.772.563-3.568.879-5.345a.762.762,0,0,1,.532-.487.773.773,0,0,1,.613.38c.224.509.33,1.068.516,1.6.116.328.32.626.432.955.193.565.309,1.158.522,1.714.454,1.184,1,2.334,1.418,3.53.667,1.909,1.26,3.842,1.881,5.767a16.833,16.833,0,0,1,1.2,4.544,28.4,28.4,0,0,0,.213,3.33c.4,2.593.915,5.168,1.329,7.759a12.256,12.256,0,0,1,.377,3.944,38.219,38.219,0,0,0-.668,9.5,13.04,13.04,0,0,1-.507,4.6,25.51,25.51,0,0,0-1.117,4.905,24.452,24.452,0,0,1-1,4.788c-.711,2.417-1.465,4.822-2.2,7.231a10.822,10.822,0,0,1-.468,1.455c-.612,1.3-1.328,2.556-1.9,3.875a26.935,26.935,0,0,1-2.275,4.768,9.742,9.742,0,0,0-.583,1.291,8.94,8.94,0,0,1-1,1.912,8.584,8.584,0,0,0-1.982,4.678c-.2,1.686-.48,3.363-.736,5.042-.078.508-.193,1.01-.291,1.515l.2.05c.9-2.187,1.841-4.358,2.682-6.567.958-2.515,1.746-5.1,2.752-7.592a39.5,39.5,0,0,1,4.752-9.207,25.777,25.777,0,0,1,4.036-4.212,3.97,3.97,0,0,0,1.6-1.972c.662-2.736,1.454-5.452,1.91-8.223a7.915,7.915,0,0,1,3.492-5.549c1.689-1.148,3.461-2.169,5.177-3.277a42.054,42.054,0,0,1,10.408-4.967,10.406,10.406,0,0,0,4.9-3.459c.538-.641,1.114-1.25,1.683-1.865a24.1,24.1,0,0,0,2.9-3.183,63.283,63.283,0,0,0,3.281-6.151c.772-1.585,1.386-3.247,2.1-4.864.1-.237.438-.615.52-.58a6.561,6.561,0,0,1,1.191.732c.032.022-.039.2-.065.3-.537,2.1-1.069,4.21-1.616,6.312a9.268,9.268,0,0,1-.668,2.25c-1.261,2.229-2.643,4.389-3.949,6.592a11.129,11.129,0,0,1-4.976,4.636q-3.023,1.389-6.02,2.834a48.07,48.07,0,0,0-5.416,2.732c-1.961,1.272-3.714,2.862-5.569,4.3a18.67,18.67,0,0,0-5.23,6.634c-.587,1.181-1.115,2.391-1.67,3.588a60,60,0,0,0,6.239-3.715c2.375-1.7,4.591-3.618,6.891-5.422q4.418-3.466,8.871-6.886a.891.891,0,0,1,.788.024c.281.158.329.432.042.743-1.606,1.739-3.066,3.632-4.806,5.221a90.948,90.948,0,0,0-7.906,8.056,9.818,9.818,0,0,1-2.493,2.119c-1.936,1.118-3.968,2.07-5.961,3.088a8.646,8.646,0,0,0-2.9,1.937,37.691,37.691,0,0,1-4.3,3.563,8.264,8.264,0,0,0-1.7,1.812,66.169,66.169,0,0,0-5.4,11.784c-.527,1.363-1.076,2.721-1.7,4.043-.7,1.5-1.5,2.95-2.289,4.5.141-.063.211-.074.249-.114,1.76-1.824,3.494-3.673,5.282-5.468a16.188,16.188,0,0,0,3.558-4.549c.1-.214.226-.414.338-.621a4.894,4.894,0,0,1,1.906-2.207,3.5,3.5,0,0,0,1.2-1.208c.505-.8.872-1.68,1.339-2.5a2.833,2.833,0,0,1,.628-.6c.651-.585,1.319-1.152,1.953-1.754.664-.633,1.289-1.307,1.948-1.946.454-.44.957-.829,1.4-1.276.614-.614,1.179-1.278,1.8-1.89.647-.64,1.334-1.24,2-1.865.559-.528,1.081-1.1,1.664-1.593.832-.709,1.727-1.344,2.555-2.057.617-.531,1.153-1.156,1.759-1.7.732-.658,1.485-1.3,2.257-1.907.571-.452,1.184-.851,1.785-1.264.4-.278.837-.518,1.227-.813.808-.608,1.594-1.244,2.392-1.865.457-.354.909-.717,1.383-1.047.751-.524,1.508-1.04,2.281-1.53.506-.322,1.067-.56,1.565-.893,1.073-.718,2.127-1.466,3.178-2.216,1.157-.824,2.294-1.675,3.455-2.493.51-.359,1.069-.646,1.585-1,1.793-1.22,3.548-2.5,5.375-3.663a6.02,6.02,0,0,1,2.53-1.053,3.827,3.827,0,0,0,2.326-1.062c.721-.635,1.441-1.275,2.2-1.868.2-.152.525-.132.793-.191-.062.309-.017.724-.2.91a11.272,11.272,0,0,0-2,3.319,18.524,18.524,0,0,1-.813,1.754c-1.161,1.913-2.352,3.808-3.554,5.7a17.737,17.737,0,0,1-1.249,1.7c-.483.589-1.068,1.1-1.516,1.71-1.156,1.577-2.193,3.245-3.409,4.771-.867,1.088-2.05,1.924-2.91,3.015-1.353,1.717-2.549,3.558-3.819,5.341a13.448,13.448,0,0,1-3.108,3.418A29.5,29.5,0,0,0,947,624.06c-1.154,1.058-2.189,2.246-3.331,3.318q-2.918,2.739-5.911,5.4c-1.17,1.041-2.437,1.974-3.6,3.027a8.021,8.021,0,0,1-2.469,1.721,4.75,4.75,0,0,0-1.537.8,8.852,8.852,0,0,1-2.464,1.923c-.842.361-1.6.927-2.422,1.331-.924.45-1.925.75-2.825,1.241-1.451.791-2.844,1.69-4.267,2.533-.276.163-.578.281-.869.417a11.6,11.6,0,0,0-1.5.708,13.214,13.214,0,0,1-4.441,2.093,11.366,11.366,0,0,0-4.574,2.266,25.8,25.8,0,0,0-3.889,3.81c-.233.276-.424.587-.634.882l.126.149c.816-.425,1.653-.815,2.445-1.28,1.482-.872,2.942-1.782,4.4-2.687.6-.372,1.167-.8,1.777-1.152s1.253-.668,1.894-.972c.737-.35,1.5-.642,2.229-1.009.819-.414,1.6-.9,2.416-1.32a3.165,3.165,0,0,1,1.342-.495,4.556,4.556,0,0,0,2.4-.621c1.832-1.044,3.641-2.13,5.5-3.116a45.626,45.626,0,0,1,5.456-2.627,26.074,26.074,0,0,0,4.872-2,14.4,14.4,0,0,1,2.817-1.054c1.477-.519,2.943-1.08,4.443-1.525,1.212-.36,2.471-.564,3.7-.856,1.544-.364,3.077-.782,4.628-1.113,1.157-.247,2.37-.275,3.493-.616a15.467,15.467,0,0,1,4.014-.521c1.926-.069,3.924.163,5.553-1.244a1.136,1.136,0,0,1,.377-.244,4.219,4.219,0,0,1,.628-.1c-.06.248-.04.579-.2.729a13.956,13.956,0,0,1-1.633,1.359q-1.487,1.052-3.031,2.022a23.013,23.013,0,0,1-2.9,1.669,30.842,30.842,0,0,0-5.357,2.995c-.826.579-1.675,1.127-2.521,1.678-.743.484-1.517.923-2.24,1.436-.593.422-1.078,1.013-1.7,1.37-1.363.778-2.779,1.461-4.181,2.169a12.1,12.1,0,0,1-4.3,1.3,1.222,1.222,0,0,0-.572.261c-.646.495-1.274,1.013-1.91,1.52a4.809,4.809,0,0,1-3.391.958,3.557,3.557,0,0,0-2.625.637c-1.547,1.4-3.5,1.784-5.363,2.4a8.809,8.809,0,0,1-1.846.2c-.621.062-1.247.091-1.86.2-2.138.366-4.163,1.2-6.385,1.284a55.251,55.251,0,0,0-5.753.757,6.112,6.112,0,0,0-.872.227,20.747,20.747,0,0,1-2.211.664c-.926.169-1.9.094-2.81.323a24.36,24.36,0,0,0-2.891,1.11,26.887,26.887,0,0,1-5.391,5.326c-.611.473-1.141,1.051-1.708,1.58a29.5,29.5,0,0,0,4.44-2.1,56.893,56.893,0,0,1,5.771-2.551,1.527,1.527,0,0,1,.313-.075c.98-.233,1.983-.395,2.933-.718a8.467,8.467,0,0,1,3.65-.664,2.4,2.4,0,0,0,1.023-.1,18.52,18.52,0,0,1,5.473-.759c1.395-.065,2.795-.186,4.186-.119a26.563,26.563,0,0,1,2.836.562,19.436,19.436,0,0,1,9.183,3.561c.673.525,1.48.872,2.2,1.338a12.363,12.363,0,0,1,1.08.873c-.62.488-1.1.952-1.834.578a.677.677,0,0,0-.5.076c-.826.408-1.636.85-2.464,1.254a15.522,15.522,0,0,1-2.394,1.08c-.97.282-2,.352-3,.549-.6.118-1.175.349-1.774.451-1.066.18-2.141.3-3.213.445a2.457,2.457,0,0,1-.514.023c-1.4-.106-2.8-.293-4.206-.314a48.981,48.981,0,0,0-5.324.154,21.824,21.824,0,0,1-5.582.079,9.132,9.132,0,0,0-4.456-.1,4.718,4.718,0,0,1-2.409-.006c-1.7-.314-3.409-.785-5.171-.318-1.269.337-2.541.683-3.831.918a5.079,5.079,0,0,0-3.29,1.81,17.11,17.11,0,0,1-1.453,1.437c.436.3.807.776,1.123.741a16.458,16.458,0,0,0,5.687-1.312c1.483-.735,2.958-1.505,4.5-2.106a1.687,1.687,0,0,1,2.492,1.209,9.887,9.887,0,0,1-.143,2c-.025.386-.241.481-.585.538a9.981,9.981,0,0,0-1.623.394c-2.193.761-4.376,1.55-6.561,2.333-.065.023-.114.094-.039.029,1.825,1.544,3.621,3.105,5.463,4.612a24.193,24.193,0,0,1,5.091,5.779,4.146,4.146,0,0,1,.711,1.764,6.657,6.657,0,0,1-.328,2.093,1.7,1.7,0,0,1-1.437,1.384,4.452,4.452,0,0,1-3.467-1.065,7.4,7.4,0,0,0-2.391-1.215,3.834,3.834,0,0,1-2.828-2.51,12.5,12.5,0,0,0-2.267-4.315,11.891,11.891,0,0,1-2.549-4.859,4.158,4.158,0,0,0-.18-.465c-1.649.51-3.282.971-4.885,1.522-1.7.586-3.4,1.2-5.059,1.9-1.582.673-3.089,1.524-4.664,2.215-1.676.736-3.392,1.379-5.092,2.058a43.02,43.02,0,0,1-6.918,2.62c-.564.12-.876-.177-.724-.74.09-.331.247-.645.322-.978a8.5,8.5,0,0,0,.1-1.038,7.954,7.954,0,0,1,.921-.489c2.173-.87,4.368-1.687,6.527-2.59,2.082-.869,4.126-1.828,6.192-2.736,1.259-.553,2.531-1.076,3.789-1.631a2.872,2.872,0,0,0,.543-.413c-.274-.191-.507-.267-.581-.42a1.582,1.582,0,0,0-2.329-.908,5.351,5.351,0,0,0-2.176,1.655,4.054,4.054,0,0,1-3.295,1.622,2.965,2.965,0,0,0-1.795.359c-.2.123-.518.047-.92.069a11.4,11.4,0,0,1,.336-1.218c.54-1.335,1.067-2.678,1.672-3.984a4.866,4.866,0,0,1,2.677-2.743,13.227,13.227,0,0,1,1.961-.391,2.907,2.907,0,0,0-.377-.232,9.449,9.449,0,0,0-5.434-.679q-2.274.447-4.542.927a.671.671,0,0,1-.855-.369c-.178-.374-.534-.772-.1-1.166a6.184,6.184,0,0,1,1.418-1.078,11.137,11.137,0,0,1,3.206-1.277,11.138,11.138,0,0,1,11.671,5.922c.355.671.613,1.393.927,2.117a4,4,0,0,0-.239-3.546,13.866,13.866,0,0,1-1.207-3.92,48.712,48.712,0,0,1-.953-5.762c-.075-1.965-.609-3.932-.157-5.914a1.977,1.977,0,0,0-.075-.7c-.333-2.077-.813-4.146-.345-6.268a2.216,2.216,0,0,0-.006-.514,15.257,15.257,0,0,1,.251-5,24.469,24.469,0,0,0,.491-2.719c.088-.462.209-.919.333-1.373a8.811,8.811,0,0,0,.365-1.235,5.935,5.935,0,0,1,1.211-2.88,2.323,2.323,0,0,1,2.74-.554,5.523,5.523,0,0,1,2.157,2.654c.34,1.259.578,2.546.871,3.818.126.543.266,1.084.424,1.619a21.954,21.954,0,0,1,.681,2.243,26.007,26.007,0,0,1,.432,3.568c.048,1.177-.092,2.36-.121,3.541-.052,2.083.268,4.2-.306,6.238a8.886,8.886,0,0,0-.331,3.946,2.182,2.182,0,0,1,.028.988c-.558,1.671-1.078,3.364-1.782,4.975-.616,1.409-1.477,2.71-2.19,4.079-.447.857-.821,1.752-1.227,2.63m19.672,12.454-2.129-1.633-.118.117c.89,1.468,1.779,2.937,2.7,4.451.489-.422.4-1.119.368-1.666-.023-.423-.493-.822-.764-1.232l.613.314c-.241-1.785-2.359-3.616-4.648-3.876.426.416.708.734,1.033,1,.912.745,1.844,1.466,2.761,2.206a1.1,1.1,0,0,1,.188.319m-5.365-21.187c.711-.283,1.419-.571,2.133-.844a7.018,7.018,0,0,1,.8-.242c1.858-.469,1.858-.468,3.042-2.241-.245.1-.418.163-.58.246q-2.226,1.149-4.45,2.3c-.324.168-.645.342-.958.53-.025.015.024.153.039.233l-1.259.7.062.16c.636-.126,1.271-.261,1.91-.374,1.627-.291,3.182.206,4.76.443.441.066.885.1,1.327.155l3.071-.527-2.38-2.234-2.194.5,1.509,2.271c-.474-.594-.987-1.164-1.407-1.8-.211-.318-.392-.482-.762-.381-1.053.286-2.1.587-3.161.85-.492.122-1,.167-1.506.247m-1.319-16.3c.119-.144.314-.267.352-.427.218-.931.412-1.87.582-2.811a1.691,1.691,0,0,0-.118-.594c.088-.047.2-.071.259-.14a1.062,1.062,0,0,0,.114-.3c.628-1.621.9-3.154-.834-4.349a9.023,9.023,0,0,1-1.25-1.342c-.052.552-.092.96-.129,1.368-.013.15-.013.3-.03.451-.2,1.677.033,3.171,1.692,4.079.084.046.127.166.189.252l-1.8-1.195a14.228,14.228,0,0,0-.5,2.663c-.005.489.491,1,.794,1.474a11.238,11.238,0,0,0,.688.889l-1.472-1.283c-.19,1.034-.4,2.05-.552,3.074a.918.918,0,0,0,.44,1.1c.407.236.636.78,1.055,1.334.086-.58.138-1.007.215-1.429.126-.7.289-1.39.394-2.091a2.616,2.616,0,0,0-.092-.724m-13.227,17.016c.054.063.109.128.163.193l.149,0c-.027-.508-.042-1.017-.084-1.525a4.761,4.761,0,0,1-.134-1.336,4.266,4.266,0,0,0-.854-3.361,16.819,16.819,0,0,1-1.005-2.217,2.991,2.991,0,0,0-.528-.907,3.259,3.259,0,0,0-.024.45c.241,2.969.648,5.893,2.287,8.486a.653.653,0,0,1,.04.245c-.457-.835-.917-1.668-1.368-2.507-.037-.069-.008-.174-.162-.211.391,2.37.374,4.828,1.774,6.943.023-1.426.406-2.867-.254-4.251m17.56-21.141a3.893,3.893,0,0,1-2.7,1.176.51.51,0,0,0-.38.3,20.884,20.884,0,0,0-.447,2.21.66.66,0,0,0,.359.535,4,4,0,0,0,1.269.07c.357-.035.7-.221,1.053-.292a2.143,2.143,0,0,0,1.963-2.376,12.19,12.19,0,0,1,.443-2.207,1.606,1.606,0,0,0-.1-.539,5.71,5.71,0,0,0,1.138-3.254c0-.047-.121-.1-.186-.146a3.089,3.089,0,0,0,.327-.646c.287-1.174.567-2.35.808-3.534.132-.647.168-1.313.275-1.967.244-1.492.508-2.982.755-4.475a5.929,5.929,0,0,0,.081-.959c0-.065-.173-.131-.267-.2a13,13,0,0,1,.863-2.253,6.04,6.04,0,0,0,.656-4.283,7.921,7.921,0,0,1,.046-1.6c.077-1.64.216-3.28.217-4.92,0-1.29-.166-2.58-.273-3.87-.008-.092-.133-.174-.2-.261l.011.022a14.448,14.448,0,0,0,.117-1.521c-.039-1.74-.112-3.48-.178-5.22a.682.682,0,0,0-.232-.468c-.129.517-.3,1.028-.38,1.552-.513,3.33-.977,6.667-1.515,9.993-.3,1.843-.71,3.669-1.109,5.7a8.832,8.832,0,0,0,1.14-.553c.332-.226.605-.538.945-.76-.595.682-1.075,1.522-2.229,1.573-.693,3.241-1.393,6.505-2.081,9.771-.023.106.07.238.126.409a13.16,13.16,0,0,0,3.361-2.6c.239-.243.488-.475.732-.712a1.122,1.122,0,0,1-.127.343,13.554,13.554,0,0,1-3.81,3.225c-.1.058-.276-.008-.473-.019-.161,1.026-.327,2.082-.507,3.224,1.51-.338,2.351-1.539,3.491-2.294-1.041.95-1.857,2.171-3.309,2.624a.813.813,0,0,0-.444.517c-.192.794-.324,1.6-.491,2.475a8.8,8.8,0,0,0,4.207-1.964l.1.161c-.738.482-1.454,1-2.22,1.435-.558.315-1.2.484-1.768.776a1.142,1.142,0,0,0-.557.6c-.252.9-.429,1.828-.647,2.8a4.731,4.731,0,0,0,2.538-.7c.41-.267.849-.49,1.275-.733a7.478,7.478,0,0,1-3.447,1.758.653.653,0,0,0-.452.315c-.243.8-.436,1.605-.706,2.641a16.6,16.6,0,0,0,1.721-.317,8.831,8.831,0,0,0,1.22-.563m.651-19.442c-.371-1.154-.767-2.3-1.1-3.465-.238-.821-.4-1.665-.728-2.533-.31,1.2-.614,2.393-.93,3.587-.339,1.276.289,2.436.426,3.655-.277-.75-.553-1.5-.86-2.333a12.165,12.165,0,0,0-1.138,4.947c.027.642.6,1.261.922,1.89l-.183.11-.874-1.324c-.217,1.059-.411,2-.6,2.943a3.317,3.317,0,0,0,.958,2.874c.545.657,1.052,1.345,1.576,2.02l-2.5-2.779c-.051.516-.074.971-.145,1.42a6.312,6.312,0,0,1-.309,1.374,1.287,1.287,0,0,0,.222,1.434c.672.8,1.346,1.6,2.158,2.573.3-1.3.561-2.415.787-3.532.03-.148-.143-.337-.222-.507.137-.047.385-.067.4-.138.3-1.365.483-2.757.856-4.1a7.215,7.215,0,0,0-.682-5.319,4.143,4.143,0,0,1-.212-1.062l1.226,3.276.216-.038c.136-1.685,1.093-3.234.735-5l.354.314c.05-1.678,1.077-3.106.646-4.771l.338.257c1.317-5.128,1.594-10.369,2.457-15.537a12.427,12.427,0,0,0-1.173,2.119,19.535,19.535,0,0,0-.38,2.388c-.051-.552-.1-1.1-.153-1.664a3.605,3.605,0,0,0-1.461,3.054c.235,1.045.54,2.073.816,3.109.054.2.115.4.173.6l-.148.05c-.408-1.171-.816-2.343-1.264-3.632-.58,1.373-1.195,2.6-.7,4.07a19.7,19.7,0,0,1,.492,2.255c-.291-.911-.581-1.822-.922-2.893-.093.337-.149.56-.214.78-.714,2.387-.069,4.678.489,6.975.207.854.437,1.7.657,2.554M868.586,682.23l-.147.087q-1.284.522-2.567,1.044c-1.6.657-3.2,1.316-4.788,2.046l.522-.037.095.166a1.877,1.877,0,0,1-.466.288c-.476.13-.969.2-1.443.335a1.875,1.875,0,0,0-.492.342l.109.206c.9-.295,1.824-.55,2.708-.895,1.256-.49,2.488-1.04,3.726-1.575,2.382-1.03,4.765-2.057,7.139-3.106,1.39-.614,2.735-1.343,4.151-1.887,1.682-.645,3.414-1.165,5.134-1.706q3.261-1.025,6.539-1.989c.842-.249,1.709-.416,2.555-.655a5.128,5.128,0,0,0,1.1-.506l-4.462.905-.017-.1,8.3-2.758-.9-1.132c-.252.146-.7.41-1.145.663a16.623,16.623,0,0,1-6.206,2.2,23.813,23.813,0,0,0-6.914,2.43c-3.518,1.611-7.072,3.147-10.607,4.722-.648.288-1.28.611-1.919.917m66.757-49c1.016-.784,2.035-1.564,3.045-2.355a3.674,3.674,0,0,0,.745-.788,17.31,17.31,0,0,1-11.095.523l-4.866,3.746a7.959,7.959,0,0,0,.99.273,13.837,13.837,0,0,0,4.995,0c.75-.177,1.534-.206,2.285-.382,1.025-.241,2.03-.563,3.047-.84.286-.078.581-.121.873-.18-.578.223-1.176.4-1.729.678a17.038,17.038,0,0,1-5.51,1.248,10.849,10.849,0,0,1-5.439-.571l-4.618,3.97a12.74,12.74,0,0,0,9.216.115c.015.061.029.121.044.181-1.013.306-2.01.685-3.042.9a11.476,11.476,0,0,1-5.1-.392.346.346,0,0,1-.123-.037c-.968-.688-1.58-.2-2.271.541-.919.984-1.982,1.833-2.983,2.741a4.189,4.189,0,0,0,5.09.978c1.3-.8,2.641-1.534,3.968-2.292a2.339,2.339,0,0,1,.643-.3,10.5,10.5,0,0,0,4.1-1.981c.7-.521,1.344-1.106,2.035-1.634a4.342,4.342,0,0,1,1.043-.618,7.92,7.92,0,0,0,3.2-2.108c.446-.508.97-.948,1.458-1.419M879.7,646.542c0,1.783.023,3.567-.017,5.349-.056,2.581-.171,5.159-.238,7.739-.045,1.7-.1,3.394-.059,5.09.03,1.387.188,2.771.295,4.232a2.785,2.785,0,0,0,.424-.24,8.7,8.7,0,0,0,3.04-4.962,2.527,2.527,0,0,0-.005-.832,11.014,11.014,0,0,1,.179-4.207l-.793,1.059-.093-.065a6.824,6.824,0,0,1,.593-.882,3.148,3.148,0,0,0,.759-2.205c.014-1.14.057-2.283-.01-3.419-.087-1.452.1-2.89.1-4.332a11.3,11.3,0,0,0-.373-2.987,55.905,55.905,0,0,1-1.61-6.571,5.657,5.657,0,0,0-2.1-3.153c-.163-.157-.732-.014-1.041.139a.862.862,0,0,0-.4.705c.41,2.04.877,4.068,1.35,6.2l.977-1.076c-1.285,1.27-.915,2.9-.968,4.434Zm48.544-.991c.33-.6.621-1.22,1-1.785s.85-1.075,1.281-1.608c-.027-.051-.055-.1-.083-.153-.664.338-1.33.671-1.991,1.015a15.507,15.507,0,0,0-2.026,1.1,10.268,10.268,0,0,0-1.607,1.575c-.506.581-.939,1.227-1.472,1.8q.873-1.256,1.748-2.508l-.128-.17-7.281,4.482-.053-.071,1.956-1.378-.061-.206a4.014,4.014,0,0,0-1.258.22c-1.275.7-2.511,1.471-3.75,2.232a8.074,8.074,0,0,1-.926.606l.75-.78c-.035-.048-.07-.1-.1-.146a98.592,98.592,0,0,0-8.711,5.394c.523-.176,1.048-.345,1.568-.53s1.064-.36,1.571-.6c.482-.224.906-.592,1.4-.767.721-.256,1.5-.357,2.227-.594q3.888-1.264,7.757-2.585c.7-.239,1.344-.632,2.043-.869,1.218-.412,2.49-.679,3.684-1.148,2.691-1.054,5.35-2.2,8.022-3.3q3.375-1.395,6.75-2.786a24.657,24.657,0,0,0,5.475-2.838,4.194,4.194,0,0,1,1.127-.345,7.945,7.945,0,0,0,4.035-2.866,8.771,8.771,0,0,1,1.348-1.236c-1.191-.1-2.031.345-4.671,2.418l1.057-1.4c-1.679.22-3.125.4-4.093,1.953a15.975,15.975,0,0,1-2.792,2.989l3.3-4.052-.161-.244-2.233.622c-.02.006-.037.026-.057.03-1.815.36-2.4,2.07-3.511,3.2-.7.718-1.351,1.488-2.079,2.184l3.365-4.294c-3.294.5-5.546,2.414-7.314,5.044-.051-.061-.1-.122-.154-.182.344-.4.706-.79,1.026-1.211s.609-.891.95-1.4a9.074,9.074,0,0,0-6.928,5.175m-3.068,21.223c-1.773-.687-3.567-1.328-5.309-2.087-.52-.226-.89-.787-1.346-1.175a1.062,1.062,0,0,0-.569-.308c-1.331-.014-2.662.013-4.15.029a16.148,16.148,0,0,0,5.773,4.213,14.812,14.812,0,0,1-5.934-3.924,1.219,1.219,0,0,0-.789-.411c-1-.011-2.009.06-3.014.1l-.141.2a3.5,3.5,0,0,0,.69.963c.923.626,1.9,1.167,2.863,1.738a1.8,1.8,0,0,1,.5.362c-1.581-.871-3.6-1.106-4.489-3.124l-4.378.832c1.394,1.708,3.2,2.455,4.912,3.372a30,30,0,0,1-2.965-1.4,21.563,21.563,0,0,1-2.185-1.756.519.519,0,0,0-.385-.107c-.952.238-1.9.5-2.912.77,1.338,1.58,2.763,2.834,4.962,2.9a24.843,24.843,0,0,0,4.088-.207,29.093,29.093,0,0,1,4.563-.215c1.973.05,3.941.261,5.913.385a4.784,4.784,0,0,0,1.025-.078c1.339-.208,2.676-.43,4.013-.652a5.113,5.113,0,0,0,.508-.148l-.423-.23a.77.77,0,0,1,.092-.009,5.088,5.088,0,0,0,1.431.041,11.679,11.679,0,0,0,4.553-2.052c.175-.143.477-.131.72-.191l-.084-.329-7.217-.728-.068.264q1.8.858,3.61,1.713l-.023.056c-.887-.368-1.8-.684-2.657-1.116a9.475,9.475,0,0,0-5.378-1.143,13.287,13.287,0,0,1-2.156-.125,2.49,2.49,0,0,0,1.278,1.341c1.369.622,2.769,1.177,4.16,1.752.316.13.645.23.968.344l-.052.137m-13.795-50c.134-1.145.258-2.291.4-3.434a4.951,4.951,0,0,0-.623-3.25,8.7,8.7,0,0,1-1.213-4.039c.532,1.284,1.14,2.761,1.758,4.235.046.107.162.184.317.353.14-1.112.253-2.132.4-3.147.221-1.511.422-3.027.724-4.523a2.059,2.059,0,0,0-.352-1.632,27.015,27.015,0,0,1-1.967-3.162,37.96,37.96,0,0,1-1.339-3.941l.174-.077a5.521,5.521,0,0,1,.276.633,20.556,20.556,0,0,0,3.147,6.157c.073.1.165.187.383.431.135-1.39.182-2.629.4-3.839.256-1.458-.551-2.539-1.107-3.723-.3-.637-.575-1.283-.883-1.914a2.773,2.773,0,0,0-.507-.816,2.955,2.955,0,0,1-.79-1.787c-.114-.644-.32-1.272-.486-1.907l-.179.024a8.83,8.83,0,0,1-.228,2.135c-.988,2.717-.416,5.5-.468,8.253-.009.47-.126.938-.124,1.406.006,1.108.064,2.216.078,3.324,0,.316-.106.632-.106.949a32.78,32.78,0,0,1-.509,6.295,4.355,4.355,0,0,0,.347,2.385c.677,1.585,1.528,3.1,2.308,4.637l.169-.026m25.66,27.025c.651,1.1,1.757,1.229,2.7,1.64a3.693,3.693,0,0,1-3.033-1.554q-1.865.87-3.73,1.744a4.394,4.394,0,0,0-.488.333l3.346,1.179-.021.085c-1.162-.344-2.324-.69-3.488-1.028a.734.734,0,0,0-.43-.036c-1.36.538-2.713,1.093-4.066,1.646-.035.014-.056.062-.115.13.036.055.063.144.123.183,1.327.846,2.652,1.7,4.329,1.6a3.1,3.1,0,0,1,.645-.013c1.951.3,3.257-.776,4.475-2.068a1.956,1.956,0,0,1,1.593-.8,6.038,6.038,0,0,0,3.179-.706,33.253,33.253,0,0,0,3.515-1.778c1.325-.848,2.534-1.879,3.918-2.925-1.407-.357-2.7-.379-3.8-1.022.017-.065.033-.131.05-.2.259.091.514.19.776.27s.541.142.812.212c.562.146,1.137.256,1.683.449a1.335,1.335,0,0,0,1.261-.228c.67-.422,1.378-.78,2.066-1.172a5.574,5.574,0,0,0,.464-.346c-.626-.075-1.13-.095-1.612-.2-.663-.153-1.31-.375-1.965-.565-.114-.033-.257-.108-.344-.069-2.218,1.012-4.43,2.036-6.621,3.16a6.609,6.609,0,0,0,3.225,1.036l-.045.2c-1.111-.26-2.223-.518-3.334-.782-.159-.038-.343-.183-.464-.138-1.526.568-3.044,1.162-4.609,1.766m-20.936,17.1L913.5,662.47l.05.179c.33.045.662.075.989.137,1.888.361,3.574-.293,5.3-.936a21.667,21.667,0,0,1,3.985-.951,18.444,18.444,0,0,0-5.241,1.869l4.364.225c.386.02.774.031,1.157.077a.911.911,0,0,0,.812-.222,3.122,3.122,0,0,1,1.316-.489c1.151-.259,2.312-.472,3.594-.729a8.706,8.706,0,0,0-2.637-1.017c-1.735-.4-3.469-.814-5.213-1.177a13.821,13.821,0,0,0-1.769-.152,8.01,8.01,0,0,0-1.122-.073c-1.368.089-2.734.234-4.1.31a17.806,17.806,0,0,0-3.372.534,27.021,27.021,0,0,1-2.871.241,10.874,10.874,0,0,0-1.794.522,14.56,14.56,0,0,1-3.177.99c-1.43.106-2.512.955-3.771,1.394-.626.217-1.02,1.1-1.519,1.682l.175.234c.807-.191,1.619-.365,2.417-.586.15-.042.247-.273.368-.417a7.65,7.65,0,0,1,1.211-1.237l-1.08,1.4c.047.055.095.109.143.164,1.668-.406,3.47-.49,4.611-2.161l.089.148-.787.942.1.163c1.1-.307,2.263-.152,3.307-.924,1.316-.974,2.776-1.754,4.175-2.618.036.059.073.118.11.177l-4.066,2.5c2.707.483,4.768-.664,6.792-1.939l.069.168m17.308-34.707a4.62,4.62,0,0,0,2.614.349,24.7,24.7,0,0,0,7.731-1.6c.031-.012.076.01.325.051a18.188,18.188,0,0,1-1.668.811,22.882,22.882,0,0,1-6.97,1.147,14.817,14.817,0,0,1-2.289-.3.71.71,0,0,0-.491.082c-1.384,1.181-2.753,2.379-4.21,3.646a4.275,4.275,0,0,0,.626.216,20.005,20.005,0,0,0,7.176-.082,18.379,18.379,0,0,0,3.4-1.005,5.545,5.545,0,0,0,1.6-1.251c1.806-1.746,3.586-3.521,5.376-5.285a2.48,2.48,0,0,0,.564-.736,11.39,11.39,0,0,0-1.454.356,13.087,13.087,0,0,1-7.415.442,1.741,1.741,0,0,0-1.718.376c-.92.841-1.917,1.6-2.878,2.391a3.061,3.061,0,0,0-.319.385m-18.546-37.7q.045-1.828.088-3.657c.005-.258,0-.516,0-.774a5.5,5.5,0,0,0-.747-3.338,27.915,27.915,0,0,1-1.961-4.315c-.248-.567-.492-1.136-.814-1.878-.091.571-.154.974-.219,1.377-.235,1.463-.522,2.919-.693,4.388a33.627,33.627,0,0,0-.466,5.841,13.038,13.038,0,0,0,1.329,4.128c.642,1.5,1.464,2.919,2.211,4.372.076.148.173.287.363.6.1-.636.169-1.1.235-1.568.184-1.3.388-2.6.526-3.9a1.524,1.524,0,0,0-.318-.825c-.338-.544-.72-1.061-1.079-1.592-.18-.266-.339-.546-.527-.807a8.291,8.291,0,0,1-1.87-4.889c.535,2.692,2.275,4.712,3.651,6.933l.293-.09m5,6.732c-.279.426-.484.689-.635.979a23.152,23.152,0,0,1-3.665,4.972c-.47.508-.909,1.232-1.834,1.043-.066-.013-.258.271-.285.435-.231,1.4-.459,2.795-.647,4.2-.192,1.437-.337,2.88-.5,4.32l.172.127a17.08,17.08,0,0,0,2-1.688,45.585,45.585,0,0,0,3.608-4.449,10.614,10.614,0,0,0,1.929-7.2c-.087-.844-.089-1.7-.139-2.739m-42.683,44.589c.229,1.677.459,3.354.706,5.157a19.824,19.824,0,0,1-.939-3.85c-.025.063-.078.128-.072.188a7,7,0,0,1-.509,2.954,2.375,2.375,0,0,0,.075,1.753,9.844,9.844,0,0,1,.514,1.737l-.5-1.494-.391.132c.037.752.118,1.506.1,2.257-.059,2.882,1.259,5.395,2.1,8.037a.6.6,0,0,1-.011.461c-.252-.631-.52-1.257-.754-1.9q-.377-1.029-.7-2.076c-.209-.672-.386-1.353-.577-2.03l-.2,0a6.358,6.358,0,0,0-.034.992c.112.962.28,1.917.392,2.879.084.716.056,1.449.188,2.154a9.515,9.515,0,0,0,.611,1.96c.492,1.154,1.051,2.279,1.582,3.416l.268-.072c.005-.669.022-1.339.012-2.008-.006-.428-.086-.857-.073-1.284.069-2.319.191-4.637.228-6.956.036-2.191-.1-4.389.011-6.574a6.491,6.491,0,0,0-1.045-4.211,9.26,9.26,0,0,1-.717-1.641l-.265.009m44.6,10.212-4.983,1.619-.006.168,3.078,1.084c-.019.061-.038.122-.058.182-.916-.27-1.841-.518-2.747-.82a2.24,2.24,0,0,0-1.547-.033c-1.056.361-2.154.6-3.228.911-.441.129-.865.319-1.3.481,0,.091,0,.181,0,.271a17.372,17.372,0,0,0,2.982.494,13.988,13.988,0,0,0,4.632-.716,14.13,14.13,0,0,1,3.67-.652,17.914,17.914,0,0,0,3.792-.7,9.727,9.727,0,0,0,4.63-2.532c-.7-.3-1.419-.608-2.133-.918a1.239,1.239,0,0,1-.455-.237c-.629-.729-1.3-.5-2.05-.2-1.057.42-2.148.756-3.224,1.127l-.743.256c.944,1.465,2.438,1.282,3.667,1.7-1.39-.281-2.977-.009-3.978-1.486M937.743,622.6a17.858,17.858,0,0,0,5.2.234c1.16-.224,2.3-.551,3.467-.725a7.353,7.353,0,0,0,3.618-1.854,24.867,24.867,0,0,0,1.822-1.85c-.045-.058-.089-.116-.135-.174a2.86,2.86,0,0,0-.5.182,6.24,6.24,0,0,1-4.874.468c-.833-.2-1.651-.477-2.463-.759a1.049,1.049,0,0,0-1.121.2c-1.438,1.161-2.9,2.288-4.343,3.445a5.77,5.77,0,0,0-.669.83m-24.049-20.67a5.088,5.088,0,0,0,2.23-1.828c1.21-1.663,2.4-3.342,3.512-5.072a5.151,5.151,0,0,0,.615-1.943c.236-1.461.354-2.94.579-4.4a5.808,5.808,0,0,0-.142-2.709c-.347.987-.633,1.875-.971,2.742a22.273,22.273,0,0,1-2.791,5.362,29.143,29.143,0,0,1-2.3,2.421,1.03,1.03,0,0,0-.326.5c-.163,1.516-.3,3.035-.434,4.553a2.863,2.863,0,0,0,.029.373m24.554,19.594c1-.814,1.9-1.659,2.905-2.34a5.577,5.577,0,0,0,2.393-3.538,25.9,25.9,0,0,1,1.558-4.154c.581-1.336,1.275-2.622,2.011-4.116-1.041.8-1.963,1.5-2.879,2.213-.118.091-.188.26-.315.32-1.725.818-2.427,2.483-3.092,4.049-1.014,2.39-1.773,4.888-2.638,7.342-.011.031.018.076.057.224m-18.973-41.109c-.17.608-.369,1.211-.505,1.827A14.535,14.535,0,0,1,915.317,589a1.143,1.143,0,0,0-.255.563q-.405,2.651-.774,5.306a7.065,7.065,0,0,0,.035,1.061,14.3,14.3,0,0,0,3.609-4.768q.8-1.657,1.5-3.364a6.9,6.9,0,0,0,.5-4.771,17.223,17.223,0,0,1-.369-2.027c-.036-.2-.08-.394-.12-.591h-.168m-.448,24.648c-1.522,1.79-3.06,3.638-4.649,5.44-.434.493-1.042.828-1.53,1.28a1.358,1.358,0,0,0-.43.741c-.205,1.594-.364,3.194-.532,4.793a1.906,1.906,0,0,0,.072.408,3.035,3.035,0,0,0,.5-.319c1.341-1.33,2.7-2.639,4-4.011a7.65,7.65,0,0,0,2.021-4.9c.066-.939.288-1.867.441-2.8.041-.251.087-.5.11-.634M910.2,626.332q.819-.883,1.638-1.766a17.16,17.16,0,0,1,1.192-1.262,6.071,6.071,0,0,0,1.837-2.889c.314-1.051.593-2.112.924-3.158.322-1.021.692-2.027,1.036-3.042.081-.239.138-.487.206-.73l-.142-.109c-.354.394-.683.814-1.066,1.176-1.338,1.264-2.7,2.506-4.04,3.765a1.4,1.4,0,0,0-.452.568c-.351,1.439-.7,2.882-.973,4.338-.189.982-.267,1.986-.395,2.98l.235.129m31.475-15.211c-.4.407-.792.815-1.192,1.219a4.5,4.5,0,0,1-.88.84,8.22,8.22,0,0,0-3.728,4.765c-.6,1.7-1.278,3.38-1.868,5.087-.25.723-.363,1.494-.561,2.338a1.789,1.789,0,0,0,.372-.148c1.023-.823,2.036-1.659,3.064-2.475a2.275,2.275,0,0,0,.87-1.447,14.978,14.978,0,0,1,.584-1.979,31.775,31.775,0,0,1,3.447-7.961c.021-.031.013-.081.019-.123l-.127-.116m-5.631,5.246a16.268,16.268,0,0,0-2.009,1.351,8.818,8.818,0,0,0-1.648,1.945,28.835,28.835,0,0,0-2.078,4c-.711,1.771-1.227,3.621-1.819,5.44a4.938,4.938,0,0,0-.087.751c.8-.645,1.467-1.162,2.108-1.709.7-.6,1.394-1.215,2.06-1.856a1.478,1.478,0,0,0,.433-.749,27.94,27.94,0,0,1,2.4-7.388c.253-.533.4-1.116.638-1.784m7.564,1.172c2.965,1.286,5.766,1.662,8.569.085a2.1,2.1,0,0,0,.659-.687c.765-1.163,1.505-2.343,2.251-3.512-.872.358-1.709.732-2.568,1.049a5.338,5.338,0,0,1-3.673-.032,1.06,1.06,0,0,0-.782-.036c-1.469.995-2.907,2.035-4.456,3.133m4.712-3.8c1.135-1.042,2.228-2.135,3.416-3.111a5.332,5.332,0,0,0,1.85-3.155,22.7,22.7,0,0,1,1.658-4.1c.377-.831.864-1.613,1.394-2.589-1.066.784-1.966,1.507-2.926,2.139-2.17,1.426-3.116,3.638-3.93,5.948L948.12,613.6l.2.143M931.531,620.6c-1.909.959-3.036,2.716-4.33,4.216-2.094,2.427-2.879,5.562-3.643,8.692.5-.343,1.016-.673,1.506-1.035.76-.562,1.533-1.112,2.24-1.736a2.144,2.144,0,0,0,.638-1.066,31.494,31.494,0,0,1,2.736-7.685c.252-.479.567-.925.853-1.386m12.113-3.417c.574-.433,1.128-.894,1.724-1.293a5.413,5.413,0,0,0,2.772-3.582,27.165,27.165,0,0,1,1.708-4.79c.354-.891.827-1.733,1.217-2.657-.823.593-1.911.676-2.608,1.557a25.373,25.373,0,0,0-3.922,7.722c-.333.976-.683,1.945-1.026,2.917l.135.126m16.371-9.33c-.693.359-1.38.733-2.081,1.075a5.333,5.333,0,0,1-3.746.543.9.9,0,0,0-.962.24c-1.455,1.384-2.928,2.748-4.463,4.183a3.833,3.833,0,0,0,3.029.323c1.245-.391,2.442-.94,3.657-1.426a.934.934,0,0,0,.327-.2q2.112-2.2,4.214-4.4a1.221,1.221,0,0,0,.126-.189l-.1-.141m-48.1-41.783c.005.68.044,1.362.008,2.04-.085,1.586-.185,3.171-.32,4.754a4.72,4.72,0,0,0,.489,2.419c.551,1.211,1.022,2.459,1.566,3.674.3.672.683,1.309,1.029,1.961l.2-.062c-.01-.827-.023-1.655-.031-2.483-.018-1.933-.028-3.866-.062-5.8a1.431,1.431,0,0,0-.233-.581c-.342-.641-.711-1.269-1.043-1.915a18.518,18.518,0,0,1-1.017-2.135,12.463,12.463,0,0,1-.382-1.873h-.208m6.655,7.265c-.274,1.2-.538,2.3-.777,3.4a9.974,9.974,0,0,1-2.5,5.288.651.651,0,0,0-.094.421c0,1.976.006,3.952.011,6a3.168,3.168,0,0,0,.338-.339,17.66,17.66,0,0,0,2.909-6.29c.065-.272.115-.55.206-.814a8.057,8.057,0,0,0,.225-4.261,33.894,33.894,0,0,1-.319-3.405m-3.3,8.243a11.083,11.083,0,0,0,1.882-4.155c.4-1.587.768-3.183,1.048-4.793a4.838,4.838,0,0,0-.151-1.881,9.189,9.189,0,0,0-.915-2.279c-.155.442-.3.889-.471,1.324a4.71,4.71,0,0,1-.64,1.4,5.162,5.162,0,0,0-.989,3.758c.01,2.018.1,4.035.165,6.053.005.147.036.293.071.572m-23.041,74.785-.474-.558c-.261,1.944-.508,3.785-.755,5.626l.132.051a3.958,3.958,0,0,1,.313-.853c.419-.645.927-1.234,1.326-1.89.476-.783.9-1.6,1.3-2.424.329-.673.6-1.375.894-2.067l-2.551-.055-.074-.1c.114-.058.23-.169.343-.167.73.019,1.458.076,2.188.089.166,0,.43-.074.489-.193.6-1.227,1.177-2.469,1.684-3.79a6.06,6.06,0,0,1-4.453.819c-.094,1.86-1.025,3.552-.365,5.515m-.679,25.374a9.839,9.839,0,0,0-.146,3.666,3.669,3.669,0,0,0,1.259,2.722,2.257,2.257,0,0,0,.458.352c.924.394,1.856.77,2.791,1.138.071.028.188-.061.283-.1.33,1.057,1.291,1.194,2.307,1.53-.629-1.94-1.934-3.3-3.011-4.822.042.339.085.678.127,1.017l-.166.071a4.809,4.809,0,0,0-2.006-3.524c.1.979.174,1.794.253,2.609l-.17.019a20.447,20.447,0,0,1-.265-2.247,1.584,1.584,0,0,0-.5-1.254c-.375-.345-.731-.708-1.217-1.182m21.774-123.88c-.048.412-.067.83-.148,1.235-.315,1.556-.668,3.1-.964,4.663a6.047,6.047,0,0,0-.055,1.449c.1,1.843,1.055,3.381,1.826,4.982a6.893,6.893,0,0,0,.886,1.441c.037-.372.084-.745.108-1.118a55.124,55.124,0,0,0-.507-9.7,14.359,14.359,0,0,0-.994-2.962l-.152.013m-4.908,53.957c-.016.978.038,1.963-.062,2.932-.232,2.263.164,4.559-.388,6.8a1.1,1.1,0,0,0,.11.621c.455,1.085.929,2.162,1.475,3.422.138-.611.24-1.035.328-1.461.42-2.044.847-4.086,1.24-6.135a1.436,1.436,0,0,0-.147-.83c-.717-1.486-1.473-2.954-2.191-4.439a4.579,4.579,0,0,1-.23-.917l-.135,0m41.017,26.729c.727.193,1.456.376,2.18.579a3.033,3.033,0,0,0,2.561-.582c1.6-.987,3.337-1.758,4.989-2.668a37.92,37.92,0,0,0,3.361-2.117c-4.7.52-8.872,2.492-13.035,4.5-.018.1-.037.2-.056.292m-31.56-.3a33.1,33.1,0,0,1,3.577-3.156,4.845,4.845,0,0,0,2.07-3.2,17.544,17.544,0,0,1,2.047-5.129,2.272,2.272,0,0,0,.254-.743c-1.2,1.258-2.753,2.145-3.443,3.912a11.018,11.018,0,0,1-1.672,2.236,7.54,7.54,0,0,0-.841,1.291c-.674,1.462-1.3,2.947-1.944,4.424a1.851,1.851,0,0,0-.048.363m36.1-29.553,4.527-4.348-.158-.071a3.921,3.921,0,0,1,.013-.881,16.724,16.724,0,0,1,2.309-5.136c.057-.086.095-.184.229-.449-.28.191-.42.265-.536.367-1.339,1.188-2.909,2.106-3.884,3.709a25.922,25.922,0,0,0-2.7,6.654l.2.155M907.811,622.8c.168,3.448-.28,6.917.6,10.5.5-.744,1.02-1.407,1.417-2.137.438-.8.748-1.679,1.142-2.51.717-1.507,1.455-3,2.184-4.505-.07-.047-.141-.093-.212-.139-.3.336-.59.693-.917,1.006-.634.607-1.3,1.177-1.93,1.791a1.869,1.869,0,0,0-.547.792c-.3,1.211-.528,2.438-.788,3.658a.467.467,0,0,1-.258.336c.077-.457.148-.914.231-1.369.22-1.2.445-2.41.667-3.615a.514.514,0,0,0,.019-.252c-.465-1.19-.939-2.377-1.411-3.565l-.2.008m55.02-18.7a5.663,5.663,0,0,0-.75.17,4.379,4.379,0,0,1-2.778.16.665.665,0,0,0-.523.078c-1.57,1.488-3.122,2.995-4.676,4.5.469.442,1.663.379,3.329-.325a12.146,12.146,0,0,0,3.146-1.6,16.7,16.7,0,0,0,2.252-2.982M930.184,601.3a11.38,11.38,0,0,1,1.9-.34,2.427,2.427,0,0,0,1.652-.548c.651-.557,1.325-1.085,2.128-1.739a3.592,3.592,0,0,0-2.262.228c-1.748,1.134-3.555,2.188-5.229,3.423a5.59,5.59,0,0,0-2.125,3.355c1.189-.762,2.488-.865,3.406-1.872a31.21,31.21,0,0,1,2.742-2.418c-.009-.068-.019-.137-.028-.205l-2.158.267c-.01-.05-.019-.1-.029-.151m-20.49,45.1a4.694,4.694,0,0,0,4.962-.382,29.586,29.586,0,0,1,2.492-1.6,5.737,5.737,0,0,1-3.667-1.59l-3.787,3.576m49.1-42.429c.759-.8,1.477-1.655,2.289-2.4a8.433,8.433,0,0,0,2.435-4.225,13.519,13.519,0,0,1,.8-1.687c-1,.752-2.246,1.105-3,2.249a16.93,16.93,0,0,0-2.527,6.065m-83.28,70.687a6.659,6.659,0,0,0-1.47-.752,3.746,3.746,0,0,0-3.371.736,16.779,16.779,0,0,0-3.2,3.408c1.115.495,2.048.007,3.182-1.024a22.523,22.523,0,0,1,2.151-1.792,3.247,3.247,0,0,1,2.59-.318l.122-.258m90.054-74.339a9.93,9.93,0,0,1-1.347.262c-.454.028-.915-.069-1.374-.081a.669.669,0,0,0-.458.14c-1.027,1.085-2.036,2.186-3.066,3.3,2.437.973,5.306-1.08,6.245-3.622m-15.585-10.694c1.009-.345,1.9-.585,2.735-.968.323-.149.515-.609.735-.947a5.516,5.516,0,0,0,.668-1.364c-.153.084-.308.163-.456.254a1.39,1.39,0,0,1-.555.248c1.834-.919,2.374-2.827,3.455-4.324a11.918,11.918,0,0,0,1.745-5.263c-.926,1.823-1.853,3.646-2.857,5.621l.56-.381.142.139-6.172,6.985m13,10.789a25.92,25.92,0,0,0,2.714-.6c.351-.114.629-.551.87-.89.556-.784,1.08-1.591,1.6-2.4a11.15,11.15,0,0,0,.926-1.749,29.365,29.365,0,0,0-6.2,5.408l.1.231m-72.727,53.237c-1.027,2.927.013,5.929-.518,8.865l.2.118c.2-.277.517-.534.564-.835.238-1.523.407-3.057.6-4.588a3.138,3.138,0,0,1,.1-.892c.573-1.247-.243-1.951-.947-2.668m46.066-46.408c-.438.372-.9.723-1.312,1.119a24.87,24.87,0,0,1-4.9,3.653,45.362,45.362,0,0,0-4.345,2.776,9.852,9.852,0,0,0-2.034,2.276c.575-.326,1.164-.629,1.717-.986.25-.161.4-.472.646-.642,1.3-.9,2.609-1.8,3.931-2.671a38.782,38.782,0,0,0,3.344-2.165c1.147-.939,2.13-2.079,3.185-3.132l-.235-.228m27.09-8.174c1.083-.964,2.019-1.843,3.005-2.661.874-.726,1.823-1.363,2.7-2.087a6.384,6.384,0,0,0,.831-1.031l-.163-.162a13.029,13.029,0,0,1-1.155.7,3.624,3.624,0,0,1-.854.206,4.059,4.059,0,0,0-2.447,1.232,10.573,10.573,0,0,0-1.917,3.8m-48.495-37.556c.194,3.236.387,6.474.584,9.777a11.368,11.368,0,0,0,1.2-3.223,6.76,6.76,0,0,0-.525-3.142c-.321-1.17-.769-2.3-1.162-3.456l-.092.044m10.132,101.5,8.552,1.107.056-.171c-.2-.142-.4-.294-.607-.423-.657-.4-1.3-.837-1.986-1.183a2.46,2.46,0,0,0-1.315-.353c-1.584.221-3.153.551-4.728.841.01.06.019.121.028.182m1.475-47.52c2.774-1.333,5.79-2.248,7.9-4.655,1.065-1.213,2.058-2.493,3.179-3.65,1.107-1.141,2.334-2.166,3.507-3.243a2.681,2.681,0,0,0,.418-.458,14.965,14.965,0,0,0-4.276,3.61,33.975,33.975,0,0,1-3.348,3.732,15.2,15.2,0,0,1-2.557,1.613q-2.3,1.424-4.6,2.856a1.724,1.724,0,0,0-.225.2m-7.246,17.989c-.581.994-1.118,2.018-1.758,2.973a10.757,10.757,0,0,1-1.648,1.971,5.015,5.015,0,0,0-2.069,3.691c.792-.694,1.56-1.386,2.351-2.052a4.381,4.381,0,0,0,1.384-2.082c.5-1.523,1.177-2.989,1.78-4.479l-.04-.022m-12.183,15.4c.463-.523.9-1.07,1.394-1.564,1.365-1.372,2.754-2.72,4.13-4.08a3.94,3.94,0,0,0,.876-2.293,37.958,37.958,0,0,0-6.556,7.815l.156.122m39.125-55.713c-.692-.088-7.2,2.32-8.105,3.2a1.8,1.8,0,0,0,1.589.057c1.131-.566,2.329-1,3.461-1.563s2.211-1.218,3.055-1.689m-71.662,78.463c-2.887-3.532-8.226-3.527-11.164-1.65,2.065-.25,3.9-1.021,5.847-.628a14.632,14.632,0,0,1,5.317,2.278M952.4,589.024c-1.182.529-2.405.548-3.286,1.46-.7.724-1.447,1.4-2.159,2.089,1.539.386,4.634-2.032,5.445-3.549m-79.149,84.1c-2.274-1.061-4.761.126-5.472,3.75.776-.79,1.585-1.593,2.37-2.419a4.752,4.752,0,0,1,3.1-1.331m39.238-18.664a1.846,1.846,0,0,1-.491-.1c-1.309-.68-2.509-.205-3.744.274-1.3.5-2.631.909-4.037,1.387a3.929,3.929,0,0,0,2.682-.207,11.435,11.435,0,0,1,3.859-.921,15.525,15.525,0,0,0,1.746-.324l-.015-.108m37.793-17.039c1.905-.666,3.683-1.372,4.818-3.092-1.145-.295-3.836,1.4-4.818,3.092m-60.393,42.836a5.07,5.07,0,0,0,1.222,4.667c-.007-.509-.013-.927-.018-1.345a9,9,0,0,1,0-.9c.143-1.472.129-1.51-1.2-2.422m22.23-32.982c-.8-.16-1.649-.339-2.505-.491a.512.512,0,0,0-.382.153c-.671.688-1.328,1.39-1.99,2.088l.113.181,4.764-1.931m16.343-42.312c-.7.259-1.364.495-2.017.758a.5.5,0,0,0-.264.315c-.226,1.176-.432,2.356-.639,3.536a.237.237,0,0,0,.031.125l2.889-4.734m-31.273,80.088c-.885-1.737-2.836-2.939-4.263-2.753.857,1.684,2.614,1.987,4.263,2.753m-6.837-5.132c1.064,1.233,2.175,2.236,3.979,2.239-1.165-1.106-2.062-2.479-3.979-2.239m69.7-46.149c-1.484-.314-5.157.331-5.66,1.747l5.66-1.747M888.5,678.543c-.48,1.631-.291,2.942,1.023,3.919a17.14,17.14,0,0,0-.083-2.631c-.075-.437-.569-.8-.94-1.288m-8.864-6.716q1.129-2.21,2.258-4.419l-.106-.078a4.9,4.9,0,0,1-.957,1.081c-1.29.789-1.463,1.986-1.2,3.416m55.081-73.612c1.617.473,2.671-.544,3.944-1.367-1.8-.63-2.662.952-3.944,1.367m-55.746,43.967c-.309-1.589-.619-3.177-.931-4.779-.88,1.071-.137,3.366.931,4.779m8.955,37.8c.189-.984.447-1.987-.49-2.757-.117-.1-.373-.022-.708-.031.364,1.037.683,1.948,1,2.858l.2-.07m2.255-1.454-2.039-1.366a1.829,1.829,0,0,0,2.039,1.366m7.478-6.213a4.422,4.422,0,0,0-.084-1c-.042-.139-.34-.2-.521-.3-.064.161-.217.352-.174.475a6.307,6.307,0,0,0,.473.906l.306-.079m-8.246,6.457c.4,1.186,1.319.6,1.927.868l.06-.168ZM864.507,668.9l2.287-.259c-.007-.066-.015-.131-.023-.2l-2.319.235c.019.073.037.147.055.221m-2.325,1.32,1.223-.824-.131-.2-1.23.814.138.208" fill="#0d0213"/><path d="M868.439,682.317c-.842.418-1.681.841-2.526,1.251-.625.3-1.258.587-1.888.879l.081.17,8.317-3.376-.072-.2c-.685.248-1.363.516-2.055.738-.561.18-1.139.3-1.71.454l-.147.087" fill="#0d0213"/><path d="M879.927,657.588c1.461-1.024,2.178-2.656,3.079-4.145-.5.718-.973,1.449-1.493,2.148-.506.682-1.056,1.333-1.586,2" fill="#0d0213"/><path d="M879.681,663.2c.764-.067,1.106-.488,2.589-3.122-.957.958-1.287,2.438-2.589,3.122" fill="#0d0213"/><path d="M882.426,647.437l-2.345,3.22c.459.036,1.916-1.9,2.345-3.22" fill="#0d0213"/><path d="M879.7,646.542c.177-.056.435-.056.517-.177.5-.739.965-1.506,1.4-2.273q-.953,1.236-1.908,2.471l-.014-.021" fill="#0d0213"/><path d="M898.1,628.043c.273-.085.621-.092.807-.268.94-.889,1.837-1.823,2.7-2.792-1.291.823-1.991,2.36-3.576,2.813.022.082.046.164.069.247" fill="#0d0213"/><path d="M900.107,618.673l1.941-2.013-.143-.14-1.972,1.983.174.17" fill="#0d0213"/><path d="M902.064,612.881l-1.519,1.08a1.981,1.981,0,0,0,1.508-1.1l.011.022" fill="#0d0213"/><path d="M885.566,675.924a21.228,21.228,0,0,0-4.642,1.359l.047.171,4.658-1.3-.063-.228" fill="#0d0213"/><path d="M896.98,619.459q.513,1.5,1.027,2.994-.515-1.5-1.027-2.994" fill="#0d0213"/></g></svg>