<svg xmlns="http://www.w3.org/2000/svg" width="114.496" height="137.178" viewBox="0 0 114.496 137.178"><g transform="translate(-108 -555)"><path d="M201.564,675.51c-.406-.878-.78-1.773-1.226-2.63-.714-1.369-1.575-2.67-2.191-4.079-.7-1.611-1.224-3.3-1.782-4.975a2.169,2.169,0,0,1,.029-.988,8.9,8.9,0,0,0-.332-3.946c-.574-2.041-.254-4.155-.306-6.238-.029-1.181-.169-2.364-.121-3.541a26.172,26.172,0,0,1,.432-3.568,21.954,21.954,0,0,1,.681-2.243c.158-.535.3-1.076.424-1.619.293-1.272.531-2.559.871-3.818a5.523,5.523,0,0,1,2.157-2.654,2.325,2.325,0,0,1,2.741.554,5.943,5.943,0,0,1,1.21,2.88,8.951,8.951,0,0,0,.365,1.235c.124.454.246.911.333,1.373a24.465,24.465,0,0,0,.491,2.719,15.23,15.23,0,0,1,.251,5,2.214,2.214,0,0,0-.005.514c.467,2.122-.012,4.191-.346,6.268a1.977,1.977,0,0,0-.075.7c.452,1.982-.082,3.949-.157,5.914a48.5,48.5,0,0,1-.953,5.762,13.867,13.867,0,0,1-1.207,3.92,4,4,0,0,0-.238,3.546c.313-.724.571-1.446.926-2.117a11.138,11.138,0,0,1,11.672-5.922,11.143,11.143,0,0,1,3.205,1.277,6.162,6.162,0,0,1,1.418,1.078c.429.394.073.792-.1,1.166a.671.671,0,0,1-.855.369q-2.267-.484-4.542-.927a9.45,9.45,0,0,0-5.434.679,2.9,2.9,0,0,0-.377.232,13.2,13.2,0,0,1,1.961.391,4.866,4.866,0,0,1,2.677,2.743c.6,1.306,1.132,2.649,1.672,3.984a11.619,11.619,0,0,1,.337,1.218c-.4-.022-.725.054-.921-.069a2.965,2.965,0,0,0-1.795-.359,4.054,4.054,0,0,1-3.295-1.622,5.351,5.351,0,0,0-2.176-1.655,1.582,1.582,0,0,0-2.329.908c-.074.153-.307.229-.581.42a2.871,2.871,0,0,0,.543.413c1.258.555,2.53,1.078,3.79,1.631,2.065.908,4.109,1.867,6.191,2.736,2.159.9,4.354,1.72,6.528,2.59a8.01,8.01,0,0,1,.92.489,8.5,8.5,0,0,0,.1,1.038c.075.333.232.647.322.978.152.563-.16.86-.724.74a43.059,43.059,0,0,1-6.918-2.62c-1.7-.679-3.416-1.322-5.092-2.058-1.575-.691-3.081-1.542-4.664-2.215-1.657-.7-3.355-1.319-5.059-1.9-1.6-.551-3.236-1.012-4.885-1.522a4.146,4.146,0,0,0-.18.465,11.88,11.88,0,0,1-2.549,4.859,12.5,12.5,0,0,0-2.267,4.315,3.833,3.833,0,0,1-2.828,2.51,7.412,7.412,0,0,0-2.391,1.215,4.451,4.451,0,0,1-3.467,1.065A1.7,1.7,0,0,1,180,690.736a6.659,6.659,0,0,1-.328-2.093,4.159,4.159,0,0,1,.711-1.764,24.219,24.219,0,0,1,5.092-5.779c1.841-1.507,3.637-3.068,5.462-4.612.076.065.027-.006-.039-.029-2.185-.783-4.368-1.572-6.561-2.333a9.955,9.955,0,0,0-1.623-.394c-.343-.057-.56-.152-.585-.538a9.887,9.887,0,0,1-.143-2,1.687,1.687,0,0,1,2.492-1.209c1.539.6,3.014,1.371,4.5,2.106a16.458,16.458,0,0,0,5.687,1.312c.316.035.687-.44,1.123-.741a17.106,17.106,0,0,1-1.453-1.437,5.079,5.079,0,0,0-3.29-1.81c-1.29-.235-2.562-.581-3.831-.918-1.762-.467-3.47,0-5.171.318a4.714,4.714,0,0,1-2.408.006,9.136,9.136,0,0,0-4.457.1,21.825,21.825,0,0,1-5.582-.079,48.981,48.981,0,0,0-5.324-.154c-1.4.021-2.8.208-4.206.314a2.46,2.46,0,0,1-.514-.023c-1.072-.141-2.147-.265-3.212-.445-.6-.1-1.177-.333-1.775-.451-1-.2-2.028-.267-3-.549a15.565,15.565,0,0,1-2.394-1.08c-.828-.4-1.638-.846-2.464-1.254a.677.677,0,0,0-.5-.076c-.739.374-1.214-.09-1.834-.578a12.519,12.519,0,0,1,1.08-.873c.722-.466,1.53-.813,2.2-1.338a19.436,19.436,0,0,1,9.183-3.561,26.566,26.566,0,0,1,2.836-.562c1.391-.067,2.791.054,4.186.119a18.52,18.52,0,0,1,5.473.759,2.4,2.4,0,0,0,1.023.1,8.467,8.467,0,0,1,3.65.664c.95.323,1.954.485,2.933.718a1.526,1.526,0,0,1,.313.075,56.89,56.89,0,0,1,5.771,2.551,29.5,29.5,0,0,0,4.44,2.1c-.567-.529-1.1-1.107-1.708-1.58a26.887,26.887,0,0,1-5.391-5.326,24.357,24.357,0,0,0-2.891-1.11c-.9-.229-1.883-.154-2.809-.323a20.765,20.765,0,0,1-2.212-.664,6.076,6.076,0,0,0-.872-.227,55.249,55.249,0,0,0-5.753-.757c-2.222-.08-4.247-.918-6.385-1.284-.613-.105-1.239-.134-1.86-.2a8.81,8.81,0,0,1-1.846-.2c-1.863-.616-3.816-1-5.363-2.4a3.557,3.557,0,0,0-2.625-.637,4.805,4.805,0,0,1-3.39-.958c-.637-.507-1.265-1.025-1.911-1.52a1.222,1.222,0,0,0-.572-.261,12.1,12.1,0,0,1-4.3-1.3c-1.4-.708-2.818-1.391-4.181-2.169-.624-.357-1.109-.948-1.7-1.37-.723-.513-1.5-.952-2.24-1.436-.846-.551-1.695-1.1-2.521-1.678a30.842,30.842,0,0,0-5.357-2.995,23.012,23.012,0,0,1-2.9-1.669q-1.543-.968-3.03-2.022A13.886,13.886,0,0,1,114,631.848c-.155-.15-.135-.481-.195-.729a4.22,4.22,0,0,1,.628.1,1.136,1.136,0,0,1,.377.244c1.629,1.407,3.627,1.175,5.553,1.244a15.462,15.462,0,0,1,4.014.521c1.123.341,2.337.369,3.493.616,1.551.331,3.084.749,4.628,1.113,1.233.292,2.492.5,3.7.856,1.5.445,2.966,1.006,4.443,1.525a14.4,14.4,0,0,1,2.817,1.054,26.129,26.129,0,0,0,4.872,2,45.64,45.64,0,0,1,5.457,2.627c1.862.986,3.671,2.072,5.5,3.116a4.557,4.557,0,0,0,2.4.621,3.166,3.166,0,0,1,1.342.495c.816.418,1.6.906,2.416,1.32.727.367,1.492.659,2.229,1.009.641.3,1.281.616,1.894.972s1.177.78,1.777,1.152c1.463.9,2.923,1.815,4.4,2.687.793.465,1.629.855,2.445,1.28l.126-.149c-.21-.295-.4-.606-.633-.882a25.806,25.806,0,0,0-3.89-3.81,11.366,11.366,0,0,0-4.574-2.266,13.213,13.213,0,0,1-4.441-2.093,11.6,11.6,0,0,0-1.5-.708c-.291-.136-.593-.254-.869-.417-1.423-.843-2.816-1.742-4.267-2.533-.9-.491-1.9-.791-2.825-1.241-.827-.4-1.579-.97-2.422-1.331a8.852,8.852,0,0,1-2.464-1.923,4.755,4.755,0,0,0-1.536-.8,8.027,8.027,0,0,1-2.47-1.721c-1.158-1.053-2.425-1.986-3.6-3.027q-2.989-2.66-5.911-5.4c-1.142-1.072-2.176-2.26-3.331-3.318a29.509,29.509,0,0,0-3.016-2.409,13.426,13.426,0,0,1-3.107-3.418c-1.271-1.783-2.467-3.624-3.82-5.341-.86-1.091-2.043-1.927-2.91-3.015-1.216-1.526-2.253-3.194-3.408-4.771-.449-.612-1.033-1.121-1.516-1.71a17.567,17.567,0,0,1-1.25-1.7c-1.2-1.887-2.393-3.782-3.554-5.7a18.526,18.526,0,0,1-.813-1.754,11.271,11.271,0,0,0-2-3.319c-.186-.186-.141-.6-.2-.91.268.059.6.039.793.191.757.593,1.476,1.233,2.2,1.868a3.827,3.827,0,0,0,2.326,1.062,6.015,6.015,0,0,1,2.53,1.053c1.827,1.165,3.583,2.443,5.375,3.663.516.351,1.075.638,1.585,1,1.161.818,2.3,1.669,3.455,2.493,1.051.75,2.1,1.5,3.178,2.216.5.333,1.059.571,1.565.893.773.49,1.53,1.006,2.282,1.53.473.33.925.693,1.382,1.047.8.621,1.584,1.257,2.392,1.865.391.295.823.535,1.227.813.6.413,1.214.812,1.785,1.264.772.611,1.525,1.249,2.257,1.907.606.545,1.142,1.17,1.759,1.7.828.713,1.723,1.348,2.555,2.057.584.5,1.106,1.065,1.664,1.593.662.625,1.349,1.225,2,1.865.617.612,1.182,1.276,1.8,1.89.447.447.95.836,1.4,1.276.659.639,1.284,1.313,1.948,1.946.634.6,1.3,1.169,1.953,1.754a2.835,2.835,0,0,1,.628.6c.467.824.834,1.706,1.339,2.5a3.514,3.514,0,0,0,1.2,1.208,4.894,4.894,0,0,1,1.906,2.207c.112.207.24.407.338.621a16.2,16.2,0,0,0,3.558,4.549c1.788,1.795,3.522,3.644,5.282,5.468.038.04.108.051.25.114-.793-1.546-1.587-3-2.289-4.5-.621-1.322-1.17-2.68-1.7-4.043a66.235,66.235,0,0,0-5.394-11.784,8.292,8.292,0,0,0-1.705-1.812,37.7,37.7,0,0,1-4.3-3.563,8.647,8.647,0,0,0-2.9-1.937c-1.993-1.018-4.025-1.97-5.961-3.088a9.818,9.818,0,0,1-2.493-2.119,90.8,90.8,0,0,0-7.906-8.056c-1.74-1.589-3.2-3.482-4.806-5.221-.287-.311-.239-.585.042-.743a.891.891,0,0,1,.788-.024q4.458,3.414,8.871,6.886c2.3,1.8,4.516,3.724,6.891,5.422a60,60,0,0,0,6.239,3.715c-.555-1.2-1.083-2.407-1.669-3.588a18.684,18.684,0,0,0-5.231-6.634c-1.855-1.438-3.608-3.028-5.568-4.3a48.081,48.081,0,0,0-5.417-2.732q-3-1.445-6.02-2.834a11.129,11.129,0,0,1-4.976-4.636c-1.306-2.2-2.688-4.363-3.949-6.592a9.266,9.266,0,0,1-.668-2.25c-.547-2.1-1.079-4.208-1.616-6.312-.026-.1-.1-.277-.065-.3a6.561,6.561,0,0,1,1.191-.732c.082-.035.416.343.52.58.71,1.617,1.324,3.279,2.1,4.864a63.275,63.275,0,0,0,3.28,6.151,24.172,24.172,0,0,0,2.9,3.183c.569.615,1.145,1.224,1.683,1.865a10.406,10.406,0,0,0,4.9,3.459,42.055,42.055,0,0,1,10.408,4.967c1.716,1.108,3.489,2.129,5.177,3.277a7.915,7.915,0,0,1,3.492,5.549c.457,2.771,1.249,5.487,1.91,8.223a3.97,3.97,0,0,0,1.6,1.972,25.825,25.825,0,0,1,4.037,4.212,39.537,39.537,0,0,1,4.751,9.207c1.006,2.495,1.794,5.077,2.752,7.592.841,2.209,1.784,4.38,2.682,6.567l.2-.05c-.1-.505-.213-1.007-.291-1.515-.256-1.679-.535-3.356-.735-5.042a8.593,8.593,0,0,0-1.983-4.678,8.94,8.94,0,0,1-1-1.912,9.738,9.738,0,0,0-.583-1.291,26.933,26.933,0,0,1-2.275-4.768c-.568-1.319-1.285-2.574-1.9-3.875a10.826,10.826,0,0,1-.468-1.455c-.737-2.409-1.49-4.814-2.2-7.231a24.453,24.453,0,0,1-1-4.788,25.514,25.514,0,0,0-1.117-4.905,13.041,13.041,0,0,1-.507-4.6,38.22,38.22,0,0,0-.668-9.5,12.258,12.258,0,0,1,.378-3.944c.413-2.591.929-5.166,1.328-7.759a28.4,28.4,0,0,0,.213-3.33,16.87,16.87,0,0,1,1.195-4.544c.621-1.925,1.215-3.858,1.881-5.767.417-1.2.964-2.346,1.418-3.53.214-.556.329-1.149.522-1.714.112-.329.316-.627.432-.955.186-.528.292-1.087.517-1.6a.77.77,0,0,1,.612-.38.76.76,0,0,1,.532.487c.316,1.777.534,3.573.879,5.345a29.745,29.745,0,0,1,.943,5.588c.008,1.952.067,3.911.248,5.853.2,2.179.585,4.341.85,6.515.3,2.478.56,4.961.839,7.442a28.867,28.867,0,0,0,.454,3.7,18.562,18.562,0,0,1,.378,4.87c-.026,1.456.071,2.914.079,4.371.008,1.741-.067,3.484-.019,5.223.037,1.35.207,2.7.32,4.045.11,1.324.249,2.646.327,3.971.07,1.2.083,2.405.1,3.608.019,1.032,0,2.063.028,3.094.012.472.1.94.141,1.411.127,1.584.29,3.167.357,4.753.055,1.306.038,2.62-.032,3.926-.051.937-.344,1.866-.347,2.8a45.122,45.122,0,0,0,.208,5.469c.269,2.283.673,4.557,1.167,6.8a32.068,32.068,0,0,0,1.521,4.993,12.185,12.185,0,0,0,1.813,2.855c1.547,1.985,3.08,3.995,4.784,5.841,1.865,2.021,3.922,3.864,5.883,5.8.889.876,1.748,1.782,2.624,2.671.128.13.277.239.564.484-.126-.357-.173-.534-.248-.7a20.267,20.267,0,0,0-1-2.072,4.491,4.491,0,0,0-1.047-1.086,4.186,4.186,0,0,1-1.513-2.1,3.8,3.8,0,0,0-.858-1.344,7.684,7.684,0,0,1-1.761-3.044A8.385,8.385,0,0,0,185,655.1a37.562,37.562,0,0,1-1.92-3.772,39.761,39.761,0,0,1-1.014-4.061c-.284-1.1-.648-2.183-.919-3.288-.225-.915-.378-1.848-.539-2.777a6.49,6.49,0,0,0-.207-1.525,16.641,16.641,0,0,1-1.007-5.034c-.236-1.959-.61-3.9-.94-5.85a1.907,1.907,0,0,0-.288-.778,5.648,5.648,0,0,1-.831-3.764c.057-1.134-.014-2.273,0-3.41q.042-3.316.119-6.634c.049-2.066.119-4.132.186-6.2.05-1.545.12-3.09.159-4.635.009-.345.122-.513.47-.551a.532.532,0,0,1,.672.391c.3.729.735,1.4,1.1,2.1.29.553.6,1.1.839,1.674a9.525,9.525,0,0,0,1.629,2.452,13.074,13.074,0,0,1,2.235,4.323,38.7,38.7,0,0,1,1.117,5.35c.253,1.3.659,2.577,1.016,3.86.546,1.96,1.153,3.9,1.648,5.877.4,1.614.742,3.251,1,4.895a22.245,22.245,0,0,1,.105,2.96,10.471,10.471,0,0,0,.653,3.578,3.863,3.863,0,0,1,.231,1.24c.033,1.051-.043,2.107.031,3.153.071,1.025.276,2.04.417,3.059.208,1.512.418,3.023.609,4.536.037.3-.028.6-.016.9.026.639.092,1.276.106,1.915.032,1.475.046,2.951.06,4.426,0,.214-.077.431-.061.642a22.766,22.766,0,0,0,.379,4.092,11.968,11.968,0,0,0,2.938,5.178c1.653,1.741,3.346,3.444,5.043,5.142a14.617,14.617,0,0,0,1.336,1.065l.206-.127m-19.672,12.454a1.078,1.078,0,0,1,.189-.319c.916-.74,1.849-1.461,2.761-2.206.324-.266.606-.584,1.032-1-2.289.26-4.407,2.091-4.648,3.876l.613-.314c-.271.41-.741.809-.764,1.232-.03.547-.121,1.244.368,1.666.917-1.514,1.806-2.983,2.7-4.451l-.118-.117-2.129,1.633m5.365-21.187c-.5-.08-1.014-.125-1.506-.247-1.058-.263-2.108-.564-3.16-.85-.371-.1-.552.063-.763.381-.42.633-.933,1.2-1.407,1.8l1.51-2.271-2.2-.5-2.38,2.234,3.071.527c.442-.051.886-.089,1.327-.155,1.578-.237,3.134-.734,4.76-.443.639.113,1.274.248,1.91.374l.062-.16-1.258-.7c.014-.08.063-.218.038-.233-.313-.188-.634-.362-.958-.53q-2.223-1.156-4.45-2.3c-.161-.083-.334-.142-.58-.246,1.184,1.773,1.184,1.772,3.043,2.241a7,7,0,0,1,.8.242c.714.273,1.422.561,2.133.844m1.319-16.3a2.655,2.655,0,0,0-.092.724c.106.7.268,1.393.394,2.091.078.422.129.849.215,1.429.419-.554.648-1.1,1.055-1.334a.918.918,0,0,0,.44-1.1c-.149-1.024-.362-2.04-.552-3.074l-1.472,1.283c.231-.3.489-.574.689-.889.3-.478.8-.985.793-1.474a14.231,14.231,0,0,0-.5-2.663l-1.8,1.195c.062-.086.105-.206.189-.252,1.66-.908,1.891-2.4,1.693-4.079-.018-.149-.018-.3-.031-.451-.037-.408-.077-.816-.129-1.368a9.017,9.017,0,0,1-1.25,1.342c-1.735,1.2-1.462,2.728-.834,4.349a1.093,1.093,0,0,0,.114.3c.058.069.172.093.259.14a1.691,1.691,0,0,0-.118.594c.17.941.364,1.88.583,2.811.037.16.232.283.351.427M201.8,667.489c-.66,1.384-.277,2.825-.254,4.251,1.4-2.115,1.383-4.573,1.775-6.943-.155.037-.126.142-.163.211-.451.839-.91,1.672-1.368,2.507a.653.653,0,0,1,.04-.245c1.639-2.593,2.046-5.517,2.287-8.486a3.247,3.247,0,0,0-.024-.45,2.992,2.992,0,0,0-.528.907,16.819,16.819,0,0,1-1,2.217,4.266,4.266,0,0,0-.854,3.361,4.722,4.722,0,0,1-.134,1.336c-.042.508-.057,1.017-.084,1.525l.149,0,.163-.193m-17.56-21.141a8.832,8.832,0,0,0,1.22.563,16.653,16.653,0,0,0,1.721.317c-.27-1.036-.463-1.846-.706-2.641a.653.653,0,0,0-.452-.315,7.47,7.47,0,0,1-3.446-1.758c.425.243.864.466,1.274.733a4.736,4.736,0,0,0,2.538.7c-.218-.974-.4-1.9-.647-2.8a1.144,1.144,0,0,0-.556-.6c-.573-.292-1.211-.461-1.768-.776-.767-.432-1.483-.953-2.221-1.435l.1-.161a8.8,8.8,0,0,0,4.207,1.964c-.167-.872-.3-1.681-.49-2.475a.818.818,0,0,0-.445-.517c-1.452-.453-2.268-1.674-3.309-2.624,1.14.755,1.981,1.956,3.491,2.294-.18-1.142-.346-2.2-.507-3.224-.2.011-.37.077-.473.019a13.554,13.554,0,0,1-3.81-3.225,1.123,1.123,0,0,1-.127-.343c.244.237.493.469.732.712a13.177,13.177,0,0,0,3.361,2.6c.056-.171.149-.3.126-.409-.688-3.266-1.388-6.53-2.08-9.771-1.155-.051-1.635-.891-2.23-1.573.34.222.613.534.945.76a8.9,8.9,0,0,0,1.14.553c-.4-2.032-.81-3.858-1.108-5.7-.539-3.326-1-6.663-1.516-9.993-.08-.524-.251-1.035-.38-1.552a.682.682,0,0,0-.232.468c-.066,1.74-.139,3.48-.178,5.22a14.706,14.706,0,0,0,.117,1.521l.011-.022c-.071.087-.2.169-.2.261-.106,1.29-.273,2.58-.272,3.87,0,1.64.139,3.28.216,4.92a7.921,7.921,0,0,1,.046,1.6,6.035,6.035,0,0,0,.657,4.283,13.08,13.08,0,0,1,.862,2.253c-.094.065-.267.131-.267.2a5.929,5.929,0,0,0,.081.959c.247,1.493.512,2.983.755,4.475.107.654.143,1.32.275,1.967.241,1.184.521,2.36.808,3.534a3.089,3.089,0,0,0,.327.646c-.065.049-.187.1-.186.146a5.71,5.71,0,0,0,1.138,3.254,1.605,1.605,0,0,0-.1.539,12.192,12.192,0,0,1,.443,2.207,2.143,2.143,0,0,0,1.963,2.376c.357.071.7.257,1.053.292a4,4,0,0,0,1.269-.07.658.658,0,0,0,.359-.535,20.888,20.888,0,0,0-.447-2.21.51.51,0,0,0-.38-.3,3.893,3.893,0,0,1-2.7-1.176m-.651-19.442c.22-.851.45-1.7.657-2.554.558-2.3,1.2-4.588.489-6.975-.065-.22-.121-.443-.213-.78-.342,1.071-.632,1.982-.923,2.893a19.7,19.7,0,0,1,.492-2.255c.5-1.47-.116-2.7-.7-4.07l-1.263,3.632-.149-.05c.058-.2.119-.4.173-.6.276-1.036.581-2.064.816-3.109a3.6,3.6,0,0,0-1.461-3.054c-.051.56-.1,1.112-.153,1.664a19.354,19.354,0,0,0-.38-2.388,12.425,12.425,0,0,0-1.173-2.119c.863,5.168,1.14,10.409,2.458,15.537.172-.132.255-.2.338-.257-.432,1.665.6,3.093.646,4.771l.353-.314c-.358,1.766.6,3.315.736,5l.215.038,1.227-3.276a4.187,4.187,0,0,1-.212,1.062,7.211,7.211,0,0,0-.683,5.319c.373,1.342.561,2.734.856,4.1.016.071.264.091.4.138-.079.17-.252.359-.222.507.226,1.117.491,2.227.787,3.532.812-.968,1.486-1.77,2.158-2.573a1.287,1.287,0,0,0,.222-1.434,6.314,6.314,0,0,1-.309-1.374c-.071-.449-.094-.9-.145-1.42l-2.5,2.779c.524-.675,1.031-1.363,1.576-2.02a3.314,3.314,0,0,0,.958-2.874c-.192-.942-.386-1.884-.6-2.943l-.874,1.324-.183-.11c.324-.629.9-1.248.922-1.89a12.166,12.166,0,0,0-1.138-4.947c-.307.832-.583,1.583-.86,2.333.138-1.219.765-2.379.426-3.655-.316-1.194-.62-2.391-.93-3.587-.331.868-.49,1.712-.728,2.533-.337,1.164-.733,2.311-1.1,3.465m28.419,55.324c-.639-.306-1.271-.629-1.919-.917-3.535-1.575-7.089-3.111-10.607-4.722a23.8,23.8,0,0,0-6.914-2.43,16.63,16.63,0,0,1-6.206-2.2c-.449-.253-.893-.517-1.145-.663l-.9,1.132,8.3,2.758-.017.1-4.462-.905a5.136,5.136,0,0,0,1.1.506c.845.239,1.712.406,2.554.655q3.277.969,6.539,1.989c1.72.541,3.452,1.061,5.134,1.706,1.416.544,2.761,1.273,4.151,1.887,2.374,1.049,4.757,2.076,7.139,3.106,1.238.535,2.471,1.085,3.726,1.575.885.345,1.8.6,2.708.895l.109-.206a1.886,1.886,0,0,0-.491-.342c-.474-.137-.968-.205-1.444-.335a1.915,1.915,0,0,1-.466-.288l.1-.166.522.037c-1.585-.73-3.186-1.389-4.788-2.046q-1.283-.525-2.567-1.044l-.147-.087m-66.757-49c.488.471,1.012.911,1.458,1.419a7.92,7.92,0,0,0,3.2,2.108,4.341,4.341,0,0,1,1.043.618c.691.528,1.339,1.113,2.035,1.634a10.5,10.5,0,0,0,4.1,1.981,2.366,2.366,0,0,1,.643.3c1.326.758,2.664,1.5,3.967,2.292a4.191,4.191,0,0,0,5.091-.978c-1-.908-2.065-1.757-2.984-2.741-.691-.741-1.3-1.229-2.271-.541a.346.346,0,0,1-.123.037,11.475,11.475,0,0,1-5.1.392c-1.031-.215-2.029-.594-3.042-.9l.045-.181a12.737,12.737,0,0,0,9.215-.115l-4.618-3.97a10.848,10.848,0,0,1-5.439.571,17.038,17.038,0,0,1-5.51-1.248c-.552-.274-1.151-.455-1.729-.678.292.059.587.1.873.18,1.017.277,2.023.6,3.048.84.75.176,1.534.2,2.284.382a13.837,13.837,0,0,0,4.995,0,7.96,7.96,0,0,0,.99-.273l-4.866-3.746a17.307,17.307,0,0,1-11.094-.523,3.646,3.646,0,0,0,.744.788c1.01.791,2.029,1.571,3.045,2.355m55.629,13.333c-.053-1.535.317-3.164-.968-4.434l.977,1.076c.473-2.134.94-4.162,1.35-6.2a.862.862,0,0,0-.4-.705c-.308-.153-.878-.3-1.041-.139a5.657,5.657,0,0,0-2.1,3.153,55.914,55.914,0,0,1-1.61,6.571,11.3,11.3,0,0,0-.373,2.987c0,1.442.189,2.88.1,4.332-.067,1.136-.024,2.279-.01,3.419a3.149,3.149,0,0,0,.759,2.205,6.725,6.725,0,0,1,.593.882l-.093.065-.793-1.059a10.993,10.993,0,0,1,.179,4.207,2.554,2.554,0,0,0,0,.832,8.7,8.7,0,0,0,3.04,4.962,2.833,2.833,0,0,0,.424.24c.107-1.461.265-2.845.3-4.232.038-1.7-.014-3.394-.058-5.09-.068-2.58-.183-5.158-.239-7.739-.039-1.782-.014-3.566-.017-5.349Zm-48.531-1.009a9.074,9.074,0,0,0-6.928-5.175c.341.506.625.968.95,1.4s.682.809,1.026,1.211l-.154.182a10.529,10.529,0,0,0-7.314-5.044l3.365,4.294c-.728-.7-1.377-1.466-2.079-2.184-1.108-1.133-1.7-2.843-3.511-3.2-.02,0-.037-.024-.057-.03l-2.232-.622-.161.244,3.3,4.052a16.007,16.007,0,0,1-2.792-2.989c-.968-1.555-2.414-1.733-4.093-1.953l1.057,1.4c-2.64-2.073-3.48-2.515-4.671-2.418a8.726,8.726,0,0,1,1.348,1.236,7.945,7.945,0,0,0,4.035,2.866,4.173,4.173,0,0,1,1.127.345A24.656,24.656,0,0,0,140.044,642q3.378,1.385,6.75,2.786c2.672,1.1,5.331,2.246,8.023,3.3,1.194.469,2.465.736,3.683,1.148.7.237,1.345.63,2.043.869q3.867,1.324,7.757,2.585c.73.237,1.506.338,2.227.594.5.175.919.543,1.4.767.507.235,1.043.408,1.571.6s1.045.354,1.569.53a98.764,98.764,0,0,0-8.712-5.394l-.1.146.749.78a8.166,8.166,0,0,1-.926-.606c-1.239-.761-2.475-1.532-3.75-2.232a4.013,4.013,0,0,0-1.257-.22l-.062.206,1.956,1.378-.053.071-7.281-4.482-.128.17q.874,1.252,1.749,2.508c-.534-.57-.967-1.216-1.473-1.8a10.224,10.224,0,0,0-1.607-1.575,15.5,15.5,0,0,0-2.026-1.1c-.66-.344-1.327-.677-1.991-1.015l-.083.153c.431.533.9,1.042,1.281,1.608s.671,1.188,1,1.785m3.068,21.223-.052-.137c.323-.114.652-.214.968-.344,1.391-.575,2.791-1.13,4.16-1.752a2.487,2.487,0,0,0,1.278-1.341,13.281,13.281,0,0,1-2.155.125,9.476,9.476,0,0,0-5.379,1.143c-.856.432-1.77.748-2.657,1.116l-.022-.056q1.8-.857,3.609-1.713l-.067-.264-7.218.728-.084.329c.244.06.545.048.721.191a11.675,11.675,0,0,0,4.552,2.052,5.087,5.087,0,0,0,1.431-.041.77.77,0,0,1,.092.009l-.423.23a5.119,5.119,0,0,0,.509.148c1.336.222,2.673.444,4.012.652a4.784,4.784,0,0,0,1.025.078c1.972-.124,3.94-.335,5.913-.385a29.093,29.093,0,0,1,4.563.215,24.843,24.843,0,0,0,4.088.207c2.2-.07,3.624-1.324,4.962-2.9-1.014-.271-1.96-.532-2.911-.77a.52.52,0,0,0-.386.107,21.562,21.562,0,0,1-2.185,1.756,30,30,0,0,1-2.965,1.4c1.715-.917,3.518-1.664,4.913-3.372l-4.379-.832c-.89,2.018-2.908,2.253-4.489,3.124a1.8,1.8,0,0,1,.5-.362c.96-.571,1.94-1.112,2.863-1.738a3.5,3.5,0,0,0,.69-.963l-.141-.2c-1-.041-2.01-.112-3.014-.1a1.214,1.214,0,0,0-.788.411,14.822,14.822,0,0,1-5.935,3.924,16.148,16.148,0,0,0,5.773-4.213c-1.488-.016-2.819-.043-4.149-.029a1.061,1.061,0,0,0-.57.308c-.456.388-.826.949-1.346,1.175-1.742.759-3.536,1.4-5.309,2.087m13.795-50,.169.026c.78-1.542,1.632-3.052,2.308-4.637a4.338,4.338,0,0,0,.347-2.385,32.78,32.78,0,0,1-.509-6.295c0-.317-.11-.633-.106-.949.014-1.108.072-2.216.078-3.324,0-.468-.114-.936-.124-1.406-.052-2.755.52-5.536-.468-8.253a8.83,8.83,0,0,1-.228-2.135l-.179-.024c-.166.635-.372,1.263-.486,1.907a2.954,2.954,0,0,1-.789,1.787,2.755,2.755,0,0,0-.508.816c-.308.631-.585,1.277-.883,1.914-.556,1.184-1.363,2.265-1.106,3.723.212,1.21.259,2.449.4,3.839.217-.244.309-.33.382-.431a20.556,20.556,0,0,0,3.147-6.157,5.692,5.692,0,0,1,.276-.633l.174.077a37.967,37.967,0,0,1-1.339,3.941,27.013,27.013,0,0,1-1.967,3.162,2.059,2.059,0,0,0-.352,1.632c.3,1.5.5,3.012.724,4.523.148,1.015.261,2.035.4,3.147.154-.169.27-.246.316-.353.618-1.474,1.227-2.951,1.758-4.235a8.7,8.7,0,0,1-1.213,4.039,4.944,4.944,0,0,0-.622,3.25c.145,1.143.269,2.289.4,3.434m-25.66,27.025c-1.565-.6-3.083-1.2-4.609-1.766-.121-.045-.3.1-.464.138-1.111.264-2.223.522-3.334.782-.015-.066-.03-.132-.044-.2a6.615,6.615,0,0,0,3.225-1.036c-2.192-1.124-4.4-2.148-6.622-3.16-.087-.039-.23.036-.344.069-.655.19-1.3.412-1.965.565-.482.11-.985.13-1.612.2a5.588,5.588,0,0,0,.464.346c.688.392,1.4.75,2.066,1.172a1.337,1.337,0,0,0,1.262.228c.545-.193,1.12-.3,1.682-.449.271-.07.545-.131.812-.212s.517-.179.776-.27c.017.065.033.131.05.2-1.1.643-2.389.665-3.8,1.022,1.384,1.046,2.593,2.077,3.918,2.925a33.265,33.265,0,0,0,3.516,1.778,6.033,6.033,0,0,0,3.178.706,1.954,1.954,0,0,1,1.593.8c1.218,1.292,2.524,2.365,4.475,2.068a3.094,3.094,0,0,1,.645.013c1.677.1,3-.755,4.329-1.6.06-.039.087-.128.123-.183-.059-.068-.08-.116-.115-.13-1.353-.553-2.706-1.108-4.066-1.646a.734.734,0,0,0-.43.036c-1.164.338-2.326.684-3.488,1.028l-.021-.085,3.346-1.179a4.388,4.388,0,0,0-.488-.333q-1.863-.878-3.73-1.744a3.692,3.692,0,0,1-3.033,1.554c.944-.411,2.05-.543,2.7-1.64m20.936,17.1.069-.168c2.024,1.275,4.085,2.422,6.793,1.939l-4.067-2.5.111-.177c1.4.864,2.858,1.644,4.174,2.618,1.044.772,2.209.617,3.308.924l.1-.163-.787-.942.089-.148c1.141,1.671,2.943,1.755,4.611,2.161l.144-.164q-.542-.7-1.081-1.4a7.652,7.652,0,0,1,1.211,1.237c.121.144.219.375.368.417.8.221,1.61.4,2.417.586l.175-.234c-.5-.582-.893-1.465-1.519-1.682-1.259-.439-2.341-1.288-3.771-1.394a14.561,14.561,0,0,1-3.177-.99,10.874,10.874,0,0,0-1.794-.522,27.043,27.043,0,0,1-2.871-.241,17.807,17.807,0,0,0-3.372-.534c-1.369-.076-2.735-.221-4.1-.31a8.01,8.01,0,0,0-1.122.073,13.821,13.821,0,0,0-1.769.152c-1.744.363-3.478.773-5.213,1.177a8.706,8.706,0,0,0-2.637,1.017c1.282.257,2.443.47,3.594.729a3.117,3.117,0,0,1,1.316.489.911.911,0,0,0,.812.222c.383-.046.771-.057,1.157-.077l4.364-.225a18.444,18.444,0,0,0-5.241-1.869,21.649,21.649,0,0,1,3.985.951c1.723.643,3.409,1.3,5.3.936.327-.062.66-.092.99-.137l.049-.179-2.607-1.578m-17.308-34.707a3.06,3.06,0,0,0-.319-.385c-.961-.8-1.958-1.55-2.878-2.391a1.741,1.741,0,0,0-1.718-.376,13.087,13.087,0,0,1-7.415-.442,11.391,11.391,0,0,0-1.454-.356,2.481,2.481,0,0,0,.564.736c1.79,1.764,3.57,3.539,5.377,5.285a5.541,5.541,0,0,0,1.6,1.251,18.38,18.38,0,0,0,3.4,1.005,20.005,20.005,0,0,0,7.176.082,4.274,4.274,0,0,0,.626-.216c-1.457-1.267-2.826-2.465-4.21-3.646a.71.71,0,0,0-.491-.082,14.817,14.817,0,0,1-2.289.3,22.876,22.876,0,0,1-6.969-1.147,18.184,18.184,0,0,1-1.668-.811c.248-.041.293-.063.324-.051a24.705,24.705,0,0,0,7.731,1.6,4.62,4.62,0,0,0,2.614-.349m18.546-37.7.293.09c1.376-2.221,3.116-4.241,3.651-6.933a8.291,8.291,0,0,1-1.87,4.889c-.187.261-.347.541-.527.807-.359.531-.741,1.048-1.078,1.592a1.517,1.517,0,0,0-.319.825c.138,1.3.342,2.6.526,3.9.066.467.14.932.235,1.568.19-.309.287-.448.363-.6.747-1.453,1.569-2.875,2.211-4.372a13.014,13.014,0,0,0,1.329-4.128,33.531,33.531,0,0,0-.466-5.841c-.171-1.469-.458-2.925-.693-4.388-.065-.4-.128-.806-.219-1.377-.321.742-.566,1.311-.814,1.878a27.914,27.914,0,0,1-1.961,4.315,5.5,5.5,0,0,0-.747,3.338c0,.258-.007.516,0,.774q.041,1.828.087,3.657m-5,6.732c-.051,1.043-.052,1.9-.14,2.739a10.614,10.614,0,0,0,1.929,7.2,45.587,45.587,0,0,0,3.608,4.449,17.078,17.078,0,0,0,2,1.688l.172-.127c-.166-1.44-.311-2.883-.5-4.32-.188-1.4-.416-2.8-.647-4.2-.027-.164-.219-.448-.285-.435-.924.189-1.364-.535-1.834-1.043a23.153,23.153,0,0,1-3.665-4.972c-.151-.29-.356-.553-.634-.979m42.683,44.589-.266-.009a9.259,9.259,0,0,1-.717,1.641,6.491,6.491,0,0,0-1.045,4.211c.114,2.185-.025,4.383.011,6.574.037,2.319.159,4.637.228,6.956.013.427-.066.856-.073,1.284-.01.669.007,1.339.012,2.008l.268.072c.532-1.137,1.09-2.262,1.582-3.416a9.456,9.456,0,0,0,.611-1.96c.132-.705.1-1.438.188-2.154.112-.962.28-1.917.393-2.879a6.358,6.358,0,0,0-.035-.992l-.2,0c-.191.677-.368,1.358-.577,2.03q-.324,1.046-.7,2.076c-.234.638-.5,1.264-.754,1.9a.6.6,0,0,1-.011-.461c.844-2.642,2.162-5.155,2.1-8.037-.016-.751.065-1.505.1-2.257l-.391-.132-.5,1.494a9.845,9.845,0,0,1,.514-1.737,2.37,2.37,0,0,0,.075-1.753,7.005,7.005,0,0,1-.509-2.954c.006-.06-.047-.125-.072-.188a19.752,19.752,0,0,1-.939,3.85c.247-1.8.477-3.48.707-5.157m-44.6,10.212c-1,1.477-2.589,1.205-3.979,1.486,1.229-.417,2.723-.234,3.667-1.7l-.742-.256c-1.077-.371-2.168-.707-3.225-1.127-.745-.3-1.421-.529-2.05.2a1.239,1.239,0,0,1-.455.237c-.714.31-1.43.616-2.133.918a9.732,9.732,0,0,0,4.63,2.532,17.914,17.914,0,0,0,3.792.7,14.129,14.129,0,0,1,3.67.652,13.988,13.988,0,0,0,4.632.716,17.37,17.37,0,0,0,2.982-.494c0-.09,0-.18,0-.271-.432-.162-.856-.352-1.3-.481-1.074-.313-2.172-.55-3.228-.911a2.24,2.24,0,0,0-1.547.033c-.906.3-1.83.55-2.747.82-.019-.06-.039-.121-.058-.182l3.078-1.084-.006-.168-4.982-1.619M142.854,622.6a5.848,5.848,0,0,0-.668-.83c-1.441-1.157-2.906-2.284-4.344-3.445a1.048,1.048,0,0,0-1.121-.2c-.812.282-1.63.555-2.463.759a6.24,6.24,0,0,1-4.874-.468,2.861,2.861,0,0,0-.5-.182c-.046.058-.09.116-.135.174a24.864,24.864,0,0,0,1.822,1.85,7.352,7.352,0,0,0,3.618,1.854c1.166.174,2.308.5,3.467.725a17.858,17.858,0,0,0,5.2-.234m24.049-20.67a2.919,2.919,0,0,0,.03-.373c-.139-1.518-.272-3.037-.435-4.553a1.03,1.03,0,0,0-.326-.5,29.148,29.148,0,0,1-2.3-2.421,22.234,22.234,0,0,1-2.79-5.362c-.339-.867-.625-1.755-.972-2.742a5.808,5.808,0,0,0-.142,2.709c.226,1.463.343,2.942.579,4.4a5.168,5.168,0,0,0,.615,1.943c1.109,1.73,2.3,3.409,3.512,5.072a5.088,5.088,0,0,0,2.23,1.828m-24.554,19.594c.039-.148.068-.193.057-.224-.865-2.454-1.624-4.952-2.638-7.342-.665-1.566-1.367-3.231-3.092-4.049-.127-.06-.2-.229-.315-.32-.916-.71-1.838-1.414-2.879-2.213.736,1.494,1.43,2.78,2.011,4.116a25.905,25.905,0,0,1,1.558,4.154,5.577,5.577,0,0,0,2.393,3.538c1.008.681,1.907,1.526,2.9,2.34m18.973-41.109h-.168c-.04.2-.084.393-.12.591a17.024,17.024,0,0,1-.369,2.027,6.9,6.9,0,0,0,.5,4.771q.7,1.7,1.5,3.364a14.3,14.3,0,0,0,3.609,4.768,7.072,7.072,0,0,0,.035-1.061q-.365-2.656-.774-5.306a1.151,1.151,0,0,0-.254-.563,14.527,14.527,0,0,1-3.454-6.763c-.135-.616-.335-1.219-.5-1.827m.448,24.648c.023.133.069.383.11.634.153.932.375,1.86.441,2.8a7.65,7.65,0,0,0,2.021,4.9c1.3,1.372,2.659,2.681,4,4.011a3.035,3.035,0,0,0,.5.319,1.9,1.9,0,0,0,.072-.408c-.168-1.6-.327-3.2-.532-4.793a1.358,1.358,0,0,0-.43-.741c-.487-.452-1.1-.787-1.53-1.28-1.589-1.8-3.127-3.65-4.649-5.44m8.624,21.271.235-.129c-.128-.994-.206-2-.394-2.98-.279-1.456-.623-2.9-.974-4.338a1.391,1.391,0,0,0-.452-.568c-1.343-1.259-2.7-2.5-4.04-3.765-.383-.362-.712-.782-1.066-1.176l-.142.109c.068.243.125.491.206.73.344,1.015.714,2.021,1.037,3.042.33,1.046.61,2.107.924,3.158a6.062,6.062,0,0,0,1.836,2.889,17.186,17.186,0,0,1,1.193,1.262q.819.882,1.637,1.766m-31.475-15.211-.127.116c.006.042,0,.092.019.123a31.776,31.776,0,0,1,3.447,7.961,15.139,15.139,0,0,1,.585,1.979,2.269,2.269,0,0,0,.869,1.447c1.028.816,2.041,1.652,3.065,2.475a1.751,1.751,0,0,0,.371.148c-.2-.844-.311-1.615-.561-2.338-.59-1.707-1.266-3.384-1.867-5.087a8.226,8.226,0,0,0-3.729-4.765,4.5,4.5,0,0,1-.88-.84c-.4-.4-.795-.812-1.192-1.219m5.631,5.246c.235.668.385,1.251.638,1.784a27.939,27.939,0,0,1,2.4,7.388,1.473,1.473,0,0,0,.434.749c.665.641,1.357,1.255,2.06,1.856.64.547,1.308,1.064,2.107,1.709a4.941,4.941,0,0,0-.087-.751c-.591-1.819-1.108-3.669-1.819-5.44a28.836,28.836,0,0,0-2.078-4,8.82,8.82,0,0,0-1.648-1.945,16.193,16.193,0,0,0-2.009-1.351m-7.564,1.172c-1.549-1.1-2.987-2.138-4.455-3.133a1.063,1.063,0,0,0-.783.036,5.338,5.338,0,0,1-3.673.032c-.859-.317-1.7-.691-2.567-1.049.745,1.169,1.485,2.349,2.25,3.512a2.106,2.106,0,0,0,.659.687c2.8,1.577,5.6,1.2,8.569-.085m-4.712-3.8.2-.143-1.665-4.725c-.814-2.31-1.76-4.522-3.929-5.948-.961-.632-1.861-1.355-2.927-2.139.53.976,1.017,1.758,1.394,2.589a22.7,22.7,0,0,1,1.658,4.1,5.332,5.332,0,0,0,1.85,3.155c1.189.976,2.281,2.069,3.416,3.111m16.793,6.856c.285.461.6.907.852,1.386a31.494,31.494,0,0,1,2.736,7.685,2.144,2.144,0,0,0,.638,1.066c.707.624,1.48,1.174,2.241,1.736.489.362,1,.692,1.505,1.035-.764-3.13-1.549-6.265-3.643-8.692-1.294-1.5-2.421-3.257-4.329-4.216m-12.114-3.417.135-.126c-.343-.972-.693-1.941-1.026-2.917a25.392,25.392,0,0,0-3.921-7.722c-.7-.881-1.786-.964-2.609-1.557.391.924.864,1.766,1.217,2.657a27.167,27.167,0,0,1,1.708,4.79,5.413,5.413,0,0,0,2.772,3.582c.6.4,1.151.86,1.724,1.293m-16.371-9.33-.1.141a1.3,1.3,0,0,0,.126.189q2.1,2.2,4.214,4.4a.934.934,0,0,0,.327.2c1.215.486,2.412,1.035,3.658,1.426a3.831,3.831,0,0,0,3.028-.323c-1.534-1.435-3.008-2.8-4.463-4.183a.9.9,0,0,0-.962-.24,5.333,5.333,0,0,1-3.746-.543c-.7-.342-1.387-.716-2.081-1.075m48.1-41.783h-.208a12.457,12.457,0,0,1-.382,1.873,18.516,18.516,0,0,1-1.017,2.135c-.332.646-.7,1.274-1.043,1.915a1.432,1.432,0,0,0-.233.581c-.034,1.933-.044,3.866-.062,5.8-.008.828-.02,1.656-.031,2.483l.2.062c.346-.652.728-1.289,1.029-1.961.544-1.215,1.015-2.463,1.566-3.674a4.72,4.72,0,0,0,.489-2.419c-.135-1.583-.235-3.168-.32-4.754-.036-.678,0-1.36.008-2.04m-6.655,7.265a34.187,34.187,0,0,1-.318,3.405,8.047,8.047,0,0,0,.224,4.261c.091.264.141.542.206.814a17.66,17.66,0,0,0,2.909,6.29,3.165,3.165,0,0,0,.338.339c.005-2.048.012-4.024.011-6a.652.652,0,0,0-.094-.421,9.974,9.974,0,0,1-2.5-5.288c-.239-1.1-.5-2.2-.777-3.4m3.3,8.243c.036-.279.066-.425.071-.572.061-2.018.155-4.035.165-6.053a5.158,5.158,0,0,0-.989-3.758,4.711,4.711,0,0,1-.64-1.4c-.174-.435-.316-.882-.471-1.324a9.229,9.229,0,0,0-.915,2.279,4.856,4.856,0,0,0-.151,1.881c.28,1.61.651,3.206,1.048,4.793a11.084,11.084,0,0,0,1.882,4.155m23.041,74.785c.66-1.963-.271-3.655-.365-5.515a6.056,6.056,0,0,1-4.452-.819c.506,1.321,1.078,2.563,1.683,3.79.059.119.323.2.489.193.73-.013,1.459-.07,2.188-.089.113,0,.229.109.343.167-.024.035-.049.069-.074.1l-2.551.055c.3.692.565,1.394.894,2.067.4.823.827,1.641,1.3,2.424.4.656.907,1.245,1.326,1.89a3.9,3.9,0,0,1,.313.853l.132-.051c-.247-1.841-.494-3.682-.754-5.626l-.475.558m.679,25.374c-.486.474-.842.837-1.217,1.182a1.585,1.585,0,0,0-.5,1.254,20.683,20.683,0,0,1-.264,2.247l-.171-.019.253-2.609a4.81,4.81,0,0,0-2.006,3.524l-.166-.071c.042-.339.085-.678.127-1.017-1.077,1.525-2.382,2.882-3.011,4.822,1.016-.336,1.977-.473,2.307-1.53.1.034.212.123.283.1.935-.368,1.867-.744,2.791-1.138a2.256,2.256,0,0,0,.458-.352,3.665,3.665,0,0,0,1.259-2.722,9.839,9.839,0,0,0-.146-3.666m-21.773-123.88-.153-.013a14.356,14.356,0,0,0-.994,2.962,55.122,55.122,0,0,0-.507,9.7c.025.373.071.746.108,1.118a6.94,6.94,0,0,0,.887-1.441c.77-1.6,1.724-3.139,1.825-4.982a5.994,5.994,0,0,0-.055-1.449c-.3-1.559-.649-3.107-.963-4.663-.082-.405-.1-.823-.148-1.235m4.907,53.957-.135,0a4.579,4.579,0,0,1-.23.917c-.718,1.485-1.474,2.953-2.191,4.439a1.437,1.437,0,0,0-.147.83c.393,2.049.82,4.091,1.24,6.135.088.426.191.85.328,1.461.546-1.26,1.02-2.337,1.475-3.422a1.087,1.087,0,0,0,.11-.621c-.552-2.244-.155-4.54-.388-6.8-.1-.969-.046-1.954-.062-2.932m-41.017,26.729c-.019-.1-.037-.194-.056-.292-4.163-2-8.337-3.976-13.034-4.5a37.914,37.914,0,0,0,3.36,2.117c1.652.91,3.387,1.681,4.989,2.668a3.033,3.033,0,0,0,2.561.582c.724-.2,1.453-.386,2.18-.579m31.56-.3a1.847,1.847,0,0,0-.048-.363c-.642-1.477-1.27-2.962-1.944-4.424a7.54,7.54,0,0,0-.841-1.291,11.017,11.017,0,0,1-1.672-2.236c-.69-1.767-2.248-2.654-3.443-3.912a2.3,2.3,0,0,0,.254.743,17.543,17.543,0,0,1,2.047,5.129,4.845,4.845,0,0,0,2.07,3.2,33.1,33.1,0,0,1,3.577,3.156m-36.1-29.553.2-.155a25.924,25.924,0,0,0-2.7-6.654c-.975-1.6-2.545-2.521-3.884-3.709-.115-.1-.256-.176-.536-.367.134.265.172.363.229.449a16.723,16.723,0,0,1,2.309,5.136,3.862,3.862,0,0,1,.013.881l-.158.071,4.528,4.348M172.786,622.8l-.2-.008c-.472,1.188-.946,2.375-1.411,3.565a.5.5,0,0,0,.02.252c.221,1.205.446,2.41.666,3.615.083.455.155.912.231,1.369a.467.467,0,0,1-.258-.336c-.26-1.22-.491-2.447-.788-3.658a1.87,1.87,0,0,0-.547-.792c-.627-.614-1.3-1.184-1.93-1.791-.327-.313-.613-.67-.917-1.006-.071.046-.142.092-.212.139.729,1.5,1.467,3,2.184,4.505.394.831.7,1.705,1.142,2.51.4.73.917,1.393,1.417,2.137.883-3.584.436-7.053.6-10.5m-55.02-18.7a16.708,16.708,0,0,0,2.252,2.982,12.147,12.147,0,0,0,3.146,1.6c1.666.7,2.86.767,3.329.325-1.554-1.5-3.106-3.009-4.676-4.5a.664.664,0,0,0-.522-.078,4.382,4.382,0,0,1-2.779-.16,5.661,5.661,0,0,0-.75-.17m32.647-2.795c-.01.05-.019.1-.029.151l-2.158-.267c-.009.068-.019.137-.028.205a31.2,31.2,0,0,1,2.742,2.418c.919,1.007,2.217,1.11,3.406,1.872a5.586,5.586,0,0,0-2.125-3.355c-1.674-1.235-3.481-2.289-5.229-3.423a3.592,3.592,0,0,0-2.262-.228c.8.654,1.478,1.182,2.128,1.739a2.427,2.427,0,0,0,1.652.548,11.381,11.381,0,0,1,1.9.34m20.49,45.1-3.787-3.576a5.737,5.737,0,0,1-3.666,1.59,29.575,29.575,0,0,1,2.491,1.6,4.694,4.694,0,0,0,4.962.382m-49.1-42.429a16.946,16.946,0,0,0-2.526-6.065c-.752-1.144-2-1.5-3-2.249a13.517,13.517,0,0,1,.8,1.687,8.433,8.433,0,0,0,2.435,4.225c.813.747,1.53,1.6,2.289,2.4m83.28,70.687.122.258a3.247,3.247,0,0,1,2.59.318,22.512,22.512,0,0,1,2.151,1.792c1.134,1.031,2.068,1.519,3.182,1.024a16.78,16.78,0,0,0-3.2-3.408,3.746,3.746,0,0,0-3.371-.736,6.659,6.659,0,0,0-1.47.752m-90.054-74.339c.939,2.542,3.808,4.6,6.245,3.622-1.03-1.115-2.039-2.216-3.066-3.3a.669.669,0,0,0-.458-.14c-.459.012-.92.109-1.374.081a9.93,9.93,0,0,1-1.347-.262m15.585-10.694-6.172-6.985.142-.139.56.381c-1-1.975-1.931-3.8-2.857-5.621a11.917,11.917,0,0,0,1.745,5.263c1.081,1.5,1.622,3.405,3.455,4.324a1.379,1.379,0,0,1-.554-.248c-.148-.091-.3-.17-.456-.254a5.513,5.513,0,0,0,.667,1.364c.22.338.412.8.735.947.83.383,1.727.623,2.735.968m-13,10.789.1-.231a29.341,29.341,0,0,0-6.2-5.408,11.15,11.15,0,0,0,.926,1.749c.517.81,1.041,1.617,1.6,2.4.241.339.519.776.87.89a25.917,25.917,0,0,0,2.714.6m72.727,53.237c-.7.717-1.519,1.421-.946,2.668a3.175,3.175,0,0,1,.1.892c.19,1.531.359,3.065.6,4.588.047.3.369.558.565.835l.2-.118c-.531-2.936.509-5.938-.518-8.865M144.28,607.243l-.234.228c1.054,1.053,2.037,2.193,3.184,3.132a38.782,38.782,0,0,0,3.344,2.165c1.322.872,2.63,1.767,3.931,2.671.246.17.4.481.646.642.553.357,1.142.66,1.717.986a9.852,9.852,0,0,0-2.034-2.276,45.359,45.359,0,0,0-4.345-2.776,24.87,24.87,0,0,1-4.9-3.653c-.415-.4-.873-.747-1.312-1.119m-27.089-8.174a10.589,10.589,0,0,0-1.918-3.8,4.059,4.059,0,0,0-2.447-1.232,3.636,3.636,0,0,1-.854-.206,13.164,13.164,0,0,1-1.155-.7l-.163.162a6.385,6.385,0,0,0,.831,1.031c.877.724,1.826,1.361,2.7,2.087.985.818,1.921,1.7,3.005,2.661m48.494-37.556-.091-.044c-.394,1.151-.842,2.286-1.163,3.456a6.76,6.76,0,0,0-.525,3.142,11.37,11.37,0,0,0,1.195,3.223c.2-3.3.391-6.541.584-9.777m-10.132,101.5c.009-.061.019-.122.028-.182-1.575-.29-3.144-.62-4.728-.841a2.46,2.46,0,0,0-1.315.353c-.686.346-1.329.779-1.986,1.183-.21.129-.4.281-.607.423l.057.171,8.551-1.107m-1.475-47.52a1.715,1.715,0,0,0-.224-.2q-2.3-1.431-4.6-2.856a15.2,15.2,0,0,1-2.557-1.613,33.977,33.977,0,0,1-3.348-3.732,14.965,14.965,0,0,0-4.276-3.61,2.682,2.682,0,0,0,.418.458c1.173,1.077,2.4,2.1,3.507,3.243,1.121,1.157,2.114,2.437,3.179,3.65,2.113,2.407,5.13,3.322,7.9,4.655m7.246,17.989-.04.022c.6,1.49,1.28,2.956,1.78,4.479a4.381,4.381,0,0,0,1.384,2.082c.791.666,1.559,1.358,2.351,2.052a5.015,5.015,0,0,0-2.069-3.691,10.711,10.711,0,0,1-1.647-1.971c-.64-.955-1.178-1.979-1.759-2.973m12.183,15.4.157-.122a38,38,0,0,0-6.557-7.815,3.94,3.94,0,0,0,.876,2.293c1.376,1.36,2.765,2.708,4.13,4.08.492.494.931,1.041,1.394,1.564m-39.125-55.713c.844.471,1.927,1.127,3.055,1.689s2.33,1,3.461,1.563a1.8,1.8,0,0,0,1.589-.057c-.906-.875-7.413-3.283-8.1-3.2m71.663,78.463a14.62,14.62,0,0,1,5.316-2.278c1.947-.393,3.782.378,5.847.628-2.938-1.877-8.276-1.882-11.163,1.65M128.2,589.024c.811,1.517,3.906,3.935,5.445,3.549-.712-.686-1.458-1.365-2.158-2.089-.882-.912-2.1-.931-3.287-1.46m79.149,84.1a4.749,4.749,0,0,1,3.1,1.331c.785.826,1.594,1.629,2.37,2.419-.711-3.624-3.2-4.811-5.472-3.75m-39.238-18.664-.015.108a15.524,15.524,0,0,0,1.746.324,11.429,11.429,0,0,1,3.859.921,3.929,3.929,0,0,0,2.682.207c-1.406-.478-2.741-.883-4.037-1.387-1.235-.479-2.435-.954-3.744-.274a1.846,1.846,0,0,1-.491.1M130.32,637.423c-.981-1.693-3.673-3.387-4.818-3.092,1.135,1.72,2.914,2.426,4.818,3.092m60.393,42.836c-1.333.912-1.347.95-1.2,2.422.028.3,0,.6,0,.9,0,.418-.011.836-.017,1.345a5.069,5.069,0,0,0,1.221-4.667m-22.23-32.982,4.764,1.931.113-.181c-.662-.7-1.319-1.4-1.99-2.088a.512.512,0,0,0-.382-.153c-.856.152-1.707.331-2.505.491M152.14,604.965l2.889,4.734a.237.237,0,0,0,.031-.125c-.207-1.18-.413-2.36-.639-3.536a.5.5,0,0,0-.264-.315c-.653-.263-1.317-.5-2.017-.758m31.273,80.088c1.649-.766,3.406-1.069,4.263-2.753-1.427-.186-3.378,1.016-4.263,2.753m6.837-5.132c-1.917-.24-2.814,1.133-3.979,2.239,1.8,0,2.915-1.006,3.979-2.239m-69.7-46.149,5.659,1.747c-.5-1.416-4.176-2.061-5.659-1.747M192.1,678.543c-.37.484-.865.851-.94,1.288a17.264,17.264,0,0,0-.083,2.631c1.314-.977,1.5-2.288,1.023-3.919m8.864-6.716c.268-1.43.1-2.627-1.195-3.416a4.9,4.9,0,0,1-.957-1.081l-.106.078,2.258,4.419M145.88,598.215c-1.281-.415-2.138-2-3.943-1.367,1.272.823,2.327,1.84,3.943,1.367m55.746,43.967c1.068-1.413,1.811-3.708.931-4.779-.312,1.6-.622,3.19-.931,4.779m-8.955,37.8.2.07c.319-.91.639-1.821,1-2.858-.335.009-.591-.065-.708.031-.937.77-.679,1.773-.49,2.757m-2.255-1.454a1.829,1.829,0,0,0,2.039-1.366l-2.039,1.366m-7.478-6.213.306.079a6.3,6.3,0,0,0,.473-.906c.044-.123-.11-.314-.173-.475-.182.1-.479.16-.522.3a4.418,4.418,0,0,0-.084,1m6.259,7.157c.021.056.04.112.06.168.608-.27,1.526.318,1.927-.868ZM216.09,668.9c.018-.074.036-.148.055-.221l-2.319-.235c-.008.066-.016.131-.023.2l2.287.259m2.325,1.32.139-.208-1.231-.814-.131.2,1.223.824" fill="#0d0213"/><path d="M212.159,682.317c.841.418,1.68.841,2.526,1.251.624.3,1.257.587,1.887.879l-.081.17-8.317-3.376c.025-.068.049-.136.072-.2.685.248,1.363.516,2.055.738.561.18,1.139.3,1.71.454l.148.087" fill="#0d0213"/><path d="M200.67,657.588c-1.461-1.024-2.177-2.656-3.078-4.145.5.718.972,1.449,1.492,2.148.506.682,1.056,1.333,1.586,2" fill="#0d0213"/><path d="M200.916,663.2c-.764-.067-1.106-.488-2.589-3.122.957.958,1.287,2.438,2.589,3.122" fill="#0d0213"/><path d="M198.171,647.437l2.345,3.22c-.459.036-1.916-1.9-2.345-3.22" fill="#0d0213"/><path d="M200.9,646.542c-.177-.056-.435-.056-.516-.177-.5-.739-.966-1.506-1.406-2.273q.952,1.236,1.908,2.471l.014-.021" fill="#0d0213"/><path d="M182.5,628.043c-.274-.085-.621-.092-.808-.268-.94-.889-1.837-1.823-2.7-2.792,1.291.823,1.992,2.36,3.576,2.813-.022.082-.046.164-.068.247" fill="#0d0213"/><path d="M180.49,618.673l-1.941-2.013c.048-.047.1-.093.143-.14l1.972,1.983-.174.17" fill="#0d0213"/><path d="M178.533,612.881l1.52,1.08a1.983,1.983,0,0,1-1.509-1.1l-.011.022" fill="#0d0213"/><path d="M195.031,675.924a21.229,21.229,0,0,1,4.642,1.359l-.047.171-4.658-1.3.063-.228" fill="#0d0213"/><path d="M183.617,619.459l-1.026,2.994,1.026-2.994" fill="#0d0213"/></g></svg>