<svg xmlns="http://www.w3.org/2000/svg" width="114.994" height="115.321" viewBox="0 0 114.994 115.321"><g transform="translate(-65.587 -1512.493)"><circle cx="52.62" cy="52.62" r="52.62" transform="translate(74.392 1512.889)" fill="#f1dfda"/><path d="M77.8,1597a.59.59,0,1,0,.825-.134A.586.586,0,0,0,77.8,1597Zm2.033,12.859a.59.59,0,1,0,.824-.137A.589.589,0,0,0,79.834,1609.856Zm-.175-11.523a.59.59,0,1,0,.825-.137A.586.586,0,0,0,79.659,1598.333Zm-1.349,1.881a.585.585,0,0,0,.134.822.591.591,0,1,0-.134-.822Zm1.016,6.428a.59.59,0,1,0,.824-.137A.588.588,0,0,0,79.326,1606.642Zm-.508-3.214a.59.59,0,1,0,.824-.137A.588.588,0,0,0,78.818,1603.428Zm2.874,7.761a.592.592,0,1,0,.824-.134A.592.592,0,0,0,81.692,1611.189Zm-5.418-23.836a.591.591,0,1,0,.825-.135A.593.593,0,0,0,76.274,1587.353Zm6.43,26.816c.186.17.37.34.559.507a.6.6,0,0,0-.236-.408A.584.584,0,0,0,82.7,1614.169Zm-2.029-9.408a.59.59,0,0,0,.959.688.59.59,0,0,0-.959-.688Zm-3.893-14.192a.591.591,0,0,0,.962.688.591.591,0,0,0-.962-.688Zm4.4,17.406a.592.592,0,1,0,.824-.134A.594.594,0,0,0,81.184,1607.975Zm-3.894-14.191a.59.59,0,1,0,.825-.135A.588.588,0,0,0,77.29,1593.784Zm2.875,7.763a.591.591,0,0,0,.961.688.591.591,0,1,0-.961-.688Zm-5.241-12.314a.59.59,0,1,0,.825-.137A.591.591,0,0,0,74.924,1589.233Zm3.052,19.287a.591.591,0,1,0,.825-.134A.593.593,0,0,0,77.976,1608.52ZM92.845,1619.2a.59.59,0,1,0,.822-.136A.586.586,0,0,0,92.845,1619.2Zm-21.814-44.156a.589.589,0,1,0,.824-.137A.587.587,0,0,0,71.031,1575.042Zm6.437,30.264a.59.59,0,1,0,.825-.134A.591.591,0,0,0,77.468,1605.306Zm-5.929-27.05a.591.591,0,1,0,.824-.138A.59.59,0,0,0,71.539,1578.256Zm5.421,23.836a.59.59,0,1,0,.825-.134A.589.589,0,0,0,76.96,1602.092Zm-4.4-17.409a.59.59,0,1,0,.825-.134A.594.594,0,0,0,72.558,1584.683Zm-.511-3.213a.591.591,0,1,0,.825-.134A.591.591,0,0,0,72.047,1581.47Zm.333-8.309a.591.591,0,1,0,.825-.134A.592.592,0,0,0,72.38,1573.161Zm1.02,6.43a.585.585,0,0,0,.134.822.591.591,0,1,0-.134-.822Zm-.334,8.309a.59.59,0,1,0,.822-.136A.588.588,0,0,0,73.066,1587.9Zm1.35-1.881a.59.59,0,1,0,.824-.137A.592.592,0,0,0,74.416,1586.019Zm-1.528-9.644a.591.591,0,1,0,.825-.134A.591.591,0,0,0,72.888,1576.375Zm3.561,22.5a.591.591,0,1,0,.824-.137A.588.588,0,0,0,76.449,1598.878Zm2.7-3.761a.594.594,0,0,0,.137.824.59.59,0,0,0,.688-.959A.594.594,0,0,0,79.148,1595.117Zm-3.208.545a.592.592,0,1,0,.825-.135A.595.595,0,0,0,75.94,1595.662Zm-.508-3.215a.59.59,0,1,0,.959.688.59.59,0,0,0-.959-.688Zm-1.524-9.642a.59.59,0,1,0,.824-.137A.588.588,0,0,0,73.908,1582.805Zm15.875,36.8c.3.19.607.368.91.553a.581.581,0,0,0-.234-.55A.588.588,0,0,0,89.783,1619.6Zm-1.165-6.291a.591.591,0,1,0,.825-.135A.594.594,0,0,0,88.618,1613.313Zm-3.385-10.975a.591.591,0,1,0,.825-.137A.593.593,0,0,0,85.233,1602.338Zm2.369,4.547a.59.59,0,1,0,.822-.134A.589.589,0,0,0,87.6,1606.885Zm.508,3.214a.591.591,0,1,0,.825-.135A.592.592,0,0,0,88.11,1610.1Zm-2.366-4.547a.589.589,0,1,0,.822-.137A.588.588,0,0,0,85.744,1605.552Zm1.016,6.428a.59.59,0,1,0,.825-.137A.591.591,0,0,0,86.76,1611.98Zm-.508-3.214a.59.59,0,1,0,.825-.137A.588.588,0,0,0,86.252,1608.766Zm5.588,12.085c.223.129.454.248.677.373a.562.562,0,0,0-.2-.281A.582.582,0,0,0,91.84,1620.851Zm-2.38-12.63a.59.59,0,1,0,.825-.138A.591.591,0,0,0,89.46,1608.221Zm.508,3.214a.59.59,0,1,0,.825-.137A.591.591,0,0,0,89.968,1611.435Zm-1.016-6.428a.59.59,0,1,0,.822-.137A.59.59,0,0,0,88.952,1605.007Zm-1.858-1.336a.59.59,0,1,0,.822-.134A.588.588,0,0,0,87.094,1603.671Zm.174,11.523a.59.59,0,1,0,.825-.137A.595.595,0,0,0,87.268,1615.194Zm3.716,2.669a.591.591,0,1,0,.825-.134A.591.591,0,0,0,90.984,1617.863ZM78.643,1591.9a.59.59,0,1,0,.822-.134A.589.589,0,0,0,78.643,1591.9Zm11.833,22.747a.591.591,0,1,0,.825-.137A.6.6,0,0,0,90.476,1614.649Zm-8.45-11.766a.59.59,0,1,0,.824-.137A.587.587,0,0,0,82.026,1602.883Zm.508,3.214a.591.591,0,1,0,.824-.137A.587.587,0,0,0,82.534,1606.1Zm-1.017-6.431a.591.591,0,1,0,.825-.134A.592.592,0,0,0,81.517,1599.666Zm-.511-3.213a.591.591,0,1,0,.828-.135A.59.59,0,0,0,81.006,1596.453Zm3.284,19.1c.272.229.541.452.819.674a.581.581,0,0,0-.819-.674Zm-.737-3.031a.591.591,0,0,0,.959.69.6.6,0,0,0-.138-.827A.587.587,0,0,0,83.553,1612.525Zm4.319,5.794c.309.216.621.417.931.627a.576.576,0,0,0-.931-.627Zm-4.83-9.008a.591.591,0,1,0,.824-.137A.59.59,0,0,0,83.042,1609.311Zm.841-5.1a.591.591,0,1,0,.825-.134A.589.589,0,0,0,83.883,1604.216ZM83.375,1601a.59.59,0,1,0,.825-.137A.591.591,0,0,0,83.375,1601Zm2.662,15.962c.3.227.6.448.9.669a.575.575,0,0,0-.9-.669Zm-3.17-19.176a.59.59,0,1,0,.825-.137A.59.59,0,0,0,82.867,1597.788Zm2.543,16.07a.591.591,0,1,0,.959.69.591.591,0,0,0-.959-.69Zm-.508-3.214a.591.591,0,1,0,.959.69.591.591,0,0,0-.959-.69Zm-.511-3.214a.591.591,0,1,0,.962.687.591.591,0,0,0-.962-.687Zm-13.868-35.6a.589.589,0,1,0,.825-.135A.59.59,0,0,0,70.523,1571.828Zm-3.2,16.957c.082.311.159.622.246.929.012-.014.028-.022.038-.035a.567.567,0,0,0-.284-.894Zm.776-27.248a.588.588,0,0,0-.137-.824.557.557,0,0,0-.233-.1c-.112.373-.209.746-.313,1.12A.584.584,0,0,0,68.1,1561.537Zm-1.118,19.145a.59.59,0,1,0,.825-.137A.591.591,0,0,0,66.981,1580.682Zm-.4,4.856c.073.376.141.756.222,1.128a.549.549,0,0,0,.292-.2.58.58,0,0,0-.514-.924Zm3.373-22.665a.591.591,0,1,0-.825.132A.591.591,0,0,0,69.957,1562.873Zm1.016,6.428a.589.589,0,1,0-.825.135A.591.591,0,0,0,70.973,1569.3Zm-4.92,13.024c.051.383.108.771.168,1.158a.6.6,0,0,0,.369-.235.583.583,0,0,0-.137-.822A.564.564,0,0,0,66.053,1582.325Zm3.4-22.669a.591.591,0,1,0-.825.137A.587.587,0,0,0,69.449,1559.656Zm1.016,6.431a.592.592,0,0,0-.962-.69.592.592,0,0,0,.962.69Zm-1.959,24.237a.592.592,0,1,0,.827-.135A.591.591,0,0,0,68.506,1590.324ZM68,1587.11a.59.59,0,1,0,.826-.135A.59.59,0,0,0,68,1587.11Zm-.508-3.214a.591.591,0,1,0,.825-.137A.591.591,0,0,0,67.489,1583.9Zm1.528,9.644a.581.581,0,0,0-.1.283c.061.154.109.315.171.472a.408.408,0,0,0,.064.067.59.59,0,1,0,.688-.958A.586.586,0,0,0,69.017,1593.54Zm-3.409-16.794a.589.589,0,0,0-.021-.589C65.591,1576.352,65.6,1576.549,65.608,1576.746Zm.11,2.367c.025.37.068.743.1,1.114a.6.6,0,0,0,.263-.191.589.589,0,0,0-.135-.825A.609.609,0,0,0,65.718,1579.113Zm4.287,17.4c.14.321.29.64.438.96.012-.014.029-.022.041-.036a.6.6,0,0,0-.135-.825A.577.577,0,0,0,70,1596.518Zm-1.4-31.767a.591.591,0,1,0-.825.135A.591.591,0,0,0,68.607,1564.751Zm4.38-13.948a.589.589,0,0,0-.134-.825.58.58,0,0,0-.623-.035c-.1.185-.2.371-.3.558a.574.574,0,0,0,.238.436A.585.585,0,0,0,72.987,1550.8Zm-.156,19.831a.59.59,0,1,0-.959-.687.59.59,0,1,0,.959.687Zm-1.193-17.95a.589.589,0,0,0-.135-.825.559.559,0,0,0-.25-.1c-.169.33-.325.669-.487,1.007.02.014.029.035.049.049A.591.591,0,0,0,71.638,1552.684Zm.511,3.213a.591.591,0,1,0-.826.135A.588.588,0,0,0,72.149,1555.9Zm2.7-3.759a.592.592,0,1,0-.825.134A.591.591,0,0,0,74.848,1552.138Zm2.191-6.976a.589.589,0,1,0-.825.135A.59.59,0,0,0,77.039,1545.162Zm-1.349,1.881a.591.591,0,1,0-.825.135A.592.592,0,0,0,75.69,1547.043Zm-1.35,1.878a.591.591,0,0,0-.962-.687.591.591,0,0,0,.962.687Zm-.842,5.095a.591.591,0,1,0-.825.135A.591.591,0,0,0,73.5,1554.016Zm-.841,5.095a.591.591,0,1,0-.825.135A.588.588,0,0,0,72.657,1559.111Zm-1.35,1.881a.59.59,0,1,0-.959-.687.59.59,0,1,0,.959.687Zm1.016,6.429a.59.59,0,1,0-.822.133A.589.589,0,0,0,72.323,1567.421Zm-.508-3.215a.591.591,0,1,0-.825.135A.589.589,0,0,0,71.815,1564.206Zm-1.019-6.427a.591.591,0,1,0-.822.134A.588.588,0,0,0,70.8,1557.779Zm2.369,4.546a.59.59,0,1,0-.825.135A.585.585,0,0,0,73.165,1562.325Zm-2.915-8.485c-.145.317-.272.64-.41.959a.575.575,0,0,0,.41-.959Zm3.5,48.8a.591.591,0,1,0,.828-.135A.587.587,0,0,0,73.749,1602.638Zm-4.576-28.932a.591.591,0,1,0,.825-.134A.59.59,0,0,0,69.173,1573.706Zm1.016,6.431a.59.59,0,1,0,.825-.137A.587.587,0,0,0,70.189,1580.137Zm-.508-3.217a.591.591,0,1,0,.825-.134A.594.594,0,0,0,69.681,1576.92Zm1.527,9.644a.59.59,0,1,0,.822-.136A.587.587,0,0,0,71.208,1586.564Zm-4.735-9.1a.591.591,0,1,0,.825-.134A.594.594,0,0,0,66.473,1577.465Zm6.768,21.958a.59.59,0,1,0,.825-.134A.592.592,0,0,0,73.241,1599.423Zm-1.017-6.431a.591.591,0,1,0,.822-.133A.586.586,0,0,0,72.224,1592.992Zm-.511-3.213a.591.591,0,0,0,.962.687.591.591,0,1,0-.962-.687Zm1.02,6.43a.59.59,0,1,0,.824-.137A.592.592,0,0,0,72.733,1596.209Zm2.366,4.548a.591.591,0,1,0,.825-.135A.594.594,0,0,0,75.1,1600.757Zm-.509-3.214a.591.591,0,1,0,.826-.135A.591.591,0,0,0,74.59,1597.543Zm-.508-3.214a.59.59,0,1,0,.959.687.59.59,0,1,0-.959-.687Zm1.528,9.644a.59.59,0,1,0,.824-.137A.588.588,0,0,0,75.61,1603.973Zm-7.453-36.7a.59.59,0,1,0,.824-.137A.588.588,0,0,0,68.157,1567.278Zm.508,3.214a.589.589,0,1,0,.824-.135A.591.591,0,0,0,68.665,1570.492Zm7.556,36.6c.237.307.468.619.709.923a.655.655,0,0,0,.147-.136.585.585,0,0,0-.856-.787ZM70.7,1583.351a.591.591,0,1,0,.825-.137A.591.591,0,0,0,70.7,1583.351Zm.178,11.522a.59.59,0,1,0,.821-.136A.586.586,0,0,0,70.875,1594.873Zm2.7-3.759a.59.59,0,1,0,.825-.137A.591.591,0,0,0,73.574,1591.114Zm-3.207.545a.59.59,0,1,0,.821-.136A.589.589,0,0,0,70.367,1591.659Zm-4.582-20.842c-.032.365-.051.731-.074,1.1a.583.583,0,0,0,.705-.187.59.59,0,0,0-.137-.824A.582.582,0,0,0,65.785,1570.817Zm6.484,30.248c.18.32.365.636.553.952.007-.009.021-.015.028-.025a.59.59,0,0,0-.581-.927Zm-6.3-26.811a.59.59,0,1,0,.825-.137A.591.591,0,0,0,65.965,1574.254Zm3.891,14.192a.591.591,0,1,0,.824-.137A.587.587,0,0,0,69.856,1588.446Zm1.527,9.642a.59.59,0,1,0,.825-.135A.59.59,0,0,0,71.383,1598.088Zm-4.576-28.929a.59.59,0,1,0,.824-.138A.588.588,0,0,0,66.807,1569.159Zm.508,3.214a.59.59,0,1,0,.825-.135A.591.591,0,0,0,67.315,1572.373Zm2.032,12.856a.591.591,0,1,0,.825-.134A.59.59,0,0,0,69.347,1585.229Zm-2.869-19.449c-.056.29-.1.586-.148.879a.654.654,0,0,0,.1.108.591.591,0,1,0,.045-.987Zm2.361,16.235a.59.59,0,1,0,.959.688.585.585,0,0,0-.134-.822A.593.593,0,0,0,68.839,1582.015Zm-1.016-6.428a.59.59,0,1,0,.824-.137A.59.59,0,0,0,67.823,1575.587Zm.508,3.214a.59.59,0,1,0,.824-.138A.594.594,0,0,0,68.331,1578.8Zm20.8,37.729a.591.591,0,0,0,.961.687.591.591,0,1,0-.961-.687Zm31.752,2.854a.59.59,0,1,0,.825-.134A.589.589,0,0,0,120.879,1619.384Zm.511,3.214a.589.589,0,1,0,.822-.134A.589.589,0,0,0,121.39,1622.6Zm1.855,1.337a.591.591,0,1,0,.825-.138A.59.59,0,0,0,123.245,1623.935Zm.508,3.214a.573.573,0,0,0-.1.37c.384-.042.77-.092,1.156-.144a.576.576,0,0,0-.228-.361A.592.592,0,0,0,123.753,1627.149Zm-1.857-1.333a.589.589,0,1,0,.824-.138A.587.587,0,0,0,121.9,1625.816Zm-2.367-4.551a.59.59,0,1,0,.825-.137A.589.589,0,0,0,119.529,1621.265Zm.508,3.215a.59.59,0,1,0,.825-.138A.591.591,0,0,0,120.037,1624.48Zm6.419-1.091a.59.59,0,1,0,.822-.137A.59.59,0,0,0,126.456,1623.389Zm.5,3.215a.593.593,0,0,0-.09.468c.389-.066.769-.151,1.152-.225a.574.574,0,0,0-.237-.378A.589.589,0,0,0,126.961,1626.6Zm-1.016-6.429a.591.591,0,1,0,.824-.137A.591.591,0,0,0,125.945,1620.175Zm-1.35,1.878a.591.591,0,0,0,.961.688.591.591,0,0,0-.961-.688Zm-1.858-1.333a.591.591,0,1,0,.825-.137A.591.591,0,0,0,122.737,1620.72Zm2.366,4.551a.591.591,0,1,0,.825-.138A.591.591,0,0,0,125.1,1625.271Zm-10.131-1.583a.59.59,0,1,0,.822-.133A.59.59,0,0,0,114.972,1623.688Zm1.858,1.337a.589.589,0,1,0,.824-.138A.59.59,0,0,0,116.83,1625.025Zm-1.35,1.881a.591.591,0,0,0,.134.822.5.5,0,0,0,.142.063l.349.023a.588.588,0,1,0-.625-.908Zm-1.019-6.431a.591.591,0,0,0,.961.687.591.591,0,0,0-.961-.687Zm-1.858-1.333a.59.59,0,1,0,.824-.137A.591.591,0,0,0,112.6,1619.142Zm.511,3.213a.59.59,0,1,0,.821-.136A.587.587,0,0,0,113.114,1622.355Zm4.557-2.426a.59.59,0,1,0,.959.688.59.59,0,0,0-.959-.688Zm-1.349,1.881a.59.59,0,1,0,.824-.137A.59.59,0,0,0,116.322,1621.81Zm1.857,1.333a.59.59,0,1,0,.959.688.59.59,0,0,0-.959-.688Zm2.366,4.551c-.013.022-.018.047-.031.072.336-.019.671-.023,1.006-.048a.557.557,0,0,0-.147-.159A.592.592,0,0,0,120.545,1627.694Zm-1.857-1.333a.591.591,0,1,0,.824-.138A.59.59,0,0,0,118.688,1626.361Zm-2.877-7.764a.591.591,0,1,0,.824-.137A.589.589,0,0,0,115.811,1618.6Zm29.386-1.7a.591.591,0,1,0,.825-.135A.587.587,0,0,0,145.2,1616.9Zm-31.575,8.668a.59.59,0,1,0,.821-.137A.585.585,0,0,0,113.622,1625.57Zm28.876-4.906a.59.59,0,0,0,.133.822.655.655,0,0,0,.187.082c.238-.128.478-.251.712-.384a.581.581,0,0,0-.208-.657A.587.587,0,0,0,142.5,1620.664Zm-5.069-.791a.59.59,0,1,0,.824-.137A.591.591,0,0,0,137.429,1619.873Zm4.56-2.426a.591.591,0,1,0,.825-.135A.59.59,0,0,0,141.989,1617.447Zm-1.35,1.881a.59.59,0,1,0,.822-.137A.588.588,0,0,0,140.639,1619.328Zm-1.352,1.881a.591.591,0,1,0,.827-.137A.594.594,0,0,0,139.287,1621.209Zm4.56-2.426a.59.59,0,1,0,.825-.138A.589.589,0,0,0,143.847,1618.783Zm9.118-4.853a.594.594,0,0,0-.064.555c.269-.242.538-.483.8-.727A.579.579,0,0,0,152.965,1613.93Zm1.35-1.878a.585.585,0,0,0,.134.822.494.494,0,0,0,.117.053c.256-.251.511-.5.762-.761a.6.6,0,0,0-.189-.251A.591.591,0,0,0,154.315,1612.052Zm-26,12.67a.59.59,0,1,0,.959.688.59.59,0,0,0-.959-.688Zm18.742-6.484a.58.58,0,0,0,.062.743c.314-.214.636-.421.947-.64a.607.607,0,0,0-.184-.241A.592.592,0,0,0,147.055,1618.238Zm1.35-1.881a.591.591,0,1,0,.825-.135A.587.587,0,0,0,148.4,1616.357Zm1.35-1.879a.591.591,0,1,0,.824-.137A.589.589,0,0,0,149.755,1614.478Zm-20.6,5.152a.59.59,0,1,0,.821-.137A.588.588,0,0,0,129.156,1619.63Zm1.857,1.333a.59.59,0,1,0,.825-.134A.591.591,0,0,0,131.013,1620.963Zm.509,3.217a.589.589,0,1,0,.824-.137A.59.59,0,0,0,131.522,1624.18Zm-1.858-1.336a.59.59,0,1,0,.824-.137A.588.588,0,0,0,129.664,1622.844Zm-1.859-1.336a.59.59,0,1,0,.825-.134A.591.591,0,0,0,127.805,1621.508Zm2.367,4.55a.58.58,0,0,0-.1.351q.553-.131,1.1-.275a.558.558,0,0,0-.173-.21A.589.589,0,0,0,130.172,1626.058Zm7.768-2.971a.583.583,0,0,0,.073.759c.331-.135.662-.267.986-.41a.581.581,0,0,0-1.059-.349Zm-3.719-2.669a.591.591,0,1,0,.824-.137A.59.59,0,0,0,134.221,1620.418Zm-.837,5.089c.223-.067.446-.129.665-.2A.586.586,0,0,0,133.384,1625.507Zm2.7-3.753a.59.59,0,1,0,.959.687.59.59,0,1,0-.959-.687Zm-3.211.545a.591.591,0,1,0,.825-.137A.589.589,0,0,0,132.871,1622.3Zm1.861,1.333a.59.59,0,1,0,.822-.134A.589.589,0,0,0,134.732,1623.632Zm-33.614-4.191a.59.59,0,1,0,.825-.134A.589.589,0,0,0,101.118,1619.441Zm-4.223-5.883a.59.59,0,1,0,.821-.136A.591.591,0,0,0,96.895,1613.558Zm.508,3.214a.59.59,0,1,0,.825-.134A.59.59,0,0,0,97.4,1616.772Zm2.874,7.764a.6.6,0,0,0-.082.187c.364.131.726.265,1.092.39a.584.584,0,0,0-.186-.714A.591.591,0,0,0,100.277,1624.536Zm-3.891-14.192a.59.59,0,1,0,.825-.137A.589.589,0,0,0,96.386,1610.344Zm2.033,12.856a.592.592,0,1,0,.825-.134A.594.594,0,0,0,98.419,1623.2Zm-.508-3.214a.59.59,0,1,0,.825-.134A.591.591,0,0,0,97.911,1619.986Zm-5.574-4a.588.588,0,0,0,.134.822.59.59,0,1,0-.134-.822Zm5.907-4.307a.591.591,0,1,0,.825-.134A.591.591,0,0,0,98.244,1611.677Zm3.383,10.978a.592.592,0,1,0,.824-.134A.592.592,0,0,0,101.627,1622.655Zm-2.875-7.763a.591.591,0,1,0,.825-.135A.594.594,0,0,0,98.752,1614.892Zm.509,3.216a.59.59,0,1,0,.824-.137A.589.589,0,0,0,99.261,1618.108Zm-4.736-9.1a.592.592,0,1,0,.825-.135A.591.591,0,0,0,94.525,1609.009Zm5.244,12.313a.591.591,0,1,0,.824-.137A.589.589,0,0,0,99.769,1621.322Zm10.976-3.516a.59.59,0,1,0,.825-.134A.59.59,0,0,0,110.745,1617.806ZM90.81,1606.34a.589.589,0,1,0,.958.687.589.589,0,1,0-.958-.687Zm3.385,10.977a.59.59,0,1,0,.822-.133A.587.587,0,0,0,94.195,1617.317Zm.508,3.214a.591.591,0,1,0,.825-.134A.59.59,0,0,0,94.7,1620.531Zm-3.385-10.977a.592.592,0,1,0,.825-.135A.593.593,0,0,0,91.318,1609.554Zm.508,3.214a.591.591,0,1,0,.825-.135A.594.594,0,0,0,91.826,1612.768Zm.842-5.092a.59.59,0,1,0,.824-.137A.591.591,0,0,0,92.668,1607.676Zm2.877,7.763a.589.589,0,1,0,.824-.137A.591.591,0,0,0,95.545,1615.439Zm.508,3.214a.59.59,0,1,0,.824-.137A.588.588,0,0,0,96.053,1618.653Zm-1.019-6.43a.592.592,0,1,0,.824-.135A.59.59,0,0,0,95.034,1612.223Zm1.527,9.644a.59.59,0,1,0,.825-.137A.59.59,0,0,0,96.561,1621.867Zm-3.385-10.977a.591.591,0,1,0,.824-.137A.587.587,0,0,0,93.176,1610.89Zm.508,3.214a.591.591,0,0,0,.962.687.591.591,0,0,0-.962-.687Zm14.361,7.461a.59.59,0,1,0,.825-.134A.59.59,0,0,0,108.045,1621.565Zm-.508-3.214a.59.59,0,1,0,.825-.134A.588.588,0,0,0,107.537,1618.351Zm2.874,7.764a.6.6,0,0,0,.135.825.591.591,0,1,0-.135-.825Zm-1.857-1.333a.589.589,0,1,0,.824-.137A.584.584,0,0,0,108.554,1624.782Zm-2.875-7.767a.591.591,0,1,0,.825-.134A.594.594,0,0,0,105.679,1617.015Zm4.224,5.886a.59.59,0,1,0,.825-.137A.587.587,0,0,0,109.9,1622.9Zm-3.716-2.669a.59.59,0,1,0,.822-.137A.591.591,0,0,0,106.187,1620.232Zm-5.577-4.005a.59.59,0,1,0,.825-.137A.6.6,0,0,0,100.61,1616.227Zm11.154,8.009a.589.589,0,1,0,.822-.136A.585.585,0,0,0,111.764,1624.236Zm-2.369-4.549a.59.59,0,1,0,.825-.137A.591.591,0,0,0,109.395,1619.687Zm-.508-3.217a.591.591,0,1,0,.825-.134A.594.594,0,0,0,108.887,1616.47Zm3.382,10.981c-.014.02-.018.044-.032.067.358.041.713.086,1.072.119a.562.562,0,0,0-.215-.323A.593.593,0,0,0,112.269,1627.451Zm-1.016-6.431a.591.591,0,1,0,.828-.135A.59.59,0,0,0,111.253,1621.02Zm-8.785-3.46a.591.591,0,1,0,.825-.134A.592.592,0,0,0,102.468,1617.56Zm4.227,5.886a.59.59,0,1,0,.825-.137A.591.591,0,0,0,106.695,1623.446Zm-3.718-2.669a.591.591,0,1,0,.827-.137A.591.591,0,0,0,102.977,1620.777Zm.508,3.214a.591.591,0,1,0,.827-.137A.594.594,0,0,0,103.485,1623.991Zm-3.383-10.978a.59.59,0,1,0,.825-.137A.594.594,0,0,0,100.1,1613.013Zm1.858,1.334a.591.591,0,1,0,.825-.135A.593.593,0,0,0,101.96,1614.347Zm3.386,10.98a.59.59,0,1,0,.824-.137A.591.591,0,0,0,105.346,1625.327Zm1.857,1.333a.458.458,0,0,1-.023.051c.364.076.72.158,1.085.228a.567.567,0,0,0-.237-.413A.588.588,0,0,0,107.2,1626.66Zm-3.382-10.978a.59.59,0,1,0,.822-.137A.59.59,0,0,0,103.821,1615.682Zm.5,3.214a.591.591,0,1,0,.825-.134A.59.59,0,0,0,104.326,1618.9Zm.511,3.214a.59.59,0,1,0,.959.688.59.59,0,0,0-.959-.688Zm8.213-87.7c.4.73.311,2.266,1.239,2.443,1.252-.068-1.419-5.871-1.471-7.074,1.052-.545,2.279-.288,3.3-.937.792,2.112,1.241,4.431,2.066,6.558.176.43.8.154.809-.232-.05-1.8-1-3.483-1.29-5.272-.64-2.286-1.544-4.488-2.083-6.805-.29-.735-.232-1.865-.916-2.324-1.536-.637.92,5.613.9,6.466-.781,1.025-2.007.769-3.131,1.183-.887-1.972-.962-4.294-2.267-5.99-.695-.443-.782.523-.522.974C111.056,1527,111.854,1530.765,113.05,1534.414Zm-.417,3.026c.419-.5-.358-2.746-1.044-1.79a1.417,1.417,0,0,0-.039.83c.232.982-.84,1.484-1.711.95-2.377-1.508-7.768-8.076-5.868-10.573.612-1.134,1.73-.793,2.828-.488,1.059-.268-.449-1.086-.946-1.19a2.8,2.8,0,0,0-3.416,2.5c-.214,3.37,3.158,7.113,5.463,9.654C109.068,1538.759,112.025,1539.581,112.633,1537.44Zm7.766-2.393c.618-.624.183-1.563.325-2.352.569-3.652-.856-4.532,2.761-4.326.781.523,2.035,6.245,2.782,5.7.919-.962-.341-2.345-.558-3.388-.858-2.675-2-5.24-3-7.864-.243-.679-1.28-4.724-2.253-2.978-.116,1.318-.161,2.65-.283,3.97C120.443,1524.907,118.656,1536.619,120.4,1535.047Zm.993-12.23a24.535,24.535,0,0,1,1.647,4.281,6.917,6.917,0,0,1-1.843.072A25.135,25.135,0,0,1,121.392,1522.817ZM91.1,1541.737c2.578,1.619,5.1,3.287,7.67,4.909,1.016.288,2.522,2.112,3.427,1.811,1.516-1.011-4-3.132-4.574-3.984a16.832,16.832,0,0,1,4.041.023c.973-.113,3.321.741,3.625-.433-.543-1.013-6.928-.807-8.392-.975-.867-.168-1.02-1.953-1.5-2.659-.617-1.03-1.458-4.592-2.695-4.622-1.293.41.294,1.666.465,2.411.646,1.371,1.176,2.79,1.743,4.194a.192.192,0,0,1-.085.278c-1.628-.893-3.13-2.007-4.681-3.022a.586.586,0,0,0-.767.228C89.048,1540.656,90.632,1541.253,91.1,1541.737Zm37.651-10.415c.464-2.323.4-4.862,1-7.093.79,2.461,1,5.242,1.622,7.8.286.724-.029,2.055,1.165,1.854,1.723-3.471,2.672-7.39,4.483-10.851.294,3.737-.552,7.878-.516,11.742a.445.445,0,0,0,.8.274c.684-.944.161-2.228.517-3.307.16-3.468.655-6.95.526-10.427-1.132-3.924-1.971-.031-2.63,1.608a68.731,68.731,0,0,0-2.735,7.2c-.165.351-.143,1.019-.581,1.11-.932-3.911-1.428-7.994-2.542-11.872,0-.179-.27-.392-.45-.406-.943.119-.472,1.511-.65,2.181-.135,4.34-1.264,8.622-1.186,12.951C128.864,1534.154,128.451,1532.161,128.752,1531.322Zm-30.305,4.614c2.164,1.6,5.222,1.267,7.421,2.8.568.435,1.321,1.017,1.3,1.8-.345,1.538-1.646,1.794-2.747.76-.414-.314-1.1.108-.858.6a2.465,2.465,0,0,0,2.882,1.1c1.172-.6,2.631-2.009,1.735-3.391-1.381-3.151-5.259-2.955-8-4.187-2.706-.523-4.256-5.859-.277-4.032.26.289.633.48.976.2.535-.423-.118-1.056-.548-1.277a2.925,2.925,0,0,0-3.031-.048C95.232,1531.641,96.693,1534.877,98.447,1535.936Zm-.673,17.913c1.084.75,2.174-.888,2.359-1.832.12-1.054.767-1.874.817-2.949-1.182-1.714-1.72,2.822-2.254,3.479-.489.628-1.96-.426-2.659-.521-2.853-1.049-4.582-1.581-7.4-2.726-.815-.235-3.084-1.556-3.608-.611a.626.626,0,0,0,.273.69C89.9,1550.846,93.167,1552.385,97.774,1553.849Zm68.6-5.988c-2.826.5-5.473,1.651-8.268,2.276-.957.36-3.08.384-2.795,1.793.188.749.584,1.426.741,2.186.084.7.581,1.445,1.4,1.068.125-1.17-.825-2.23-.8-3.374.976-.433,2.09-.5,3.092-.887.659.109,1.795-.935,2.1-.191.327.629.136,1.876,1.064,1.964a.888.888,0,0,0,.569-.068c.406-.512-1.044-2.564-.283-2.7,1.988-.509,3.978-1.095,5.983-1.449.819.886-.082,3.131,1.626,3.09a4.66,4.66,0,0,0-1.012-4.278C169.369,1546.54,167.237,1547.9,166.375,1547.861Zm-32.037,17.275c-.361-1.122-.409-2.363-.853-3.45s-1.392-1.95-1.916-3.006-1.058-2.077-1.653-3.1-1.325-1.914-1.983-2.9c-.647-.969-1.234-1.974-1.946-2.925a2.651,2.651,0,0,0-2.279-1.366,2.736,2.736,0,0,0-2,1.87c-.423,1.147-.99,2.231-1.359,3.367-.378,1.162-.693,2.335-1,3.491-.312,1.178-.4,2.4-.62,3.575-.221,1.193-.51,2.37-.618,3.57a33.292,33.292,0,0,0-.394,3.629,31.15,31.15,0,0,0,.548,3.612,29.529,29.529,0,0,0,.528,3.609,15.3,15.3,0,0,0,1.64,3.356,11.871,11.871,0,0,0,2.006,3.18,8.437,8.437,0,0,0,3.386,1.716,8.186,8.186,0,0,0,3.741-.005,7.329,7.329,0,0,0,3.072-1.77,8.633,8.633,0,0,0,2.291-2.672,10.943,10.943,0,0,0,1.271-3.359,12.117,12.117,0,0,0-.1-3.6c-.185-1.174-.355-2.344-.625-3.477C135.2,1567.328,134.7,1566.249,134.338,1565.136Zm4.683-28.924c.979.365,1.92-5.964,2.619-6.9,5.1,1.448,8.162-6.386,2.587-7.724-.507-.11-1.254-.284-1.51.385-.792,2.208-1.438,4.469-2.3,6.65C140.333,1529.762,137.568,1536.26,139.021,1536.212Zm4.707-13.515c2.432.287,2.79,2.3,1.448,4.359a3.194,3.194,0,0,1-3.127,1.125A45.844,45.844,0,0,1,143.728,1522.7Zm35.437,30.87a16.635,16.635,0,0,0-.652-2.017c-.144-.389-.29-.777-.409-1.168-.111-.371-.209-.748-.308-1.122-.186-.709-.376-1.416-.628-2.1-.26-.7-.581-1.375-.9-2.044-.162-.337-.323-.675-.475-1.016-.172-.384-.309-.787-.449-1.188a13.829,13.829,0,0,0-.789-1.939,12.433,12.433,0,0,0-1.168-1.75,12.491,12.491,0,0,1-.729-1.03c-.218-.359-.4-.746-.581-1.128a12.467,12.467,0,0,0-1.009-1.838,19.439,19.439,0,0,0-1.355-1.669c-.268-.305-.536-.609-.785-.921-.514-.649-1.075-1.255-1.635-1.861l-.588-.643c-.751-.831-1.542-1.614-2.341-2.392-.717-.7-1.471-1.349-2.23-2l-.261-.224a11.306,11.306,0,0,1-.891-.9,11.817,11.817,0,0,0-1.52-1.455c-.8-.6-1.641-1.163-2.477-1.718l-.284-.189a11.361,11.361,0,0,0-1.876-.948,10.232,10.232,0,0,1-1.145-.54c-.356-.2-.7-.431-1.043-.656a17.1,17.1,0,0,0-1.813-1.086c-.67-.334-1.367-.607-2.065-.878-.343-.133-.688-.268-1.027-.41-.386-.161-.758-.361-1.131-.558a13.392,13.392,0,0,0-1.906-.881c-1.053-.368-2.123-.727-3.2-1.026a14.518,14.518,0,0,0-2.064-.379c-.419-.054-.839-.109-1.253-.2-.525-.112-1.056-.192-1.588-.265a53.05,53.05,0,0,0-18.872-.187,53.585,53.585,0,0,0-5.559,1.26c-.171.04-.344.073-.513.123l-.467.141c-.918.277-1.839.554-2.732.886-.305.114-.588.246-.866.381a53.334,53.334,0,0,0-26.755,22.6.636.636,0,0,0-.076-.033c-.234.238-.476.469-.71.71a.6.6,0,0,0,.206.316c-.191.34-.374.687-.561,1.034a.447.447,0,0,0-.079-.089.592.592,0,1,0-.69.962.526.526,0,0,0,.25.095c-.237.464-.456.934-.68,1.405a.575.575,0,0,0-.233-.58.59.59,0,0,0-.688.958.585.585,0,0,0,.787-.1,53.557,53.557,0,0,0-2.391,6.072.579.579,0,0,0-.724.181.592.592,0,0,0,.137.822.54.54,0,0,0,.238.1q-.6,1.983-1.037,4.012a.586.586,0,0,0-.175.842q-.161.786-.294,1.576a.574.574,0,0,0-.236-.509.59.59,0,1,0,.137.822.6.6,0,0,0,.077-.168c-.141.842-.26,1.687-.361,2.54a.575.575,0,0,0-.1.905q-.2,2.052-.251,4.133a.584.584,0,0,0-.657.211.594.594,0,0,0,.134.825.579.579,0,0,0,.515.073c0,.716.016,1.433.045,2.153a.564.564,0,0,0-.186.166.588.588,0,0,0,.137.821.41.41,0,0,0,.092.043q.077,1.245.211,2.5a.585.585,0,0,0,.048.5q.161,1.384.4,2.774c.01.057.025.11.035.17a.461.461,0,0,0,.025.13q.245,1.392.559,2.756a.59.59,0,0,0,.16.77c.01.007.025.01.038.017.18.735.372,1.466.585,2.187a.555.555,0,0,0-.249.185.588.588,0,0,0,.583.924c.228.725.476,1.44.733,2.147a.59.59,0,1,0,.15.831.619.619,0,0,0,.084-.181c.494,1.308,1.041,2.583,1.63,3.834a.6.6,0,0,0-.306.209.589.589,0,0,0,.8.834c.594,1.191,1.236,2.354,1.911,3.49a.583.583,0,0,0-.213,1.048.583.583,0,0,0,.789-.1,52.868,52.868,0,0,0,3.525,4.985.552.552,0,0,0-.224.178.59.59,0,0,0,.949.7c.268.323.534.649.81.965a.555.555,0,0,0,.539.592,53.7,53.7,0,0,0,18.217,13.176.483.483,0,0,0,.065.071.56.56,0,0,0,.332.1c.442.191.879.386,1.324.565a.58.58,0,0,0,.2.67.589.589,0,0,0,.825-.134.63.63,0,0,0,.059-.13,52.853,52.853,0,0,0,5.437,1.7c.125.042.25.079.374.122a.585.585,0,0,0,1.056.428.509.509,0,0,0,.03-.067c.364.114.73.218,1.1.3.813.172,1.645.286,2.476.4l.452.062a.571.571,0,0,0,.18.234.586.586,0,0,0,.791-.1c.914.127,1.836.242,2.759.318a8.725,8.725,0,0,0,1.295-.007.569.569,0,0,0,.223.579.585.585,0,0,0,.822-.134.571.571,0,0,0,.092-.477c.746.019,1.5.029,2.248.019.017.014.027.036.046.047a.58.58,0,0,0,.762-.077c.725-.021,1.452-.061,2.18-.111l.285.014a13.631,13.631,0,0,0,1.845.01.572.572,0,0,0-.14.13.591.591,0,1,0,.825-.134.524.524,0,0,0-.111-.05c.686-.084,1.369-.2,2.059-.329l.5-.09a.621.621,0,0,0-.065.061.59.59,0,1,0,.824-.137.439.439,0,0,0-.082-.037c.309-.049.618-.095.928-.135.426-.057.851-.116,1.272-.188.09-.015.179-.037.268-.054l0,0a.591.591,0,0,0,.962.687.585.585,0,0,0-.137-.821.474.474,0,0,0-.065-.03c.723-.177,1.435-.4,2.14-.624l.931-.292c1.076-.324,2.151-.654,3.19-1.039.231-.086.454-.191.679-.294a.58.58,0,0,0,.2.267.591.591,0,0,0,.852-.784c.06-.032.12-.061.18-.092.367-.193.733-.389,1.112-.557l.547-.242c.605-.269,1.2-.543,1.792-.829a.467.467,0,0,0,.077.077.589.589,0,0,0,.825-.134.559.559,0,0,0,.079-.432l.181-.094c.836-.435,1.67-.869,2.476-1.355.294-.18.579-.373.861-.569a.508.508,0,0,0,.136.161.581.581,0,0,0,.6.041c.094-.1.185-.2.279-.3a.593.593,0,0,0-.076-.577l.045-.033c.3-.219.59-.438.887-.645.73-.509,1.419-1.059,2.109-1.613l.535-.428c.326-.26.672-.494,1.016-.729a15.362,15.362,0,0,0,1.677-1.27c.611-.55,1.179-1.143,1.747-1.737l.615-.638c.781-.8,1.552-1.6,2.411-2.6.686-.8,1.37-1.592,2-2.427a15.823,15.823,0,0,0,1.116-1.777c.207-.363.413-.73.643-1.077s.5-.676.764-1.007a12.965,12.965,0,0,0,1.221-1.7c.383-.661.71-1.352,1.035-2.045.151-.322.3-.642.458-.959.18-.36.377-.713.575-1.067a19.81,19.81,0,0,0,.974-1.909c.325-.772.6-1.573.868-2.371l.574-1.641c.279-.768.557-1.539.778-2.328a21.019,21.019,0,0,0,.435-2.112c.065-.4.133-.79.215-1.182s.2-.806.312-1.2a17.027,17.027,0,0,0,.481-2.065,19.262,19.262,0,0,0,.155-2.141c.013-.407.027-.812.06-1.213.091-1.1.114-2.218.135-3.35.008-.4.035-.8.061-1.2a19.672,19.672,0,0,0,.06-2.158,11.933,11.933,0,0,0-.319-2.056,11.778,11.778,0,0,1-.229-1.263c-.042-.387-.068-.773-.1-1.163a21.748,21.748,0,0,0-.224-2.169c-.064-.378-.117-.758-.169-1.139C179.434,1555.006,179.332,1554.278,179.165,1553.567Zm-101.6,17.485c-.05-.477-.129-.955-.209-1.429a14.048,14.048,0,0,1-.217-1.685,11.125,11.125,0,0,1,.091-1.62c.051-.508.1-1.015.11-1.521.011-.531-.029-1.065-.071-1.6a9.575,9.575,0,0,1-.047-1.548c.032-.384.055-.768.078-1.153.04-.668.078-1.337.174-1.99a12.421,12.421,0,0,1,.394-1.615c.138-.481.275-.959.377-1.443.077-.362.148-.728.218-1.094.127-.666.253-1.332.433-1.982.194-.695.442-1.372.689-2.048l.333-.927c.344-.991.732-1.962,1.138-2.926.254-.611.565-1.191.872-1.775.181-.341.361-.684.533-1.03.2-.4.385-.817.566-1.231a16.214,16.214,0,0,1,.778-1.609c.385-.67.818-1.311,1.25-1.951l.459-.685c.579-.873,1.2-1.713,1.835-2.546s1.276-1.659,1.959-2.45c.3-.35.589-.718.874-1.085a15.827,15.827,0,0,1,1.126-1.348c.732-.746,1.482-1.489,2.26-2.193a9.078,9.078,0,0,1,1.233-.859,14.122,14.122,0,0,0,1.369-.927c.353-.282.694-.577,1.035-.875a16.712,16.712,0,0,1,1.383-1.125c.55-.384,1.132-.718,1.714-1.056.325-.188.65-.377.968-.572.808-.489,1.643-.923,2.486-1.361l.265-.14c.34-.178.675-.365,1.012-.552.576-.32,1.152-.642,1.76-.912.462-.206.909-.451,1.358-.7a11.23,11.23,0,0,1,1.458-.716c.825-.307,1.679-.562,2.531-.819l.47-.141a11.872,11.872,0,0,1,1.607-.324c.5-.08,1-.159,1.49-.275l.984-.24a36.551,36.551,0,0,1,5.19-.908,14.08,14.08,0,0,1,1.741-.045c.468.006.936.01,1.4-.01l.785-.039c.785-.039,1.563-.081,2.348-.065,1.051.02,2.088.1,3.124.182.943.079,1.868.217,2.795.354l1.329.183c.7.092,1.4.181,2.083.326.5.1,1,.172,1.508.24.188.025.375.052.562.079a50.086,50.086,0,0,1,5.162,1.681c.108.057.216.111.324.168.459.243.919.483,1.395.684.368.155.742.3,1.115.446.517.2,1.031.406,1.533.64.119.06.241.113.36.174a15.82,15.82,0,0,1,1.36.825c.4.263.8.524,1.206.761a12.36,12.36,0,0,0,1.341.644,50.733,50.733,0,0,1,6.031,4.445c.1.1.205.2.314.3l.267.23.215.186a49.951,49.951,0,0,1,15.462,26.354l-3.47.588c-1.359.231-2.033.383-2.707.535-.631.14-1.261.282-2.535.5-1.323.225-1.982.344-2.642.463s-1.3.234-2.61.456c-1.357.231-2.03.382-2.7.534-.63.14-1.259.282-2.531.5s-1.932.306-2.579.392c-.35.048-.7.1-1.149.163-.031-.086-.06-.174-.092-.26-.063-.17-.127-.339-.179-.51l-.141-.515c-.1-.364-.2-.727-.326-1.083s-.3-.712-.468-1.06l-.214-.454c-.071-.161-.129-.332-.187-.5a7.616,7.616,0,0,0-.431-1.053,6.953,6.953,0,0,0-.637-.96c-.1-.139-.211-.274-.3-.422a4.6,4.6,0,0,1-.237-.465,7.058,7.058,0,0,0-.557-1.005,10.253,10.253,0,0,0-.712-.879c-.118-.134-.237-.27-.347-.407-.262-.327-.545-.637-.828-.943l-.275-.3c-.372-.412-.765-.8-1.16-1.186-.354-.345-.725-.666-1.237-1.107a4.38,4.38,0,0,1-.358-.363,6.578,6.578,0,0,0-.842-.8c-.409-.308-.84-.6-1.368-.946a6.465,6.465,0,0,0-1.039-.529,4.25,4.25,0,0,1-.455-.21c-.157-.09-.308-.192-.459-.292a9.691,9.691,0,0,0-.96-.573c-.348-.172-.709-.315-1.07-.454l-.461-.183c-.161-.07-.316-.153-.472-.237a7.638,7.638,0,0,0-1.036-.474c-.523-.184-1.053-.36-1.591-.511a7.9,7.9,0,0,0-1.118-.208c-.178-.022-.355-.043-.526-.08-.393-.082-.793-.138-1.193-.188l-.61-.086c-.494-.074-.988-.146-1.486-.185-.552-.044-1.1-.087-1.652-.1-.427-.009-.854.011-1.284.033l-.375.018c-.178.008-.355.005-.534,0a9.448,9.448,0,0,0-1.129.035,21.767,21.767,0,0,0-2.835.495l-.432.107c-.172.042-.353.066-.535.1a7.955,7.955,0,0,0-1.1.231l-.228.067c-.458.137-.915.276-1.361.442a7.681,7.681,0,0,0-1.023.491c-.157.086-.311.174-.476.245-.356.16-.7.348-1.036.537l-.54.292c-.457.238-.909.475-1.345.741l-.4.236c-.346.2-.69.4-1.012.629a9.941,9.941,0,0,0-.879.7c-.135.118-.269.235-.412.349a4.692,4.692,0,0,1-.423.281,6.621,6.621,0,0,0-.943.675c-.41.371-.807.763-1.2,1.16a10.474,10.474,0,0,0-.724.859c-.111.142-.222.286-.338.423-.362.42-.7.854-1.038,1.3s-.664.887-.967,1.345l-.2.291c-.245.364-.489.727-.708,1.107a10.253,10.253,0,0,0-.49,1.005c-.073.164-.145.33-.227.493l-.229.444c-.182.343-.361.688-.51,1.045-.215.511-.419,1.025-.6,1.549l-.145.4c-.142.389-.283.781-.392,1.175-.106.379-.182.765-.256,1.154l-.094.473c-.037.176-.089.349-.139.523a8.548,8.548,0,0,0-.259,1.1c-.057.382-.082.77-.1,1.157l-.034.507a7.208,7.208,0,0,0,.022,1.137c.013.176.03.351.026.53s-.022.353-.041.53a7.918,7.918,0,0,0-.053,1.131,8.23,8.23,0,0,0,.1.88c-.355.041-.651.068-.944.094-.7.06-1.4.122-2.787.357-1.31.222-1.966.327-2.622.434s-1.327.213-2.652.438a17.824,17.824,0,0,0-2.826.691,14.713,14.713,0,0,1-2.37.579c-1.292.219-1.941.31-2.589.4-.674.1-1.346.189-2.684.416l-3.663.612C77.625,1571.589,77.591,1571.321,77.562,1571.052Zm72.285-9.817c.005.032.012.064.016.1l.093.62a7.853,7.853,0,0,1,.077.792c.015.219.03.439.054.655a8.212,8.212,0,0,0,.153.866,3.527,3.527,0,0,1,.1.573,6.755,6.755,0,0,1-.026.765c-.015.231-.03.462-.035.74-.01.47-.018.94-.055,1.4-.02.239-.029.476-.037.714a6.716,6.716,0,0,1-.05.743,5.3,5.3,0,0,1-.165.683c-.069.245-.136.487-.189.736-.046.219-.083.441-.12.662a7.194,7.194,0,0,1-.154.765c-.089.321-.205.636-.319.949l-.3.846c-.11.323-.218.647-.347.954a6.5,6.5,0,0,1-.346.668c-.115.207-.23.413-.333.62l-.248.517c-.125.267-.249.537-.4.793a3.906,3.906,0,0,1-.368.495c-.177.219-.351.44-.5.666s-.277.447-.406.675a4.824,4.824,0,0,1-.354.573c-.267.353-.557.69-.925,1.118-.316.366-.653.716-.994,1.064l-.308.32c-.23.244-.462.488-.714.715a4.949,4.949,0,0,1-.547.4c-.211.144-.421.29-.628.452l-.226.182c-.3.242-.6.484-.917.707l-.478.345c-.229.169-.457.342-.705.491-.322.2-.658.369-.994.545l-.277.146c-.365.19-.743.355-1.122.521,0,0-.2.089-.205.092-.227.1-.449.217-.67.336a5.9,5.9,0,0,1-.628.3c-.452.167-.919.31-1.383.45l-.514.16c-.293.094-.587.19-.888.261-.26.058-.528.092-.794.129-.216.027-.432.058-.646.094l-.5.088c-.313.06-.629.121-.941.151a3.527,3.527,0,0,1-.608-.008,8.375,8.375,0,0,0-.852-.018c-.484.021-.963.023-1.446.013a7.081,7.081,0,0,0-.9.049,2.952,2.952,0,0,1-.567.027c-.482-.036-.963-.1-1.443-.17l-.434-.06c-.337-.044-.676-.09-1-.157a6.113,6.113,0,0,1-.671-.207c-.242-.085-.485-.167-.719-.232a6.292,6.292,0,0,1-.666-.25c-.231-.1-.461-.192-.692-.271-.46-.162-.915-.32-1.359-.506l-.553-.221c-.267-.1-.532-.206-.79-.334-.435-.216-.871-.43-1.287-.669a7.546,7.546,0,0,1-.633-.434c-.186-.135-.37-.269-.561-.4l-.451-.29c-.258-.165-.517-.328-.782-.529-.378-.286-.755-.571-1.118-.885-.2-.171-.414-.33-.627-.488a4.827,4.827,0,0,1-.517-.406,3.133,3.133,0,0,1-.339-.442,7.23,7.23,0,0,0-.556-.721c-.178-.2-.371-.381-.563-.564a4.823,4.823,0,0,1-.464-.473,7.821,7.821,0,0,1-.448-.656c-.118-.185-.237-.369-.363-.552a7.5,7.5,0,0,1-.4-.675c-.107-.193-.214-.386-.328-.575s-.234-.37-.353-.551c-.146-.222-.294-.443-.418-.679-.1-.19-.206-.379-.313-.567-.134-.234-.27-.469-.379-.712a3.68,3.68,0,0,1-.171-.564,8.037,8.037,0,0,0-.248-.831l-.233-.587c-.1-.253-.209-.5-.289-.764-.066-.222-.143-.442-.221-.662a7.43,7.43,0,0,1-.231-.724,5.606,5.606,0,0,1-.093-.679c-.026-.255-.053-.512-.1-.766-.082-.483-.14-.961-.192-1.438-.026-.249-.066-.495-.108-.74a5.884,5.884,0,0,1-.093-.7,4.712,4.712,0,0,1,.04-.651c.027-.269.053-.539.058-.8.005-.284-.014-.569-.037-.855a3.663,3.663,0,0,1-.023-.6l.04-.583c.017-.293.033-.588.074-.87a5.266,5.266,0,0,1,.165-.663c.072-.252.143-.5.2-.755l.107-.539c.057-.3.112-.593.193-.888.088-.314.2-.619.312-.924l.161-.447c.16-.46.34-.909.528-1.356.112-.268.249-.524.385-.78l.264-.513c.1-.207.2-.421.293-.635a7.287,7.287,0,0,1,.328-.685c.18-.309.382-.607.583-.905l.211-.313c.268-.4.556-.789.848-1.176s.59-.768.906-1.136c.153-.178.3-.363.443-.548a6.755,6.755,0,0,1,.476-.576c.341-.346.69-.691,1.048-1.016a3.117,3.117,0,0,1,.466-.316,7.909,7.909,0,0,0,.741-.506c.18-.143.355-.294.528-.446a7.586,7.586,0,0,1,.593-.484c.249-.174.515-.325.78-.477l.46-.272c.376-.229.766-.431,1.272-.695l.5-.275c.255-.142.51-.285.775-.4.245-.108.483-.236.721-.367a4.358,4.358,0,0,1,.58-.29c.376-.138.768-.256,1.158-.372l.237-.071a3.762,3.762,0,0,1,.655-.129c.259-.044.521-.084.776-.145l.484-.118a15.754,15.754,0,0,1,2.372-.414,6.264,6.264,0,0,1,.738-.017c.239,0,.477,0,.716-.005l.4-.021c.349-.017.7-.037,1.052-.029.485.008.963.045,1.445.087.425.033.844.1,1.434.184l.5.067c.312.042.623.081.935.147.257.053.52.09.782.124a4.638,4.638,0,0,1,.65.11c.468.131.931.288,1.395.451a3.917,3.917,0,0,1,.574.274c.24.126.483.252.738.361l.548.219c.267.1.535.2.791.331a6.3,6.3,0,0,1,.614.373c.205.134.41.269.622.391a7.046,7.046,0,0,0,.816.392,3.184,3.184,0,0,1,.6.308c.372.247.747.495,1.1.759a3.268,3.268,0,0,1,.409.405,8.178,8.178,0,0,0,.769.747c.32.275.641.551.946.848.346.338.69.675,1.013,1.033l.3.326c.229.248.46.5.671.761.144.182.3.356.449.53a6.646,6.646,0,0,1,.484.589,3.617,3.617,0,0,1,.28.53,8.431,8.431,0,0,0,.4.761c.147.241.318.472.49.7a3.679,3.679,0,0,1,.345.5,4.387,4.387,0,0,1,.233.6c.09.257.181.514.293.765l.253.54c.123.256.249.512.346.775s.16.513.229.774c.055.211.111.421.174.628.071.239.157.475.245.71a5.623,5.623,0,0,1,.224.675c.035.148.052.3.076.453,0,.047,0,.092.009.139S149.836,1561.192,149.847,1561.235Zm8.8,43.206c-.18.128-.365.25-.538.387l-.548.439c-.632.505-1.261,1.012-1.932,1.48-.189.132-.373.27-.559.407a49.967,49.967,0,0,1-4.717,2.877l-.044.023c-.745.39-1.514.73-2.287,1.072l-.554.246c-.445.2-.879.426-1.314.654l-.115.06a49.972,49.972,0,0,1-9.024,2.814l-.22.031c-.427.057-.855.115-1.279.187l-.985.176c-.708.131-1.411.264-2.122.336a9.636,9.636,0,0,1-1.561-.012,15.65,15.65,0,0,0-1.591-.035c-1.052.047-2.09.045-3.128.028a14.092,14.092,0,0,0-1.664.093,8.665,8.665,0,0,1-1.49.067c-1.047-.086-2.092-.219-3.127-.372l-.88-.121c-.75-.1-1.5-.2-2.234-.357a13.543,13.543,0,0,1-1.641-.5c-.454-.156-.907-.312-1.369-.442a13.958,13.958,0,0,1-1.6-.595c-.442-.185-.886-.369-1.478-.574-.942-.33-1.875-.655-2.789-1.038-.371-.157-.747-.3-1.122-.452-.6-.232-1.2-.464-1.851-.789-.915-.454-1.829-.908-2.713-1.417a16.322,16.322,0,0,1-1.48-1.006c-.362-.266-.726-.53-1.1-.781l-.916-.589c-.576-.366-1.151-.732-1.7-1.145-.834-.631-1.666-1.263-2.461-1.948-.382-.329-.791-.631-1.2-.93a11.693,11.693,0,0,1-1.274-1.024,8.377,8.377,0,0,1-.918-1.165,13.476,13.476,0,0,0-1.02-1.327c-.34-.377-.71-.73-1.081-1.08a11.7,11.7,0,0,1-1.129-1.165,17.9,17.9,0,0,1-1.035-1.506c-.238-.371-.476-.742-.726-1.1a17.5,17.5,0,0,1-.928-1.557c-.212-.387-.426-.772-.655-1.151-.221-.363-.454-.719-.689-1.075-.34-.518-.683-1.034-.971-1.585-.2-.375-.407-.746-.619-1.117a18.416,18.416,0,0,1-.873-1.65,9.46,9.46,0,0,1-.455-1.462,15.6,15.6,0,0,0-.46-1.551c-.146-.393-.305-.781-.465-1.17-.238-.577-.477-1.152-.659-1.755-.131-.435-.282-.866-.436-1.3a16.168,16.168,0,0,1-.535-1.694,13.174,13.174,0,0,1-.233-1.644c-.016-.16-.042-.32-.06-.481l3.777-.63c1.292-.22,1.941-.31,2.589-.4.673-.095,1.345-.19,2.684-.417a17.83,17.83,0,0,0,2.829-.692,14.785,14.785,0,0,1,2.367-.578c1.31-.222,1.966-.327,2.622-.434s1.327-.213,2.652-.438c1.251-.212,1.885-.267,2.519-.324.339-.029.68-.059,1.1-.108a6.883,6.883,0,0,0,.124.758,10.177,10.177,0,0,0,.333,1.073c.06.17.12.34.173.514.11.366.253.718.4,1.069l.192.482a4.856,4.856,0,0,1,.144.5,6.826,6.826,0,0,0,.355,1.092c.154.345.339.674.525,1l.257.464c.176.333.38.648.586.963l.549.907a11.09,11.09,0,0,0,.583.969l.29.442a11.2,11.2,0,0,0,.649.936,8.085,8.085,0,0,0,.778.815c.13.125.262.248.382.379a3.988,3.988,0,0,1,.3.4,6.312,6.312,0,0,0,.738.91,8.4,8.4,0,0,0,.874.713c.146.1.292.212.424.324.41.355.842.684,1.305,1.036.314.237.644.449.976.661l.4.26c.15.1.294.2.439.31a10.207,10.207,0,0,0,.934.628c.478.275.974.523,1.469.769.344.17.7.311,1.059.453l.476.19c.509.212,1.026.4,1.552.578.172.061.339.131.508.2a9.213,9.213,0,0,0,1.053.384c.175.05.349.11.524.171a9.223,9.223,0,0,0,1.065.316c.41.086.83.145,1.251.2l.4.054c.548.08,1.105.15,1.651.194a6.471,6.471,0,0,0,1.17-.034,4.25,4.25,0,0,1,.5-.034c.552.011,1.1.01,1.658-.014.171-.007.343.006.516.016a7.246,7.246,0,0,0,1.16,0c.4-.043.794-.113,1.186-.188l.45-.081.527-.076c.217-.028.433-.058.646-.095.16-.027.316-.058.472-.093.384-.092.762-.211,1.137-.33l.46-.143c.532-.161,1.064-.324,1.583-.518a8.5,8.5,0,0,0,1.028-.482c.158-.085.316-.168.659-.321.445-.2.886-.393,1.324-.619l.274-.145c.4-.209.8-.417,1.178-.647.334-.2.648-.431.96-.662l.407-.3c.378-.266.737-.551,1.094-.84l.212-.169c.139-.111.287-.211.434-.311a8.135,8.135,0,0,0,.9-.683c.311-.281.6-.583.891-.885l.282-.294c.388-.4.77-.8,1.213-1.31.335-.389.668-.778.976-1.186a7.952,7.952,0,0,0,.6-.944c.09-.158.177-.316.282-.475s.21-.281.32-.419a7.331,7.331,0,0,0,.66-.921c.193-.336.36-.688.527-1.039l.214-.45c.081-.161.169-.319.258-.477a10.27,10.27,0,0,0,.509-1c.161-.384.3-.781.431-1.177l.273-.779c.143-.391.284-.785.4-1.186a10.845,10.845,0,0,0,.23-1.112c.029-.174.059-.351.095-.524s.087-.349.137-.523a8.954,8.954,0,0,0,.254-1.1,9.836,9.836,0,0,0,.082-1.116c.006-.181.012-.365.027-.549.044-.534.056-1.072.068-1.661,0-.179.016-.359.028-.539a10.363,10.363,0,0,0,.029-1.129,6.747,6.747,0,0,0-.172-1.134,4.835,4.835,0,0,1-.1-.513l-.042-.527c-.007-.1-.024-.2-.031-.3.373-.055.681-.1.988-.138.673-.092,1.348-.183,2.69-.411,1.358-.23,2.03-.382,2.7-.533.63-.14,1.259-.283,2.529-.5,1.322-.225,1.982-.344,2.643-.462s1.3-.235,2.61-.457c1.359-.231,2.033-.383,2.707-.535.631-.14,1.261-.282,2.535-.5l3.519-.6A50.228,50.228,0,0,1,158.649,1604.441Zm-18.232-67.732c0,.483.682.55.939.17,1.565-1.548,3.377-2.8,5-4.313a4.123,4.123,0,0,1,2.292,1.427c-.684,1.956-2.031,3.792-2.47,5.79,1,1.347,1.949-1.706,2.391-2.492a73.876,73.876,0,0,0,3.737-8.851c1.9-5.519-1.6-1.56-3.421.193-2.4,1.947-4.62,4.143-6.994,6.135C141.259,1535.3,140.335,1535.748,140.417,1536.709Zm8.522-6.529a17.556,17.556,0,0,1,1.842-1.7.375.375,0,0,1,.029.391,22.087,22.087,0,0,1-1.5,3.579c-.566.133-1.049-.525-1.56-.719C147.22,1531.245,148.66,1530.61,148.939,1530.18Zm2.991,15.153c.158.225.394.524.727.312.87-.574,1.812-1,2.719-1.493a48.746,48.746,0,0,1,6.181-3.156c-2.305,2.731-4.8,5.407-7.188,8.082-.289.541.325.847.822.835.791-.531,1.728-.887,2.6-1.391,3.415-2.028,7.432-2.916,10.573-5.42.131-1.025-.83-.88-1.458-.372-2.7,1.416-5.54,2.566-8.276,3.9-.447-.571,3.71-4.1,4.213-5.1.49-1.06,2.852-2.67,2.379-3.706-.536-.849-1.752.6-2.551.808C161.141,1540.094,151.391,1543.986,151.93,1545.333Zm-3.4-5.126c-.539,1.708.629,4.432,2.753,3.46,2.122-.855,3.588-2.762,4.85-4.585.377-.611-1.328-2.177-1.9-1.942-.5.462.04,1.029.342,1.387.548.772-3.417,4.386-4.362,4.167-2.684-1.921,5.261-9.839,7.371-10.448.978-.428,1.662.7,1.586,1.55.019.62-.508,1.86.412,1.961a.5.5,0,0,0,.471-.491c0-.973.672-1.96.03-2.841a2.562,2.562,0,0,0-2.343-1.431C154.856,1531.326,149.473,1537.532,148.532,1540.207Zm-56.48,19.177c5.256.986,10.107-2.291,2.986-5.372-2.492-1.281-12-3.2-12.732.851C82.485,1558.073,89.388,1559.251,92.052,1559.384Zm-7.608-5.327a15.161,15.161,0,0,1,6.949-.027c1.542.461,5.907,1.463,6.063,3.385-2.144,2.158-12.4.286-14-2.2C83.734,1554.79,83.959,1554.228,84.444,1554.057Zm21.433,36.167c.553-1.742-.616-4.539-2.77-3.564-2.151.857-3.644,2.795-4.93,4.649-.384.621,1.334,2.238,1.91,2,.508-.469-.036-1.053-.34-1.422-.551-.8,3.478-4.458,4.434-4.224,2.707,1.988-5.37,10.019-7.508,10.623-.992.429-1.678-.728-1.6-1.6-.016-.634.523-1.9-.407-2.009a.5.5,0,0,0-.479.5c-.006.995-.689,2-.044,2.906a2.6,2.6,0,0,0,2.365,1.484C99.436,1599.253,104.912,1592.952,105.877,1590.224Zm19.975,9.263c-.48,2.372-.426,4.97-1.048,7.247-.788-2.525-.985-5.371-1.605-8-.286-.743.038-2.1-1.171-1.907-1.76,3.536-2.738,7.537-4.587,11.062-.28-3.825.6-8.055.577-12.007a.452.452,0,0,0-.809-.288c-.7.96-.173,2.278-.538,3.379-.178,3.546-.695,7.1-.581,10.662,1.127,4.024,1.994.049,2.669-1.623a70.7,70.7,0,0,0,2.8-7.34c.169-.359.15-1.042.594-1.131.924,4.009,1.408,8.19,2.517,12.167,0,.183.271.4.453.419.955-.113.485-1.542.668-2.225.157-4.438,1.32-8.809,1.261-13.238C125.753,1596.589,126.161,1598.631,125.852,1599.487Zm-10.369-5.093c-.988-.381-1.971,6.085-2.682,7.039-5.155-1.526-8.29,6.461-2.654,7.879.512.116,1.268.3,1.529-.381.812-2.251,1.477-4.558,2.357-6.783C114.125,1600.981,116.954,1594.358,115.483,1594.394Zm-4.826,13.785c-2.46-.315-2.813-2.377-1.446-4.472a3.2,3.2,0,0,1,3.171-1.124A47.257,47.257,0,0,1,110.657,1608.179Zm23.666-12.429c-.629.632-.193,1.6-.34,2.4-.592,3.731.846,4.644-2.814,4.4-.788-.541-2.03-6.407-2.789-5.858-.934.975.334,2.4.55,3.47.855,2.744,2,5.379,3,8.072.244.7,1.274,4.843,2.267,3.066.123-1.348.175-2.71.3-4.059C134.231,1606.122,136.094,1594.157,134.323,1595.75Zm-1.062,12.5a25.4,25.4,0,0,1-1.647-4.394,6.92,6.92,0,0,1,1.866-.057A25.948,25.948,0,0,1,133.261,1608.252Zm-19.188-14.378c0-.494-.687-.569-.949-.182-1.591,1.569-3.431,2.835-5.083,4.368a4.19,4.19,0,0,1-2.313-1.48c.7-1.995,2.073-3.862,2.526-5.9-1.009-1.387-1.98,1.727-2.431,2.528a75.615,75.615,0,0,0-3.823,9.022c-1.948,5.628,1.614,1.609,3.462-.167,2.434-1.971,4.695-4.2,7.107-6.216C113.215,1595.311,114.151,1594.857,114.073,1593.874Zm-8.655,6.6a17.563,17.563,0,0,1-1.872,1.719.385.385,0,0,1-.027-.4,22.644,22.644,0,0,1,1.531-3.649c.574-.13,1.059.547,1.575.75C107.163,1599.4,105.7,1600.04,105.418,1600.478Zm64.669-36.234c-3.525,1.239-7.16,2.074-10.646,3.487-.594.276-1.787.234-1.76,1.212.092,1,2.151.688,2.872.912,3.445.273,6.807,1.127,10.205,1.731.855,0,1.83.418,2.636.036a.488.488,0,0,0-.08-.831c-3.293-.334-6.5-1.3-9.78-1.719-.84-.1-1.657-.358-2.507-.379a.205.205,0,0,1-.219-.174,17.835,17.835,0,0,1,4.717-1.7c2.428-.6,4.815-1.452,7.207-2.173.294-.2.359-.478.038-.783C171.947,1563.552,170.957,1564.181,170.087,1564.244Zm-82.232,17.994c2.863-.487,5.546-1.641,8.379-2.256.969-.36,3.118-.366,2.836-1.81-.187-.768-.585-1.464-.74-2.243-.081-.715-.581-1.483-1.411-1.1-.132,1.2.824,2.288.792,3.458-.99.434-2.117.491-3.133.88-.666-.117-1.82.941-2.127.177-.327-.646-.129-1.92-1.068-2.019a.89.89,0,0,0-.575.065c-.414.52,1.044,2.632.273,2.769-2.014.5-4.031,1.086-6.061,1.43-.825-.914.1-3.2-1.631-3.176a4.817,4.817,0,0,0,1,4.386C84.819,1583.563,86.984,1582.187,87.855,1582.238Zm14.607,2.713c-.159-.232-.4-.54-.734-.326-.883.579-1.838,1-2.759,1.5a48.639,48.639,0,0,1-6.27,3.174c2.346-2.773,4.88-5.489,7.312-8.2.295-.551-.325-.869-.828-.861-.8.535-1.753.892-2.638,1.4-3.465,2.044-7.534,2.918-10.724,5.452-.138,1.047.836.907,1.474.393,2.736-1.425,5.618-2.576,8.392-3.913.45.588-3.773,4.167-4.287,5.179-.5,1.08-2.9,2.707-2.425,3.77.539.874,1.776-.6,2.586-.8C93.116,1590.229,103,1586.333,102.462,1584.951Zm54.081,10.082c-2.183-1.66-5.279-1.342-7.5-2.932-.573-.451-1.332-1.053-1.307-1.851.355-1.571,1.674-1.821,2.783-.754.418.325,1.114-.1.871-.61a2.492,2.492,0,0,0-2.911-1.151c-1.189.6-2.673,2.033-1.772,3.454,1.383,3.235,5.308,3.069,8.074,4.353,2.736.559,4.279,6.031.261,4.128-.262-.3-.638-.5-.987-.209-.544.428.115,1.082.548,1.312a2.934,2.934,0,0,0,3.068.075C159.776,1599.455,158.313,1596.132,156.543,1595.033ZM85.2,1566.147c3.477-1.241,7.065-2.088,10.5-3.5.586-.275,1.765-.244,1.734-1.2-.1-.98-2.129-.654-2.842-.866-3.4-.239-6.732-1.045-10.092-1.606-.845.005-1.81-.394-2.6-.013a.473.473,0,0,0,.082.811c3.256.3,6.43,1.215,9.672,1.6.83.086,1.638.335,2.479.348a.2.2,0,0,1,.217.169,17.853,17.853,0,0,1-4.654,1.7c-2.4.609-4.75,1.461-7.111,2.186-.29.195-.352.47-.034.765C83.368,1566.839,84.343,1566.216,85.2,1566.147Zm78.8,23.016c-2.6-1.679-5.144-3.407-7.738-5.089-1.027-.3-2.543-2.183-3.46-1.882-1.539,1.021,4.032,3.239,4.61,4.115-1.249.313-2.763-.039-4.089-.059-.985.107-3.357-.787-3.67.412.544,1.04,7.007.885,8.488,1.071.876.179,1.023,2.006,1.508,2.733.619,1.058,1.455,4.71,2.706,4.751,1.311-.408-.289-1.706-.46-2.47-.647-1.408-1.177-2.865-1.744-4.306a.2.2,0,0,1,.088-.283c1.643.927,3.157,2.08,4.723,3.132a.587.587,0,0,0,.777-.226C166.077,1590.288,164.476,1589.663,164,1589.163Zm-21.81,4.207c-.426.5.35,2.812,1.049,1.84a1.465,1.465,0,0,0,.043-.849c-.23-1.007.857-1.51,1.736-.957,2.4,1.565,7.824,8.33,5.889,10.868-.624,1.155-1.754.8-2.864.474-1.073.266.449,1.116.951,1.227a2.826,2.826,0,0,0,3.469-2.529c.233-3.446-3.163-7.3-5.483-9.924C145.808,1592.052,142.819,1591.185,142.193,1593.37Zm15.115-16.655c-1.094-.777-2.205.889-2.4,1.853-.126,1.077-.784,1.91-.84,3.009,1.188,1.764,1.753-2.872,2.3-3.539.5-.638,1.981.453,2.688.556,2.883,1.1,4.631,1.657,7.475,2.854.823.248,3.113,1.619,3.648.657a.646.646,0,0,0-.273-.708C165.258,1579.855,161.963,1578.252,157.308,1576.715Zm5.816-5.613c-5.315-1.054-10.239,2.255-3.047,5.469,2.516,1.333,12.132,3.381,12.888-.758C172.8,1572.527,165.819,1571.262,163.124,1571.1Zm7.674,5.516a15.163,15.163,0,0,1-7.032-.033c-1.559-.485-5.972-1.549-6.121-3.516,2.181-2.189,12.549-.184,14.161,2.377C171.52,1575.875,171.29,1576.447,170.8,1576.618Zm-29.041,19.844c-.4-.751-.3-2.321-1.242-2.51-1.267.058,1.408,6.018,1.455,7.249-1.066.549-2.307.275-3.345.929-.791-2.167-1.235-4.543-2.06-6.726-.176-.441-.809-.164-.821.23.043,1.844.992,3.572,1.281,5.4.637,2.344,1.542,4.605,2.077,6.98.29.754.226,1.909.916,2.385,1.551.665-.9-5.75-.882-6.623.8-1.042,2.035-.769,3.175-1.183.887,2.026.953,4.4,2.266,6.148.7.46.794-.528.532-.992C143.741,1604.061,142.951,1600.2,141.757,1596.462Z" fill="#0d0213"/></g></svg>