<svg xmlns="http://www.w3.org/2000/svg" width="119.255" height="119.255" viewBox="0 0 119.255 119.255"><g transform="translate(-51.307 -3436.841)"><circle cx="59.628" cy="59.628" r="59.628" transform="translate(51.307 3436.841)" fill="#f1dfda"/><path d="M119.382,3461.673c-.078-3.5.18-7.046-.189-10.54-1.411-3.876-1.988.1-2.538,1.8a69.454,69.454,0,0,0-2.259,7.442c-.143.365-.074,1.037-.509,1.158-1.209-3.875-1.99-7.954-3.38-11.785-.011-.18-.3-.376-.481-.377-.942.185-.372,1.555-.5,2.242.163,4.381-.68,8.773-.3,13.128,1.3-.021.745-2,.991-2.867.307-2.372.067-4.925.522-7.214.966,2.424,1.366,5.211,2.172,7.747.338.71.113,2.073,1.3,1.788,1.5-3.616,2.182-7.63,3.767-11.241.554,3.744-.012,7.975.291,11.864a.45.45,0,0,0,.825.221C119.714,3464.042,119.1,3462.785,119.382,3461.673Zm30.052,9.064c-2.619,1.612-5.4,2.966-8.068,4.495-.49-.544,3.454-4.391,3.893-5.427.42-1.1,2.688-2.887,2.141-3.9-.6-.818-1.724.73-2.515.99-1.44,1.581-10.994,6.175-10.358,7.494.175.216.433.5.753.264.837-.638,1.757-1.128,2.637-1.691a49.136,49.136,0,0,1,6.01-3.605c-2.135,2.91-4.46,5.778-6.685,8.637-.254.565.386.83.886.784.761-.589,1.679-1.013,2.523-1.58,3.3-2.279,7.286-3.451,10.278-6.189C150.99,3469.969,150.032,3470.181,149.434,3470.737Zm-84.39,18.057c.4,3.222,7.437,3.932,10.13,3.882,5.363.631,10.024-3,2.638-5.617C75.212,3485.94,65.5,3484.661,65.044,3488.794Zm9.1-1.467c1.585.359,6.052,1.067,6.342,2.993-2.012,2.322-12.471,1.143-14.259-1.254.253-.445.441-1.026.919-1.232A15.323,15.323,0,0,1,74.141,3487.327Zm3.094-13.977c-.693-1-1.786-4.526-3.034-4.471-1.275.5.411,1.658.635,2.4.745,1.337,1.377,2.73,2.045,4.106a.193.193,0,0,1-.067.285c-1.7-.787-3.291-1.806-4.924-2.721a.591.591,0,0,0-.757.282c-.277.788,1.36,1.28,1.866,1.736,2.709,1.453,5.363,2.96,8.065,4.416,1.044.22,2.687,1.954,3.577,1.588,1.458-1.123-4.244-2.879-4.882-3.7a17,17,0,0,1,4.072-.255c.973-.182,3.4.517,3.622-.687-.616-.983-7.035-.334-8.521-.4C78.047,3475.815,77.769,3474.028,77.235,3473.35Zm-12.176,20.413c3.3.076,6.56.781,9.853.944.843.029,1.674.225,2.521.18a.2.2,0,0,1,.231.155,18.012,18.012,0,0,1-4.571,2.031c-2.372.78-4.685,1.8-7.013,2.693-.279.217-.323.5.018.773.841.246,1.781-.448,2.642-.577,3.418-1.491,6.974-2.592,10.34-4.249.571-.318,1.761-.368,1.664-1.329-.164-.98-2.19-.512-2.923-.677-3.446-.005-6.853-.588-10.277-.922-.851.063-1.85-.271-2.625.167A.478.478,0,0,0,65.059,3493.763Zm68.685-36.416c1.532-5.691-1.722-1.461-3.433.43-2.279,2.127-4.369,4.492-6.623,6.664-.6.576-1.5,1.094-1.355,2.057.033.486.726.507.958.106,1.47-1.667,3.209-3.054,4.743-4.69a4.157,4.157,0,0,1,2.407,1.28c-.554,2.017-1.784,3.96-2.088,6,1.1,1.287,1.845-1.853,2.236-2.675A74.556,74.556,0,0,0,133.744,3457.347Zm-4.363,3.634c-.57-.458.836-1.2,1.087-1.649a17.864,17.864,0,0,1,1.739-1.836.381.381,0,0,1,.057.393A22.286,22.286,0,0,1,131,3461.6C130.441,3461.77,129.91,3461.141,129.381,3460.981Zm-34.048-8.767c-1.591-.536,1.314,5.591,1.354,6.453-.716,1.086-1.969.912-3.073,1.407-1.029-1.926-1.265-4.259-2.7-5.878-.731-.4-.752.581-.458,1.017,1.627,3.531,2.69,7.266,4.147,10.86.45.708.47,2.261,1.417,2.375,1.256-.154-1.835-5.816-1.97-7.024,1.021-.622,2.276-.448,3.261-1.172.943,2.073,1.556,4.378,2.534,6.464.207.421.816.1.8-.29-.175-1.811-1.243-3.44-1.663-5.222-.8-2.259-1.865-4.415-2.568-6.712C96.073,3453.772,96.054,3452.629,95.333,3452.214Zm8.2,1.512c-.292-.666-1.615-4.67-2.475-2.844-.026,1.336.02,2.681-.011,4.019.347,1.085-.646,13.007,1,11.3.58-.67.077-1.587.165-2.391.321-3.718-1.175-4.507,2.483-4.549.823.473,2.481,6.151,3.2,5.553.859-1.031-.505-2.338-.8-3.374C106.052,3458.806,104.72,3456.3,103.537,3453.726Zm-1.224,4.488a25.317,25.317,0,0,1-.1-4.4,24.825,24.825,0,0,1,1.955,4.2A7.016,7.016,0,0,1,102.313,3458.214Zm33.975,7.764c-.471.5.111,1.034.44,1.374.606.74-3.139,4.655-4.107,4.5-2.836-1.75,4.622-10.275,6.705-11.034.956-.5,1.722.587,1.705,1.452.062.623-.383,1.909.55,1.947a.5.5,0,0,0,.44-.527c-.065-.98.543-2.02-.165-2.864a2.586,2.586,0,0,0-2.459-1.28c-2.888.534-7.883,7.157-8.646,9.917-.426,1.757.939,4.421,3.012,3.3,2.078-1.008,3.423-3.03,4.569-4.954C138.67,3467.162,136.844,3465.7,136.288,3465.978Zm-57.832-3c-1.992,1.533-.3,4.692,1.543,5.639,2.291,1.466,5.348.916,7.67,2.311.6.4,1.4.934,1.433,1.722-.241,1.573-1.535,1.921-2.714.955-.44-.288-1.1.184-.823.667a2.487,2.487,0,0,0,2.979.91c1.139-.686,2.512-2.206,1.514-3.536-1.608-3.078-5.5-2.614-8.345-3.666-2.762-.34-4.691-5.609-.557-4.043.282.274.671.44,1,.129.51-.462-.192-1.056-.64-1.249A2.951,2.951,0,0,0,78.456,3462.975ZM125.129,3451c-.518-.075-1.283-.2-1.494.492-.646,2.279-1.141,4.6-1.857,6.859-.008,1.156-2.346,7.892-.885,7.745,1.011.3,1.523-6.142,2.162-7.136C128.294,3460.065,130.838,3451.962,125.129,3451Zm-.426,1.155c2.47.122,2.969,2.125,1.76,4.292a3.228,3.228,0,0,1-3.074,1.349A46.4,46.4,0,0,1,124.7,3452.153Zm16.067,31.781c.045-1.186-.985-2.189-1.037-3.344.953-.5,2.071-.645,3.054-1.106.671.065,1.743-1.066,2.1-.337.372.611.266,1.88,1.207,1.905a.9.9,0,0,0,.568-.108c.375-.543-1.228-2.51-.471-2.7,1.967-.65,3.932-1.378,5.927-1.873.887.836.134,3.161,1.852,3a4.709,4.709,0,0,0-1.314-4.24c-.481-.723-2.535.8-3.406.813-2.813.7-5.4,2.042-8.172,2.864-.939.429-3.076.6-2.692,2,.241.742.687,1.4.9,2.152C139.419,3483.654,139.971,3484.371,140.77,3483.934ZM83.45,3460.02c.017,3.411,3.672,6.949,6.169,9.349,1.274,1.355,4.31,1.979,4.776-.219.388-.529-.551-2.742-1.176-1.731a1.428,1.428,0,0,0,.018.839c.3.973-.744,1.552-1.658,1.075-2.5-1.356-8.383-7.6-6.641-10.247.539-1.185,1.688-.919,2.816-.687,1.048-.343-.527-1.063-1.035-1.134A2.827,2.827,0,0,0,83.45,3460.02ZM81.4,3485.33c-.449.666-2-.294-2.715-.341-2.946-.86-4.725-1.277-7.641-2.236-.837-.181-3.214-1.355-3.676-.367a.631.631,0,0,0,.322.676c4.735,1.161,8.128,2.487,12.87,3.643,1.145.681,2.13-1.044,2.251-2.008.048-1.07.643-1.941.62-3.027C82.118,3480.025,81.889,3484.632,81.4,3485.33Z" fill="#0d0213"/><path d="M102.706,3530.865c.065,3.584-.21,7.2.15,10.78,1.413,3.977,2.012-.087,2.577-1.818a71.365,71.365,0,0,0,2.316-7.588c.145-.373.078-1.06.519-1.18,1.208,3.974,1.984,8.154,3.375,12.084.011.184.3.388.486.391.954-.181.382-1.587.519-2.288-.148-4.482.723-8.966.357-13.424-1.315.01-.762,2.04-1.014,2.923-.32,2.423-.087,5.037-.557,7.373-.968-2.488-1.362-5.342-2.168-7.944-.34-.729-.106-2.12-1.311-1.84-1.529,3.683-2.239,7.782-3.858,11.46-.547-3.835.043-8.155-.247-12.136a.456.456,0,0,0-.835-.234C102.379,3528.439,103,3529.73,102.706,3530.865Zm-30.387-9.555c2.658-1.623,5.482-2.983,8.185-4.52.494.561-3.513,4.458-3.962,5.512-.43,1.123-2.733,2.927-2.183,3.966.6.843,1.748-.729,2.55-.988,1.464-1.6,11.154-6.21,10.516-7.566-.177-.222-.437-.516-.762-.277-.85.645-1.784,1.137-2.676,1.705a49.215,49.215,0,0,1-6.1,3.629c2.172-2.955,4.537-5.866,6.8-8.769.26-.575-.387-.853-.893-.81-.772.6-1.7,1.02-2.561,1.592-3.35,2.3-7.389,3.459-10.428,6.232C70.741,3522.081,71.712,3521.873,72.319,3521.31Zm85.5-17.664c-.394-3.3-7.513-4.091-10.239-4.067-5.427-.7-10.159,2.978-2.692,5.72C147.515,3506.468,157.344,3507.868,157.82,3503.646Zm-9.214,1.413c-1.6-.381-6.123-1.148-6.409-3.12,2.046-2.355,12.629-1.051,14.43,1.418-.258.452-.451,1.045-.935,1.251A15.319,15.319,0,0,1,148.606,3505.059Zm-3.187,14.265c.7,1.024,1.79,4.645,3.054,4.6,1.292-.5-.41-1.7-.634-2.457-.749-1.375-1.383-2.8-2.054-4.218a.2.2,0,0,1,.069-.292c1.719.822,3.324,1.879,4.974,2.83a.592.592,0,0,0,.767-.282c.284-.8-1.372-1.321-1.882-1.792-2.737-1.512-5.417-3.078-8.147-4.593-1.056-.235-2.712-2.024-3.615-1.658-1.48,1.135,4.285,2.985,4.927,3.828-1.237.4-2.786.151-4.123.222-.985.177-3.436-.561-3.669.668.62,1.011,7.12.409,8.625.494C144.606,3516.795,144.88,3518.625,145.419,3519.324Zm12.406-20.76c-3.34-.109-6.638-.86-9.971-1.058-.853-.039-1.694-.246-2.552-.208a.21.21,0,0,1-.233-.161,18.012,18.012,0,0,1,4.636-2.034c2.4-.775,4.75-1.8,7.11-2.687.283-.219.329-.506-.016-.791-.85-.26-1.8.442-2.676.565-3.466,1.492-7.071,2.584-10.484,4.247-.58.32-1.785.359-1.69,1.343.162,1,2.215.545,2.956.72,3.489.038,6.935.666,10.4,1.04.862-.056,1.872.3,2.658-.145A.492.492,0,0,0,157.825,3498.564ZM88.15,3535.153c-1.573,5.8,1.738,1.51,3.477-.408,2.316-2.153,4.44-4.552,6.731-6.751.613-.584,1.525-1.106,1.379-2.091-.031-.5-.732-.526-.969-.118-1.495,1.691-3.26,3.093-4.82,4.751a4.233,4.233,0,0,1-2.432-1.331c.569-2.058,1.822-4.033,2.138-6.12-1.112-1.327-1.875,1.877-2.274,2.715A76.276,76.276,0,0,0,88.15,3535.153Zm4.43-3.675c.577.473-.85,1.214-1.106,1.675a17.893,17.893,0,0,1-1.768,1.861.389.389,0,0,1-.055-.4,22.859,22.859,0,0,1,1.291-3.781C91.511,3530.66,92.046,3531.309,92.58,3531.478Zm34.434,9.288c1.609.564-1.308-5.73-1.345-6.611.73-1.1,2-.915,3.116-1.41,1.035,1.979,1.264,4.367,2.708,6.037.738.415.763-.587.468-1.036-1.634-3.627-2.7-7.456-4.156-11.145-.453-.729-.467-2.317-1.425-2.443-1.272.146,1.834,5.966,1.966,7.2-1.036.627-2.3.437-3.306,1.168-.947-2.129-1.558-4.492-2.539-6.635-.208-.432-.827-.109-.811.289.171,1.854,1.246,3.53,1.663,5.356.8,2.318,1.871,4.533,2.574,6.889C126.271,3539.166,126.286,3540.335,127.014,3540.766Zm-8.3-1.624c.293.685,1.617,4.791,2.5,2.932.031-1.365-.011-2.741.027-4.109-.348-1.113.7-13.3-.97-11.568-.59.68-.085,1.622-.177,2.444-.34,3.8,1.172,4.62-2.531,4.628-.832-.492-2.488-6.314-3.214-5.71-.874,1.047.5,2.4.793,3.458C116.189,3533.923,117.527,3536.5,118.715,3539.142Zm1.257-4.577a26.265,26.265,0,0,1,.087,4.5,25.643,25.643,0,0,1-1.962-4.313A6.938,6.938,0,0,1,119.972,3534.565ZM85.608,3526.3c.479-.506-.108-1.058-.44-1.409-.61-.762,3.2-4.73,4.175-4.561,2.865,1.816-4.718,10.463-6.831,11.22-.969.5-1.741-.618-1.719-1.5-.061-.638.4-1.948-.55-2a.505.505,0,0,0-.448.535c.063,1-.556,2.061.156,2.93a2.628,2.628,0,0,0,2.485,1.333c2.926-.519,8.008-7.244,8.792-10.06.437-1.793-.933-4.53-3.036-3.4-2.108,1.011-3.478,3.066-4.646,5.023C83.2,3525.068,85.044,3526.578,85.608,3526.3Zm58.534,3.621c2.022-1.549.319-4.8-1.54-5.781-2.314-1.521-5.411-.987-7.756-2.436-.607-.415-1.414-.968-1.443-1.774.249-1.608,1.56-1.95,2.751-.952.443.3,1.115-.178.835-.674a2.513,2.513,0,0,0-3.011-.959c-1.156.691-2.553,2.232-1.547,3.6,1.616,3.163,5.559,2.725,8.433,3.828,2.795.374,4.727,5.781.548,4.14-.284-.282-.677-.456-1.008-.142-.519.469.19,1.082.643,1.284A2.961,2.961,0,0,0,144.142,3529.922Zm-47.3,11.8c.524.082,1.3.216,1.515-.488.662-2.325,1.173-4.7,1.906-7,.013-1.181,2.406-8.049.926-7.911-1.022-.316-1.566,6.266-2.216,7.276C93.678,3532.424,91.071,3540.687,96.846,3541.726Zm.436-1.176c-2.5-.148-3-2.2-1.765-4.406a3.236,3.236,0,0,1,3.117-1.35A47.763,47.763,0,0,1,97.282,3540.55ZM81.142,3507.9c-.051,1.213.988,2.248,1.037,3.429-.968.506-2.1.64-3.1,1.1-.68-.073-1.769,1.073-2.13.325-.375-.629-.263-1.926-1.216-1.961a.9.9,0,0,0-.575.106c-.381.552,1.233,2.579.466,2.77-1.994.646-3.986,1.372-6.007,1.858-.894-.863-.123-3.233-1.863-3.086a4.867,4.867,0,0,0,1.314,4.349c.483.744,2.569-.791,3.45-.8,2.851-.689,5.474-2.036,8.285-2.851.952-.43,3.116-.583,2.733-2.019-.242-.76-.69-1.434-.9-2.208C82.508,3508.2,81.952,3507.457,81.142,3507.9Zm57.933,25c0-3.487-3.69-7.14-6.208-9.619-1.286-1.4-4.356-2.065-4.836.179-.4.537.546,2.809,1.183,1.782a1.479,1.479,0,0,0-.015-.859c-.3-1,.759-1.58,1.682-1.083,2.525,1.41,8.457,7.852,6.683,10.542-.549,1.207-1.712.923-2.853.675-1.062.341.53,1.093,1.043,1.17A2.854,2.854,0,0,0,139.075,3532.9Zm2.178-25.863c.458-.677,2.028.32,2.747.375,2.979.908,4.779,1.35,7.726,2.359.847.193,3.249,1.416,3.721.41a.652.652,0,0,0-.324-.694c-4.789-1.233-8.219-2.62-13.014-3.848-1.156-.707-2.16,1.047-2.287,2.032-.052,1.094-.658,1.979-.639,3.089C140.5,3512.452,140.752,3507.742,141.253,3507.033Z" fill="#0d0213"/><path d="M126.025,3548.566c-.42.1-.843.19-1.269.277-.389.078-.777.158-1.162.251l-.935.234c-.783.2-1.57.4-2.364.539a12.323,12.323,0,0,1-2.12.146c-.426.006-.85.007-1.268.054-1.124.127-2.238.2-3.359.261a10.837,10.837,0,0,0-1.278.166,11.614,11.614,0,0,1-2.1.215c-1.132-.015-2.268-.081-3.39-.168l-.857-.059c-.846-.057-1.692-.115-2.523-.232a16.912,16.912,0,0,1-2.1-.474c-.4-.108-.8-.219-1.207-.3a17.238,17.238,0,0,1-2.048-.6c-.393-.135-.787-.27-1.187-.378-1.176-.324-2.21-.609-3.233-.959-.359-.122-.717-.234-1.075-.346-.717-.226-1.433-.452-2.127-.741-1.073-.444-2.1-.868-3.094-1.355a19.8,19.8,0,0,1-1.881-1.091c-.34-.215-.682-.432-1.031-.631l-.9-.5c-.686-.373-1.37-.748-2.023-1.176-.943-.617-1.884-1.237-2.787-1.913-.338-.254-.7-.48-1.058-.708a15.187,15.187,0,0,1-1.735-1.221,11.306,11.306,0,0,1-1.441-1.56,10.564,10.564,0,0,0-.839-.961c-.305-.294-.635-.563-.964-.835a14.993,14.993,0,0,1-1.565-1.424,21.363,21.363,0,0,1-1.365-1.711c-.238-.32-.475-.641-.726-.952a21.143,21.143,0,0,1-1.248-1.791c-.216-.335-.432-.673-.662-1s-.461-.629-.7-.939c-.445-.586-.887-1.173-1.275-1.8-.2-.334-.42-.66-.637-.984-.408-.615-.815-1.233-1.162-1.886a12.417,12.417,0,0,1-.779-1.957,12.248,12.248,0,0,0-.445-1.208c-.159-.351-.33-.7-.5-1.043-.326-.662-.65-1.325-.914-2.02-.144-.382-.306-.755-.468-1.13a19.548,19.548,0,0,1-.785-2.017,16.555,16.555,0,0,1-.449-2.065c-.071-.419-.142-.839-.242-1.254-.266-1.1-.48-2.2-.674-3.3-.073-.414-.172-.823-.269-1.232a17.255,17.255,0,0,1-.4-2.086,14.362,14.362,0,0,1-.04-2.123c.015-.422.03-.844.009-1.265s-.087-.852-.15-1.278a12.678,12.678,0,0,1-.19-2.1c0-.364,0-.728,0-1.091-.007-.771-.011-1.542.048-2.3a15.812,15.812,0,0,1,.35-2.1c.089-.415.18-.829.239-1.244l.135-1.05c.093-.772.188-1.545.344-2.3.166-.8.39-1.585.616-2.366l.258-.909c.3-1.087.641-2.161,1.006-3.228.248-.724.555-1.424.865-2.123.146-.332.294-.663.433-1,.154-.372.291-.755.428-1.134a19.976,19.976,0,0,1,.817-2.012c.379-.778.813-1.529,1.248-2.28l.391-.68c.556-.98,1.164-1.928,1.783-2.87s1.248-1.875,1.926-2.777c.243-.327.472-.666.7-1.007a19.09,19.09,0,0,1,1.275-1.744c.729-.858,1.483-1.711,2.267-2.521a11.7,11.7,0,0,1,1.637-1.343,10.81,10.81,0,0,0,1.012-.784c.3-.273.587-.563.876-.851a20.683,20.683,0,0,1,1.58-1.466c.6-.486,1.24-.918,1.88-1.35l.881-.6c.836-.586,1.7-1.117,2.574-1.652l.271-.166c.305-.187.607-.383.91-.58.642-.416,1.285-.832,1.966-1.192.368-.2.723-.427,1.082-.655a14.176,14.176,0,0,1,1.849-1.056c.878-.4,1.787-.74,2.7-1.083l.457-.173a16.843,16.843,0,0,1,2.033-.569c.414-.1.833-.192,1.244-.316l.923-.295a42.713,42.713,0,0,1,5.623-1.387,18.353,18.353,0,0,1,2.146-.209c.41-.023.82-.045,1.226-.091l.763-.089c.866-.106,1.728-.208,2.6-.248,1.127-.058,2.25-.052,3.373-.037,1.03.015,2.042.095,3.058.174l1.288.09c.8.048,1.6.1,2.39.21.423.06.849.086,1.274.111a14.585,14.585,0,0,1,2.106.24c1.1.227,2.207.515,3.293.813a13.563,13.563,0,0,1,1.983.756c.389.174.776.349,1.176.484.349.121.7.231,1.057.34.724.226,1.447.454,2.146.745a17.641,17.641,0,0,1,1.9.965c.363.205.726.411,1.1.593a10.862,10.862,0,0,0,1.191.465,11.394,11.394,0,0,1,1.954.825l.255.144c.9.511,1.8,1.025,2.659,1.588a12,12,0,0,1,1.629,1.356,10.887,10.887,0,0,0,.962.846l.318.239c.8.594,1.589,1.188,2.347,1.834.856.728,1.708,1.462,2.521,2.247l.641.611c.6.57,1.209,1.143,1.771,1.757.276.3.567.59.859.88a19.674,19.674,0,0,1,1.476,1.583,12.582,12.582,0,0,1,1.141,1.778,12.539,12.539,0,0,0,.666,1.1,12.307,12.307,0,0,0,.81.994,12.636,12.636,0,0,1,1.293,1.674,14.038,14.038,0,0,1,.927,1.9c.168.394.335.791.535,1.168.176.334.362.662.549.991.37.652.739,1.308,1.05,2,.3.668.541,1.367.778,2.069.125.37.25.743.387,1.108.146.384.318.764.49,1.143a16.821,16.821,0,0,1,.8,1.994c.217.7.372,1.432.524,2.163.079.38.158.757.249,1.134.173.717.274,1.442.375,2.167.054.391.106.781.174,1.167a12.456,12.456,0,0,0,.318,1.252,12.091,12.091,0,0,1,.464,2.054,19.84,19.84,0,0,1,.089,2.181c0,.405,0,.81.021,1.211.057,1.141.11,2.265.1,3.381-.006.411.009.824.023,1.235a19.469,19.469,0,0,1-.009,2.161,17.067,17.067,0,0,1-.342,2.113c-.086.411-.173.823-.231,1.236-.056.4-.1.8-.134,1.2a21.373,21.373,0,0,1-.294,2.167c-.168.811-.4,1.606-.623,2.4l-.458,1.666c-.219.832-.442,1.665-.718,2.474a19.653,19.653,0,0,1-.85,1.993c-.175.369-.35.737-.5,1.112-.138.331-.267.666-.4,1-.279.721-.559,1.439-.9,2.128a13.08,13.08,0,0,1-1.114,1.793c-.245.352-.492.7-.7,1.068s-.39.749-.573,1.131a15.9,15.9,0,0,1-1,1.862c-.578.88-1.205,1.721-1.833,2.561l-.14.187c-.676.9-1.4,1.769-2.13,2.628l-.577.686c-.53.637-1.061,1.273-1.639,1.87a15.46,15.46,0,0,1-1.6,1.4c-.33.259-.662.52-.973.8l-.5.458c-.659.609-1.319,1.214-2.023,1.78-.286.232-.569.473-.852.713-.575.49-1.152.98-1.77,1.417-.774.545-1.58,1.036-2.389,1.528l-.469.287c-.783.482-1.6.912-2.418,1.344l-.538.285c-.37.2-.725.418-1.082.637a16.374,16.374,0,0,1-1.866,1.042c-1.02.46-2.08.867-3.142,1.267l-.918.359c-.743.294-1.489.588-2.255.825C126.611,3548.418,126.319,3548.5,126.025,3548.566Zm-3.219-2.741c.422-.1.849-.189,1.275-.276.616-.128,1.23-.249,1.829-.434.678-.209,1.344-.475,2-.738l.97-.378c1-.375,1.989-.752,2.946-1.185a13.205,13.205,0,0,0,1.479-.837c.422-.259.843-.521,1.278-.749l.546-.289c.754-.4,1.505-.791,2.226-1.235l.48-.294c.745-.452,1.488-.9,2.2-1.4.533-.376,1.029-.8,1.527-1.228.306-.261.613-.522.926-.773.646-.52,1.248-1.075,1.851-1.633l.512-.47c.371-.337.763-.648,1.156-.959a12.041,12.041,0,0,0,1.266-1.091c.522-.538,1-1.112,1.474-1.686l.6-.714c.685-.807,1.364-1.617,2-2.463l.14-.185c.588-.788,1.176-1.571,1.714-2.39a12.6,12.6,0,0,0,.779-1.471c.218-.456.436-.909.686-1.345.26-.46.563-.9.867-1.329a10.621,10.621,0,0,0,.851-1.346c.294-.6.537-1.235.781-1.866.139-.358.279-.716.425-1.071.177-.425.375-.844.574-1.264a16.3,16.3,0,0,0,.706-1.645c.253-.734.45-1.489.65-2.244L160,3509.1c.2-.712.411-1.428.561-2.153a17.662,17.662,0,0,0,.241-1.819c.044-.445.088-.893.151-1.336.069-.482.168-.965.268-1.449a13.289,13.289,0,0,0,.281-1.689,15.885,15.885,0,0,0,0-1.786c-.016-.464-.031-.931-.025-1.4.015-1.046-.038-2.1-.09-3.158-.024-.464-.025-.921-.026-1.38a16.319,16.319,0,0,0-.067-1.81,9.558,9.558,0,0,0-.353-1.5,15.828,15.828,0,0,1-.4-1.6c-.076-.43-.136-.863-.195-1.3a18.326,18.326,0,0,0-.313-1.836c-.1-.409-.184-.822-.271-1.234-.131-.628-.259-1.257-.446-1.864a13.625,13.625,0,0,0-.648-1.6c-.2-.444-.4-.887-.571-1.339-.153-.405-.291-.815-.429-1.221-.2-.6-.4-1.193-.656-1.762-.268-.593-.592-1.159-.911-1.721-.2-.357-.4-.713-.6-1.075-.243-.459-.452-.942-.657-1.424a11.033,11.033,0,0,0-.7-1.457,10.071,10.071,0,0,0-.967-1.23,15.8,15.8,0,0,1-1.019-1.263,16.023,16.023,0,0,1-.848-1.385,9.794,9.794,0,0,0-.832-1.322,16,16,0,0,0-1.225-1.3c-.33-.328-.659-.656-.971-1-.5-.552-1.052-1.066-1.6-1.579l-.67-.635c-.762-.737-1.561-1.425-2.366-2.109-.7-.6-1.439-1.148-2.177-1.7l-.322-.24a15.071,15.071,0,0,1-1.255-1.093,9.213,9.213,0,0,0-1.164-.992c-.8-.521-1.642-1-2.477-1.474l-.259-.147a8.508,8.508,0,0,0-1.392-.571,13.809,13.809,0,0,1-1.566-.62c-.43-.209-.851-.446-1.272-.684a14.493,14.493,0,0,0-1.536-.789c-.606-.252-1.231-.444-1.858-.639-.384-.12-.767-.239-1.146-.37-.5-.169-.974-.38-1.453-.593a10.689,10.689,0,0,0-1.5-.586c-1.021-.28-2.052-.55-3.089-.763a11.593,11.593,0,0,0-1.635-.176c-.514-.033-1.028-.067-1.535-.138-.7-.1-1.409-.14-2.121-.184l-1.351-.093c-.943-.075-1.886-.149-2.841-.164-1.049-.015-2.1-.021-3.16.032-.791.038-1.573.134-2.361.228l-.788.093c-.469.052-.941.08-1.413.106a14.5,14.5,0,0,0-1.75.166,37.442,37.442,0,0,0-5.166,1.273l-.974.309c-.489.151-.988.265-1.482.38a12.117,12.117,0,0,0-1.6.437l-.459.173c-.843.318-1.687.635-2.5,1a11.243,11.243,0,0,0-1.42.822c-.435.279-.869.557-1.32.8-.594.314-1.152.679-1.71,1.041-.326.211-.651.422-.981.626l-.277.17c-.811.5-1.617.987-2.391,1.531-.308.218-.622.432-.936.642-.563.382-1.126.758-1.654,1.183a16.645,16.645,0,0,0-1.311,1.226c-.325.323-.649.647-.988.956a14.238,14.238,0,0,1-1.314,1.029,9.093,9.093,0,0,0-1.183.949c-.734.762-1.439,1.563-2.124,2.365a16.48,16.48,0,0,0-1.047,1.441c-.26.39-.522.775-.8,1.148-.636.847-1.228,1.719-1.806,2.6s-1.15,1.775-1.673,2.691l-.4.7c-.4.683-.792,1.364-1.137,2.073a16.333,16.333,0,0,0-.675,1.678c-.155.429-.311.856-.484,1.276-.149.361-.307.719-.466,1.074-.269.61-.542,1.216-.756,1.849-.343,1-.666,2-.945,3.026l-.271.957c-.2.7-.406,1.4-.554,2.11-.136.668-.216,1.347-.3,2.027-.045.373-.091.747-.144,1.118-.07.494-.175.987-.281,1.479a12.486,12.486,0,0,0-.284,1.656c-.052.663-.044,1.339-.039,2.015,0,.389.007.778,0,1.166a9.9,9.9,0,0,0,.154,1.555c.079.533.157,1.068.183,1.606.025.512.011,1.027-.007,1.542a11.307,11.307,0,0,0,.02,1.636,14.264,14.264,0,0,0,.335,1.683c.113.472.225.947.309,1.425.183,1.036.383,2.069.632,3.1.118.487.2.984.288,1.477a13.354,13.354,0,0,0,.348,1.641,16.339,16.339,0,0,0,.656,1.67c.185.424.367.848.529,1.277.224.593.5,1.157.784,1.721.188.382.375.762.549,1.148a15.51,15.51,0,0,1,.571,1.531,9.77,9.77,0,0,0,.56,1.443c.294.553.644,1.076.991,1.6.239.362.477.718.7,1.085a18.713,18.713,0,0,0,1.087,1.528c.261.342.52.685.768,1.037s.5.74.74,1.114a17.283,17.283,0,0,0,1.043,1.505c.276.343.541.7.806,1.057a18.01,18.01,0,0,0,1.147,1.446,11.79,11.79,0,0,0,1.219,1.1c.4.328.794.656,1.161,1.011a13.643,13.643,0,0,1,1.118,1.265,8.589,8.589,0,0,0,1.007,1.113,11.705,11.705,0,0,0,1.354.941c.435.276.867.552,1.275.857.848.635,1.729,1.215,2.613,1.792.578.379,1.184.708,1.79,1.037l.962.531c.395.227.779.467,1.162.71a16.357,16.357,0,0,0,1.561.912c.934.457,1.894.853,2.857,1.251.652.271,1.272.464,1.893.656.387.123.776.245,1.16.378.955.326,1.925.589,2.9.86.589.159,1.047.315,1.506.47a14.178,14.178,0,0,0,1.651.489c.472.1.939.223,1.406.352a13.924,13.924,0,0,0,1.691.389c.749.1,1.513.155,2.276.2l.893.062c1.053.084,2.116.145,3.177.159a8.854,8.854,0,0,0,1.5-.169,13.939,13.939,0,0,1,1.669-.209c1.047-.054,2.092-.124,3.149-.244a15.8,15.8,0,0,1,1.606-.074,9.794,9.794,0,0,0,1.574-.1c.707-.124,1.407-.306,2.114-.485Z" fill="#0d0213"/><path d="M118.419,3522.473c-.213.051-.428.1-.645.139l-.527.114-.448.112c-.39.1-.786.2-1.181.272a7.21,7.21,0,0,1-1.168.083c-.175,0-.35,0-.521.02-.558.063-1.111.1-1.669.128a4.372,4.372,0,0,0-.5.069,6.407,6.407,0,0,1-1.176.115c-.553-.006-1.119-.039-1.677-.082l-.409-.027c-.425-.028-.85-.059-1.267-.118a9.549,9.549,0,0,1-1.1-.246c-.179-.049-.358-.1-.537-.134a9.159,9.159,0,0,1-1.089-.316c-.172-.058-.347-.119-.523-.167-.543-.148-1.076-.3-1.6-.475l-.5-.161c-.368-.117-.735-.233-1.092-.381-.515-.214-1.03-.427-1.531-.671a10.72,10.72,0,0,1-.985-.571c-.153-.1-.306-.194-.464-.282l-.413-.229c-.351-.192-.7-.384-1.038-.6-.472-.309-.936-.616-1.385-.954-.143-.107-.3-.2-.452-.3a8.208,8.208,0,0,1-.927-.654,6.441,6.441,0,0,1-.807-.866,4.358,4.358,0,0,0-.332-.384c-.13-.124-.271-.238-.411-.355a8.4,8.4,0,0,1-.84-.768c-.257-.283-.488-.59-.716-.9l-.325-.426a10.917,10.917,0,0,1-.653-.934l-.609-.869a11.352,11.352,0,0,1-.665-.943l-.283-.436a11.5,11.5,0,0,1-.607-.988,6.966,6.966,0,0,1-.432-1.074,4.82,4.82,0,0,0-.179-.49l-.229-.478a11.248,11.248,0,0,1-.471-1.049c-.064-.167-.137-.334-.209-.5a10.418,10.418,0,0,1-.411-1.058,8.853,8.853,0,0,1-.241-1.1c-.031-.182-.061-.366-.1-.545-.133-.549-.237-1.091-.335-1.639-.033-.184-.076-.362-.118-.543a9.225,9.225,0,0,1-.213-1.1,7.992,7.992,0,0,1-.024-1.147c.006-.18.014-.359.005-.535s-.038-.349-.063-.523a7.021,7.021,0,0,1-.1-1.155v-.491c0-.4-.005-.8.026-1.193a8.427,8.427,0,0,1,.185-1.125c.038-.178.078-.354.1-.534l.062-.483c.048-.4.1-.791.179-1.18s.195-.8.309-1.191l.121-.43c.149-.543.319-1.075.5-1.6.125-.37.282-.73.441-1.088l.2-.462c.072-.171.132-.343.195-.513a10.253,10.253,0,0,1,.424-1.046c.195-.4.416-.78.637-1.165l.177-.306c.274-.482.575-.954.882-1.422s.622-.928.958-1.379c.1-.14.205-.29.305-.44a9.948,9.948,0,0,1,.679-.923c.363-.425.734-.848,1.122-1.25a6.658,6.658,0,0,1,.9-.745,4.826,4.826,0,0,0,.407-.312c.136-.125.264-.252.392-.38a10.256,10.256,0,0,1,.834-.771c.31-.25.643-.477.978-.7l.391-.265c.421-.3.86-.568,1.3-.839l.524-.331c.329-.215.659-.427,1.007-.613.161-.083.311-.183.463-.28a7.885,7.885,0,0,1,1-.565c.44-.2.892-.37,1.343-.539l.223-.083a8.5,8.5,0,0,1,1.092-.309c.177-.043.358-.079.53-.134l.43-.138a21.171,21.171,0,0,1,2.821-.694,9.553,9.553,0,0,1,1.132-.113c.182-.01.362-.02.54-.04l.377-.044c.431-.052.859-.1,1.291-.122.553-.03,1.112-.025,1.671-.018.5,0,1,.045,1.5.084l.63.044c.406.024.813.052,1.215.108.175.025.355.034.535.044a8.009,8.009,0,0,1,1.141.133c.552.114,1.1.255,1.637.4a7.646,7.646,0,0,1,1.077.407c.163.073.325.147.492.205l.469.151c.377.116.753.235,1.117.386a9.391,9.391,0,0,1,1.01.513c.159.09.317.18.479.26a4.415,4.415,0,0,0,.473.181,6.477,6.477,0,0,1,1.083.461c.571.326,1.018.581,1.445.859a6.7,6.7,0,0,1,.9.746,4.794,4.794,0,0,0,.385.342c.565.424.952.714,1.324,1.029.426.363.848.728,1.251,1.117l.3.285c.307.291.613.582.9.894.119.129.247.255.375.382a10.335,10.335,0,0,1,.781.841,7.07,7.07,0,0,1,.629.972,4.551,4.551,0,0,0,.271.452,4.9,4.9,0,0,0,.331.4,7,7,0,0,1,.708.924,7.743,7.743,0,0,1,.505,1.024c.071.168.14.336.224.493l.252.455c.191.337.38.674.54,1.027s.284.717.407,1.082l.175.5c.062.165.138.329.212.494a8.727,8.727,0,0,1,.423,1.064c.111.358.193.737.272,1.117l.113.515c.09.374.145.755.2,1.134l.077.522a4.531,4.531,0,0,0,.132.506,6.842,6.842,0,0,1,.251,1.131,10.326,10.326,0,0,1,.048,1.139c0,.182,0,.364.009.545.028.594.054,1.137.046,1.677,0,.183.005.366.011.549a10.247,10.247,0,0,1-.006,1.136,9.09,9.09,0,0,1-.18,1.127c-.038.178-.076.356-.1.535s-.043.357-.061.535a10.67,10.67,0,0,1-.155,1.136c-.085.412-.2.818-.316,1.222l-.214.777c-.11.418-.223.835-.361,1.242a10.054,10.054,0,0,1-.443,1.046c-.079.165-.157.33-.227.5l-.18.453c-.144.373-.291.744-.466,1.1a7.5,7.5,0,0,1-.6.973c-.1.146-.206.291-.293.445s-.171.327-.25.492a8.49,8.49,0,0,1-.536.994c-.284.433-.592.848-.9,1.262-.413.548-.77.979-1.13,1.4l-.263.314c-.272.326-.545.651-.841.957a8.253,8.253,0,0,1-.859.749c-.142.111-.285.222-.416.344l-.207.189c-.339.314-.679.626-1.041.918l-.388.325c-.3.255-.6.507-.922.734-.367.257-.753.494-1.142.732l-.266.166c-.427.26-.86.489-1.3.717-.329.175-.483.27-.636.365a8.57,8.57,0,0,1-1,.558c-.51.231-1.034.431-1.56.63l-.452.177c-.37.145-.743.292-1.124.41C118.732,3522.393,118.576,3522.435,118.419,3522.473Zm-1.96-3.015c.214-.052.429-.1.644-.14.268-.056.535-.109.791-.184.3-.092.588-.209.877-.324l.507-.2c.457-.173.918-.349,1.362-.549a5.4,5.4,0,0,0,.612-.35c.216-.133.432-.264.653-.382.565-.3.936-.492,1.293-.708l.269-.167c.327-.2.653-.4.964-.617.239-.168.457-.358.677-.544l.457-.38c.3-.245.585-.508.869-.771l.221-.2c.2-.178.4-.339.6-.5a5.36,5.36,0,0,0,.523-.446c.241-.25.457-.511.673-.773l.286-.341c.319-.374.635-.75.928-1.142.341-.454.61-.814.855-1.188a5.017,5.017,0,0,0,.317-.6c.114-.237.231-.474.36-.7s.3-.473.458-.705a4.168,4.168,0,0,0,.338-.527c.135-.276.242-.556.351-.839l.207-.523c.091-.218.192-.434.294-.65a6.78,6.78,0,0,0,.3-.7c.111-.329.2-.67.291-1.012l.232-.846c.093-.324.188-.649.256-.978a7.219,7.219,0,0,0,.1-.781c.022-.226.045-.452.076-.676.036-.254.087-.5.139-.754a5.478,5.478,0,0,0,.12-.7,6.884,6.884,0,0,0,0-.76c-.008-.237-.015-.474-.012-.709.006-.472-.018-.946-.04-1.42-.015-.28-.015-.514-.016-.748a7.118,7.118,0,0,0-.027-.773,3.4,3.4,0,0,0-.14-.569,8.244,8.244,0,0,1-.213-.863c-.037-.214-.068-.429-.1-.645-.037-.268-.071-.537-.135-.8l-.136-.618c-.057-.274-.112-.549-.194-.813a5.27,5.27,0,0,0-.272-.666c-.1-.232-.208-.461-.3-.7l-.215-.61c-.087-.26-.173-.521-.285-.771s-.261-.507-.4-.754l-.3-.537c-.128-.241-.239-.5-.348-.751a4.439,4.439,0,0,0-.276-.582,3.714,3.714,0,0,0-.381-.478c-.19-.22-.378-.44-.542-.673a8.563,8.563,0,0,1-.453-.739,3.829,3.829,0,0,0-.319-.516,6.854,6.854,0,0,0-.528-.559c-.166-.165-.332-.33-.49-.5-.23-.253-.479-.484-.725-.717l-.326-.311c-.352-.338-.722-.656-1.094-.972-.318-.27-.651-.518-.986-.771a8.253,8.253,0,0,1-.853-.72,3.234,3.234,0,0,0-.436-.376c-.365-.239-.753-.458-1.136-.676a3.259,3.259,0,0,0-.653-.282,7.082,7.082,0,0,1-.848-.338c-.222-.109-.437-.228-.653-.349a5.609,5.609,0,0,0-.643-.336c-.272-.112-.55-.2-.828-.282l-.56-.18c-.266-.092-.518-.2-.769-.312a3.961,3.961,0,0,0-.6-.237c-.478-.132-.956-.258-1.436-.358a4.529,4.529,0,0,0-.663-.065c-.266-.017-.533-.036-.8-.072-.318-.045-.634-.063-.952-.083l-.509-.033c-.606-.049-1.029-.085-1.457-.088-.489-.008-.973-.013-1.462.013-.361.017-.708.061-1.057.1l-.4.048c-.242.027-.482.042-.723.055a6.363,6.363,0,0,0-.742.069,16.061,16.061,0,0,0-2.361.58l-.479.152c-.254.079-.512.139-.772.2a4,4,0,0,0-.652.175l-.23.087c-.386.145-.772.287-1.145.456a4.414,4.414,0,0,0-.563.332c-.231.148-.461.293-.7.419-.258.139-.506.3-.753.46l-.489.312c-.491.3-.87.532-1.233.788l-.445.306c-.256.172-.514.342-.753.535a7.031,7.031,0,0,0-.563.527c-.165.166-.33.33-.5.486a7.834,7.834,0,0,1-.711.561,3.145,3.145,0,0,0-.448.351c-.339.352-.666.724-.984,1.095a7.155,7.155,0,0,0-.445.619c-.131.193-.263.387-.4.576-.3.394-.571.8-.838,1.209s-.531.817-.773,1.242l-.191.33c-.182.314-.365.628-.524.953a7.35,7.35,0,0,0-.284.712c-.08.222-.16.444-.251.659l-.231.536c-.119.267-.239.535-.333.812-.16.464-.31.928-.439,1.4l-.136.479c-.089.31-.181.62-.246.94-.062.3-.1.6-.133.9l-.071.551c-.036.256-.09.512-.146.769a5.157,5.157,0,0,0-.119.679c-.024.3-.019.6-.016.9v.569a3.72,3.72,0,0,0,.065.613c.042.282.081.566.1.848s.007.541,0,.811a4.45,4.45,0,0,0,0,.663,5.781,5.781,0,0,0,.142.7c.058.245.115.49.159.736.084.478.176.955.292,1.436.061.253.106.51.15.766a5.21,5.21,0,0,0,.141.677,6.805,6.805,0,0,0,.281.709c.094.218.188.434.27.655.1.258.22.5.341.744.1.194.19.387.279.584a8.435,8.435,0,0,1,.305.816,3.518,3.518,0,0,0,.21.555c.132.247.286.475.438.7l.348.538c.145.235.311.45.475.665.131.173.262.344.386.521s.253.374.375.563a7.02,7.02,0,0,0,.447.648c.14.176.273.353.4.531a7.844,7.844,0,0,0,.5.632,4.8,4.8,0,0,0,.5.443c.207.17.414.343.606.529a7.517,7.517,0,0,1,.609.686,2.987,2.987,0,0,0,.372.419,4.651,4.651,0,0,0,.548.377c.229.145.456.291.67.451.393.295.8.561,1.211.831.257.168.531.316.8.464l.467.259c.2.115.4.239.6.362a7.3,7.3,0,0,0,.665.392c.436.21.889.4,1.343.586.266.109.54.194.812.279l.582.188c.457.156.927.283,1.4.414.237.065.476.144.715.224a5.722,5.722,0,0,0,.688.208c.243.049.491.116.74.182a5.513,5.513,0,0,0,.692.164c.331.046.674.067,1.014.088l.448.032c.488.04.977.068,1.465.072a3.059,3.059,0,0,0,.569-.067,7.055,7.055,0,0,1,.9-.111c.489-.024.969-.058,1.457-.113a8.459,8.459,0,0,1,.859-.041,3.491,3.491,0,0,0,.613-.033c.314-.053.626-.135.938-.217Z" fill="#0d0213"/><path d="M71.224,3507.446c-1.332.321-2,.463-2.674.6-.647.138-1.3.274-2.581.584l-5.24,1.248a1.681,1.681,0,0,1-.788-3.268l5.24-1.248c1.333-.322,2-.463,2.675-.6.647-.138,1.294-.274,2.58-.584a14.952,14.952,0,0,0,2.348-.746,17.965,17.965,0,0,1,2.8-.892c1.32-.318,1.981-.471,2.642-.623s1.307-.3,2.611-.619c1.377-.332,2.079-.443,2.782-.551.635-.1,1.27-.2,2.515-.5a1.681,1.681,0,1,1,.789,3.268c-1.378.332-2.081.443-2.783.552-.635.1-1.27.2-2.515.5-1.319.319-1.98.471-2.641.624s-1.307.3-2.611.618a14.832,14.832,0,0,0-2.348.747A18.086,18.086,0,0,1,71.224,3507.446Z" fill="#0d0213"/><path d="M140.763,3490.5c-1.336.323-2.01.46-2.682.6-.646.131-1.292.264-2.572.573a1.681,1.681,0,0,1-.788-3.269c1.336-.322,2.01-.46,2.682-.6.646-.131,1.292-.264,2.572-.573s1.889-.492,2.515-.676c.667-.2,1.333-.4,2.685-.724,1.3-.314,1.949-.477,2.6-.64s1.314-.331,2.63-.648c1.268-.306,1.893-.493,2.519-.677.668-.2,1.337-.4,2.69-.726l5.243-1.262a1.681,1.681,0,1,1,.789,3.268l-5.244,1.262c-1.268.306-1.893.493-2.519.678-.668.2-1.337.4-2.69.725-1.3.314-1.95.477-2.6.64s-1.314.331-2.63.648c-1.265.3-1.889.491-2.514.676C142.782,3489.971,142.115,3490.17,140.763,3490.5Z" fill="#0d0213"/><path d="M122.375,3501.169a5.829,5.829,0,0,1-1.871.262,6.486,6.486,0,0,1-1.868-.4,9.274,9.274,0,0,1-1.943-1.173,12.318,12.318,0,0,1-1.685-1.5c-.087-.09-.183-.17-.19-.3a2.24,2.24,0,0,1,.115-.666c.069-.286.135-.362.429-.325a5.252,5.252,0,0,1,.812.246,10.957,10.957,0,0,0,2.518.475,10.285,10.285,0,0,0,3.056-.455,11.868,11.868,0,0,0,1.174-.52,11.626,11.626,0,0,0,1.585-.618,11.331,11.331,0,0,0,1.169-.889c.244-.186.544-.3.77-.508a.952.952,0,0,1,.991-.1.612.612,0,0,1,.22.653,6.366,6.366,0,0,1-.509,1.738,6.221,6.221,0,0,1-.979,1.522,9.285,9.285,0,0,1-1.894,1.746A5.462,5.462,0,0,1,122.375,3501.169Z" fill="#0d0213"/><path d="M102.8,3506.006a5.871,5.871,0,0,1-2.1.178,6.807,6.807,0,0,1-1.976-.7,9.584,9.584,0,0,1-1.777-.969A12.072,12.072,0,0,1,95.4,3503.2a.866.866,0,0,1-.273-.474c-.027-.208.125-.4.166-.6.057-.287.154-.421.442-.388a5.43,5.43,0,0,1,.881.164,10.956,10.956,0,0,0,2.436.6,11.65,11.65,0,0,0,2.083-.241,9.332,9.332,0,0,0,2.2-.72,10.955,10.955,0,0,0,1.89-.709,13.118,13.118,0,0,0,1.46-1.4.862.862,0,0,1,1.233.2,1.027,1.027,0,0,1,.161.651,6.537,6.537,0,0,1-.678,1.823,7.669,7.669,0,0,1-1.807,2.375,7.131,7.131,0,0,1-1.756,1.2A3.619,3.619,0,0,1,102.8,3506.006Z" fill="#0d0213"/><path d="M114.7,3512.534c-.69.166-1.41.2-2.1.371s-1.35.457-2.04.624a1.36,1.36,0,0,1-1.443-.678,1.279,1.279,0,0,1,.422-1.936,3,3,0,0,1,.6-.274c.668-.161,1.357-.231,2.025-.392s1.315-.4,1.982-.565,1.34-.3,2.007-.463,1.351-.256,2.018-.418a1.382,1.382,0,0,1,1.6.571,1.306,1.306,0,0,1-.894,1.943c-.7.172-1.4.364-2.108.534S115.4,3512.364,114.7,3512.534Z" fill="#0d0213"/><path d="M93.809,3496.49a9.751,9.751,0,0,1-2.237.294,3.527,3.527,0,0,1-.745-.066.475.475,0,0,1-.331-.322.393.393,0,0,1,.107-.378,2.135,2.135,0,0,1,.687-.38,11.477,11.477,0,0,0,1.541-.791,16.95,16.95,0,0,0,2.407-1.644c.45-.389.9-.786,1.319-1.2s.742-.934,1.143-1.372c.485-.529,1.055-.984,1.511-1.537.117-.142.177-.334.325-.443.3-.217.487-.1.547.259a3.328,3.328,0,0,1-.017,1.854,11.9,11.9,0,0,1-1.289,2.147,8.466,8.466,0,0,1-2.31,2.317,7.23,7.23,0,0,1-1.3.66A9.455,9.455,0,0,1,93.809,3496.49Z" fill="#0d0213"/><path d="M126.261,3488.671a8.292,8.292,0,0,1-2.179.281,8.6,8.6,0,0,1-2.181-.484,8.731,8.731,0,0,1-2.1-.746,10.33,10.33,0,0,1-2.041-1.556,2.891,2.891,0,0,1-.707-1.385c-.086-.348.116-.556.491-.49.4.07.7.4,1.064.563.865.378,1.786.631,2.682.928a26.141,26.141,0,0,0,2.744.771,15.654,15.654,0,0,0,2.622.352,10.976,10.976,0,0,0,1.411-.114,1.882,1.882,0,0,1,.75.069c.113.037.155.119.176.246.024.146.033.266-.088.359a4.707,4.707,0,0,1-.988.552A8.817,8.817,0,0,1,126.261,3488.671Z" fill="#0d0213"/></g></svg>