<svg xmlns="http://www.w3.org/2000/svg" width="165.325" height="122.62" viewBox="0 0 165.325 122.62"><g transform="translate(-862.686 -2355.01)"><rect width="93.153" height="93.149" transform="matrix(0.949, 0.315, -0.315, 0.949, 892.05, 2355.01)" fill="#f1dfda"/><path d="M1007.674,2423.186a.1.1,0,0,1-.024,0c0,.007-.009.014-.011.021a.2.2,0,0,1,.031.019C1007.673,2423.211,1007.671,2423.2,1007.674,2423.186Z" fill="#0d0213"/><path d="M1008.612,2422.717l-.022,0c0,.01-.009.013-.014.023.012,0,.021.013.031.016S1008.608,2422.727,1008.612,2422.717Z" fill="#0d0213"/><path d="M1010.49,2421.775a.062.062,0,0,1-.024,0c0,.008-.009.014-.012.022s.02.012.031.015A.246.246,0,0,1,1010.49,2421.775Z" fill="#0d0213"/><path d="M1011.428,2421.306c-.007,0-.015,0-.023,0s-.01.014-.013.024.021.012.032.016C1011.426,2421.33,1011.425,2421.316,1011.428,2421.306Z" fill="#0d0213"/><path d="M1009.55,2422.246c-.007,0-.015,0-.023,0l-.012.021c.011,0,.019.012.031.015S1009.546,2422.258,1009.55,2422.246Z" fill="#0d0213"/><path d="M1003.92,2425.069a.082.082,0,0,0-.024,0c0,.007-.008.011-.011.018a.186.186,0,0,0,.031.019C1003.919,2425.094,1003.918,2425.08,1003.92,2425.069Z" fill="#0d0213"/><path d="M1002.983,2425.538c-.008,0-.017,0-.024,0s-.009.013-.014.023c.012,0,.021.012.033.016A.231.231,0,0,1,1002.983,2425.538Z" fill="#0d0213"/><path d="M1005.959,2426.838a.535.535,0,0,1,.076-.486.6.6,0,0,1-.371-.107.627.627,0,0,1-.14.362A.528.528,0,0,1,1005.959,2426.838Z" fill="#0d0213"/><path d="M1005.8,2424.129a.209.209,0,0,1-.024,0,.09.09,0,0,1-.012.021.218.218,0,0,0,.031.019A.3.3,0,0,1,1005.8,2424.129Z" fill="#0d0213"/><path d="M1006.735,2423.657c-.008,0-.016,0-.023,0a.146.146,0,0,1-.013.021c.012,0,.021.013.032.016S1006.732,2423.67,1006.735,2423.657Z" fill="#0d0213"/><path d="M1012.366,2420.834c-.008,0-.016,0-.023,0a.151.151,0,0,1-.013.021.186.186,0,0,1,.031.019C1012.364,2420.859,1012.363,2420.847,1012.366,2420.834Z" fill="#0d0213"/><path d="M1002.2,2428.714a.538.538,0,0,1,.078-.482.287.287,0,0,0-.511.255A.547.547,0,0,1,1002.2,2428.714Z" fill="#0d0213"/><path d="M1003.143,2428.249a.538.538,0,0,1,.077-.486.6.6,0,0,1-.372-.106.616.616,0,0,1-.139.362A.519.519,0,0,1,1003.143,2428.249Z" fill="#0d0213"/><path d="M1001.264,2429.186a.536.536,0,0,1,.079-.483.286.286,0,0,0-.509.257A.528.528,0,0,1,1001.264,2429.186Z" fill="#0d0213"/><path d="M1002.045,2426.01a.07.07,0,0,1-.025,0,.149.149,0,0,1-.011.021.131.131,0,0,1,.03.019C1002.043,2426.034,1002.04,2426.022,1002.045,2426.01Z" fill="#0d0213"/><path d="M1005.017,2427.3a.538.538,0,0,1,.077-.479.284.284,0,0,0-.507.253A.541.541,0,0,1,1005.017,2427.3Z" fill="#0d0213"/><path d="M1004.08,2427.774a.533.533,0,0,1,.077-.482.6.6,0,0,1-.371-.107.622.622,0,0,1-.138.363A.536.536,0,0,1,1004.08,2427.774Z" fill="#0d0213"/><path d="M1013.306,2420.366a.082.082,0,0,0-.026,0s-.008.012-.01.019a.223.223,0,0,1,.031.019A.287.287,0,0,1,1013.306,2420.366Z" fill="#0d0213"/><path d="M1014.243,2419.894c-.008,0-.017,0-.024,0a.091.091,0,0,1-.012.018.2.2,0,0,0,.031.019A.338.338,0,0,0,1014.243,2419.894Z" fill="#0d0213"/><path d="M1000.329,2429.661a.534.534,0,0,1,.075-.486.632.632,0,0,1-.372-.107.614.614,0,0,1-.14.362A.542.542,0,0,1,1000.329,2429.661Z" fill="#0d0213"/><path d="M1004.859,2424.6c-.008,0-.017,0-.023,0l-.013.02c.012,0,.02.012.031.016A.237.237,0,0,1,1004.859,2424.6Z" fill="#0d0213"/><path d="M959.036,2450.353a.534.534,0,0,1,.079-.482.273.273,0,0,0-.494.231l-.01.03A.533.533,0,0,1,959.036,2450.353Z" fill="#0d0213"/><path d="M959.979,2449.889a.537.537,0,0,1,.074-.486.611.611,0,0,1-.372-.108.627.627,0,0,1-.137.363A.541.541,0,0,1,959.979,2449.889Z" fill="#0d0213"/><path d="M960.914,2449.413a.537.537,0,0,1,.076-.48.6.6,0,0,1-.37-.106.606.606,0,0,1-.138.36A.536.536,0,0,1,960.914,2449.413Z" fill="#0d0213"/><path d="M961.852,2448.942a.537.537,0,0,1,.077-.48.284.284,0,0,0-.507.254A.532.532,0,0,1,961.852,2448.942Z" fill="#0d0213"/><path d="M972.173,2443.767a.6.6,0,0,1-.031-.127.527.527,0,0,1,.109-.35.614.614,0,0,1-.371-.109.584.584,0,0,1-.02.154.618.618,0,0,1-.1.18.211.211,0,0,1-.014.026.614.614,0,0,1,.171.023A.549.549,0,0,1,972.173,2443.767Z" fill="#0d0213"/><path d="M968.422,2445.65a.531.531,0,0,1,.075-.48.285.285,0,0,0-.508.253A.54.54,0,0,1,968.422,2445.65Z" fill="#0d0213"/><path d="M969.362,2445.185a.538.538,0,0,1,.075-.486.607.607,0,0,1-.371-.106.62.62,0,0,1-.136.36A.534.534,0,0,1,969.362,2445.185Z" fill="#0d0213"/><path d="M970.3,2444.708a.543.543,0,0,1,.077-.481.622.622,0,0,1-.372-.1.6.6,0,0,1-.136.36A.538.538,0,0,1,970.3,2444.708Z" fill="#0d0213"/><path d="M967.483,2446.119a.534.534,0,0,1,.078-.482.606.606,0,0,1-.372-.1.62.62,0,0,1-.136.363A.521.521,0,0,1,967.483,2446.119Z" fill="#0d0213"/><path d="M971.237,2444.239c-.006-.019-.011-.037-.016-.055a.538.538,0,0,1,.091-.426.555.555,0,0,1-.133-.019.569.569,0,0,1-.237-.087.616.616,0,0,1-.136.36A.536.536,0,0,1,971.237,2444.239Z" fill="#0d0213"/><path d="M963.727,2448a.538.538,0,0,1,.078-.474.6.6,0,0,1-.37-.107.612.612,0,0,1-.136.361A.529.529,0,0,1,963.727,2448Z" fill="#0d0213"/><path d="M962.794,2448.477a.524.524,0,0,1,.072-.484.285.285,0,0,0-.507.254A.534.534,0,0,1,962.794,2448.477Z" fill="#0d0213"/><path d="M964.667,2447.53a.534.534,0,0,1,.077-.48.624.624,0,0,1-.371-.106.608.608,0,0,1-.135.361A.543.543,0,0,1,964.667,2447.53Z" fill="#0d0213"/><path d="M966.547,2446.6a.53.53,0,0,1,.075-.486.285.285,0,0,0-.509.253A.535.535,0,0,1,966.547,2446.6Z" fill="#0d0213"/><path d="M965.606,2447.062a.532.532,0,0,1,.075-.481.6.6,0,0,1-.369-.108.622.622,0,0,1-.139.362A.536.536,0,0,1,965.606,2447.062Z" fill="#0d0213"/><path d="M1017.058,2418.483c-.007,0-.017,0-.024,0s-.009.013-.012.02a.333.333,0,0,1,.032.019C1017.057,2418.507,1017.056,2418.493,1017.058,2418.483Z" fill="#0d0213"/><path d="M967.323,2443.414a.092.092,0,0,1-.023,0c0,.007-.01.013-.012.021a.184.184,0,0,0,.03.018C967.322,2443.438,967.319,2443.426,967.323,2443.414Z" fill="#0d0213"/><path d="M968.262,2442.945c-.007,0-.017,0-.024,0l-.013.021c.012,0,.021.012.033.016S968.259,2442.955,968.262,2442.945Z" fill="#0d0213"/><path d="M969.2,2442.476c-.006,0-.014,0-.022-.005a.2.2,0,0,1-.011.022.171.171,0,0,1,.029.017A.22.22,0,0,0,969.2,2442.476Z" fill="#0d0213"/><path d="M1018,2418.012a.218.218,0,0,0-.025,0,.09.09,0,0,1-.012.021.138.138,0,0,1,.031.019A.216.216,0,0,1,1018,2418.012Z" fill="#0d0213"/><path d="M971.624,2442.476a.071.071,0,1,0-.1-.084.535.535,0,0,1-.05-.028.71.71,0,0,1-.076.18.554.554,0,0,1,.208.086A.63.63,0,0,1,971.624,2442.476Z" fill="#0d0213"/><path d="M963.571,2445.3c-.008,0-.017,0-.024,0l-.013.021c.011,0,.021.012.032.016S963.567,2445.31,963.571,2445.3Z" fill="#0d0213"/><path d="M966.385,2443.885c-.008,0-.017,0-.024,0a.182.182,0,0,0-.011.021.2.2,0,0,1,.031.019C966.384,2443.91,966.381,2443.9,966.385,2443.885Z" fill="#0d0213"/><path d="M964.509,2444.826a.065.065,0,0,1-.024,0,.245.245,0,0,0-.013.021.18.18,0,0,0,.033.019C964.508,2444.85,964.505,2444.838,964.509,2444.826Z" fill="#0d0213"/><path d="M965.447,2444.357c-.008,0-.017,0-.023,0a.146.146,0,0,0-.013.021c.011,0,.02.012.031.015A.145.145,0,0,1,965.447,2444.357Z" fill="#0d0213"/><path d="M970.138,2442c-.008,0-.017,0-.024,0s-.009.014-.011.019a.163.163,0,0,0,.03.018A.243.243,0,0,0,970.138,2442Z" fill="#0d0213"/><path d="M1018.936,2417.54a.065.065,0,0,1-.024,0,.083.083,0,0,0-.012.021c.011,0,.02.015.031.018S1018.932,2417.553,1018.936,2417.54Z" fill="#0d0213"/><path d="M1019.874,2417.072c-.008,0-.017,0-.024,0a.143.143,0,0,0-.013.021.233.233,0,0,1,.033.019C1019.872,2417.1,1019.872,2417.082,1019.874,2417.072Z" fill="#0d0213"/><path d="M971.076,2441.533c-.007,0-.016,0-.024,0s-.009.014-.011.021.019.012.031.016A.249.249,0,0,1,971.076,2441.533Z" fill="#0d0213"/><path d="M1015.344,2422.135a.542.542,0,0,1,.075-.489.608.608,0,0,1-.374-.1.6.6,0,0,1-.136.36A.54.54,0,0,1,1015.344,2422.135Z" fill="#0d0213"/><path d="M1012.526,2423.54a.542.542,0,0,1,.075-.481.619.619,0,0,1-.37-.106.606.606,0,0,1-.136.36A.532.532,0,0,1,1012.526,2423.54Z" fill="#0d0213"/><path d="M1013.463,2423.068a.538.538,0,0,1,.078-.48.6.6,0,0,1-.371-.106.616.616,0,0,1-.138.362A.538.538,0,0,1,1013.463,2423.068Z" fill="#0d0213"/><path d="M1006.9,2426.363a.53.53,0,0,1,.077-.482.632.632,0,0,1-.374-.105.607.607,0,0,1-.135.361A.534.534,0,0,1,1006.9,2426.363Z" fill="#0d0213"/><path d="M1014.4,2422.6a.527.527,0,0,1,.077-.48.606.606,0,0,1-.371-.107.627.627,0,0,1-.137.363A.54.54,0,0,1,1014.4,2422.6Z" fill="#0d0213"/><path d="M1011.586,2424.008a.529.529,0,0,1,.077-.477.619.619,0,0,1-.37-.106.612.612,0,0,1-.137.36A.533.533,0,0,1,1011.586,2424.008Z" fill="#0d0213"/><path d="M1009.713,2424.958a.539.539,0,0,1,.076-.489.6.6,0,0,1-.372-.107.611.611,0,0,1-.139.362A.54.54,0,0,1,1009.713,2424.958Z" fill="#0d0213"/><path d="M1008.775,2425.427a.542.542,0,0,1,.075-.489.586.586,0,0,1-.371-.1.621.621,0,0,1-.138.362A.535.535,0,0,1,1008.775,2425.427Z" fill="#0d0213"/><path d="M1007.832,2425.891a.538.538,0,0,1,.078-.48.6.6,0,0,1-.371-.106.611.611,0,0,1-.137.36A.531.531,0,0,1,1007.832,2425.891Z" fill="#0d0213"/><path d="M1010.648,2424.479a.538.538,0,0,1,.077-.479.629.629,0,0,1-.371-.107.6.6,0,0,1-.138.36A.536.536,0,0,1,1010.648,2424.479Z" fill="#0d0213"/><path d="M1016.121,2418.952a.062.062,0,0,1-.024,0,.146.146,0,0,1-.013.021c.011,0,.02.015.031.019A.231.231,0,0,1,1016.121,2418.952Z" fill="#0d0213"/><path d="M1016.279,2421.657a.536.536,0,0,1,.075-.478.642.642,0,0,1-.37-.106.6.6,0,0,1-.137.359A.541.541,0,0,1,1016.279,2421.657Z" fill="#0d0213"/><path d="M1021.749,2416.131c-.007,0-.015,0-.023-.005a.242.242,0,0,1-.012.024c.011,0,.02.012.031.016S1021.747,2416.142,1021.749,2416.131Z" fill="#0d0213"/><path d="M1022.333,2417.008a.71.71,0,0,1-.19-.046.622.622,0,0,1-.077.18.575.575,0,0,1,.211.084A.589.589,0,0,1,1022.333,2417.008Z" fill="#0d0213"/><path d="M1021.912,2418.84a.535.535,0,0,1,.075-.486.606.606,0,0,1-.372-.1.621.621,0,0,1-.138.36A.534.534,0,0,1,1021.912,2418.84Z" fill="#0d0213"/><path d="M1015.18,2419.425l-.022,0a.2.2,0,0,1-.012.021.181.181,0,0,1,.03.018C1015.179,2419.447,1015.177,2419.435,1015.18,2419.425Z" fill="#0d0213"/><path d="M1018.158,2420.723a.535.535,0,0,1,.073-.487.285.285,0,0,0-.507.256A.528.528,0,0,1,1018.158,2420.723Z" fill="#0d0213"/><path d="M1017.217,2421.185a.526.526,0,0,1,.079-.479.286.286,0,0,0-.51.255A.538.538,0,0,1,1017.217,2421.185Z" fill="#0d0213"/><path d="M1020.971,2419.308a.54.54,0,0,1,.075-.483.285.285,0,0,0-.508.256A.528.528,0,0,1,1020.971,2419.308Z" fill="#0d0213"/><path d="M1019.092,2420.241a.537.537,0,0,1,.078-.474.616.616,0,0,1-.369-.1.61.61,0,0,1-.137.357A.542.542,0,0,1,1019.092,2420.241Z" fill="#0d0213"/><path d="M1020.033,2419.774a.53.53,0,0,1,.076-.48.6.6,0,0,1-.37-.107.624.624,0,0,1-.136.363A.54.54,0,0,1,1020.033,2419.774Z" fill="#0d0213"/><path d="M1002.625,2426.886a.681.681,0,0,1-.187-.046.67.67,0,0,1-.076.178.639.639,0,0,1,.208.085A.585.585,0,0,1,1002.625,2426.886Z" fill="#0d0213"/><path d="M1001.687,2427.357a.612.612,0,0,1-.188-.048.715.715,0,0,1-.076.18.643.643,0,0,1,.209.086A.6.6,0,0,1,1001.687,2427.357Z" fill="#0d0213"/><path d="M999.813,2428.3a.683.683,0,0,1-.191-.047.149.149,0,1,0,.135.265A.615.615,0,0,1,999.813,2428.3Z" fill="#0d0213"/><path d="M1000.751,2427.826a.676.676,0,0,1-.19-.046.767.767,0,0,1-.075.181.535.535,0,0,1,.208.086A.619.619,0,0,1,1000.751,2427.826Z" fill="#0d0213"/><path d="M969.783,2443.35a.679.679,0,0,1-.19-.043.665.665,0,0,1-.076.177.568.568,0,0,1,.209.086A.614.614,0,0,1,969.783,2443.35Z" fill="#0d0213"/><path d="M967.906,2444.293a.7.7,0,0,1-.188-.045.148.148,0,1,0,.134.263A.575.575,0,0,1,967.906,2444.293Z" fill="#0d0213"/><path d="M968.844,2443.822a.685.685,0,0,1-.189-.046.606.606,0,0,1-.074.178.657.657,0,0,1,.208.085A.585.585,0,0,1,968.844,2443.822Z" fill="#0d0213"/><path d="M966.968,2444.762a.691.691,0,0,1-.19-.046.619.619,0,0,1-.076.18.676.676,0,0,1,.21.086A.616.616,0,0,1,966.968,2444.762Z" fill="#0d0213"/><path d="M970.72,2442.881c-.031-.005-.065,0-.1-.012-.012,0-.027,0-.041-.006s-.019-.014-.029-.018-.013-.007-.02-.009a.679.679,0,0,1-.076.177.656.656,0,0,1,.208.086A.575.575,0,0,1,970.72,2442.881Z" fill="#0d0213"/><path d="M966.03,2445.234a.711.711,0,0,1-.19-.047.669.669,0,0,1-.076.178.631.631,0,0,1,.209.086A.607.607,0,0,1,966.03,2445.234Z" fill="#0d0213"/><path d="M961.338,2447.583a.68.68,0,0,1-.187-.046.709.709,0,0,1-.078.183.574.574,0,0,1,.208.085A.617.617,0,0,1,961.338,2447.583Z" fill="#0d0213"/><path d="M960.4,2448.057a.712.712,0,0,1-.19-.047.651.651,0,0,1-.074.178.671.671,0,0,1,.209.086A.568.568,0,0,1,960.4,2448.057Z" fill="#0d0213"/><path d="M959.462,2448.526a.7.7,0,0,1-.19-.047.648.648,0,0,1-.076.181.628.628,0,0,1,.209.086A.6.6,0,0,1,959.462,2448.526Z" fill="#0d0213"/><path d="M1003.565,2426.415a.694.694,0,0,1-.19-.047.149.149,0,1,0,.134.267A.577.577,0,0,1,1003.565,2426.415Z" fill="#0d0213"/><path d="M962.276,2447.114a.722.722,0,0,1-.189-.046.675.675,0,0,1-.075.18.585.585,0,0,1,.207.086A.605.605,0,0,1,962.276,2447.114Z" fill="#0d0213"/><path d="M964.153,2446.174a.614.614,0,0,1-.188-.049.744.744,0,0,1-.077.183.539.539,0,0,1,.209.086A.584.584,0,0,1,964.153,2446.174Z" fill="#0d0213"/><path d="M963.213,2446.645a.678.678,0,0,1-.188-.046.694.694,0,0,1-.076.177.672.672,0,0,1,.209.086A.584.584,0,0,1,963.213,2446.645Z" fill="#0d0213"/><path d="M965.091,2445.7a.686.686,0,0,1-.189-.046.149.149,0,1,0,.133.266A.607.607,0,0,1,965.091,2445.7Z" fill="#0d0213"/><path d="M1018.579,2418.888a.685.685,0,0,1-.189-.046.677.677,0,0,1-.077.18.532.532,0,0,1,.209.086A.614.614,0,0,1,1018.579,2418.888Z" fill="#0d0213"/><path d="M999.228,2427.421c-.008,0-.016,0-.023,0l-.013.021a.12.12,0,0,1,.03.019C999.225,2427.445,999.224,2427.433,999.228,2427.421Z" fill="#0d0213"/><path d="M959.816,2447.18c-.008,0-.016,0-.023,0s-.009.013-.013.02.02.012.031.016A.241.241,0,0,1,959.816,2447.18Z" fill="#0d0213"/><path d="M1020.811,2416.6l-.023,0a.149.149,0,0,0-.011.021.274.274,0,0,1,.03.018C1020.81,2416.624,1020.808,2416.613,1020.811,2416.6Z" fill="#0d0213"/><path d="M1017.64,2419.359a.66.66,0,0,1-.188-.045.618.618,0,0,1-.075.177.656.656,0,0,1,.208.086A.593.593,0,0,1,1017.64,2419.359Z" fill="#0d0213"/><path d="M1021.4,2417.48a.647.647,0,0,1-.19-.049.691.691,0,0,1-.076.18.533.533,0,0,1,.209.086A.6.6,0,0,1,1021.4,2417.48Z" fill="#0d0213"/><path d="M1019.518,2418.417a.678.678,0,0,1-.188-.046.714.714,0,0,1-.077.18.671.671,0,0,1,.209.086A.607.607,0,0,1,1019.518,2418.417Z" fill="#0d0213"/><path d="M1020.456,2417.948a.685.685,0,0,1-.189-.046.672.672,0,0,1-.076.178.562.562,0,0,1,.208.088A.613.613,0,0,1,1020.456,2417.948Z" fill="#0d0213"/><path d="M960.755,2446.709a.065.065,0,0,0-.024,0c0,.008-.009.014-.012.021s.02.012.032.016S960.752,2446.719,960.755,2446.709Z" fill="#0d0213"/><path d="M1004.5,2425.946a.712.712,0,0,1-.189-.046.7.7,0,0,1-.077.18.552.552,0,0,1,.21.086A.6.6,0,0,1,1004.5,2425.946Z" fill="#0d0213"/><path d="M961.694,2446.237a.1.1,0,0,1-.025,0,.171.171,0,0,1-.012.021c.012,0,.02.014.032.019A.251.251,0,0,1,961.694,2446.237Z" fill="#0d0213"/><path d="M1001.1,2426.481c-.008,0-.017,0-.024,0s-.008.011-.011.019a.235.235,0,0,0,.032.019C1001.1,2426.5,1001.1,2426.491,1001.1,2426.481Z" fill="#0d0213"/><path d="M1000.167,2426.95a.067.067,0,0,1-.024,0,.142.142,0,0,1-.011.021.132.132,0,0,1,.03.019C1000.165,2426.974,1000.163,2426.962,1000.167,2426.95Z" fill="#0d0213"/><path d="M1016.7,2419.829a.705.705,0,0,1-.188-.046.676.676,0,0,1-.076.18.663.663,0,0,1,.207.085A.6.6,0,0,1,1016.7,2419.829Z" fill="#0d0213"/><path d="M962.631,2445.768a.157.157,0,0,1-.023-.005.143.143,0,0,1-.013.023c.011,0,.02.013.032.017S962.628,2445.778,962.631,2445.768Z" fill="#0d0213"/><path d="M1012.949,2421.711a.684.684,0,0,1-.19-.046.707.707,0,0,1-.076.18.565.565,0,0,1,.21.086A.6.6,0,0,1,1012.949,2421.711Z" fill="#0d0213"/><path d="M1010.135,2423.123a.675.675,0,0,1-.19-.046.693.693,0,0,1-.077.18.552.552,0,0,1,.21.086A.616.616,0,0,1,1010.135,2423.123Z" fill="#0d0213"/><path d="M1012.009,2422.182a.634.634,0,0,1-.187-.048.642.642,0,0,1-.076.18.655.655,0,0,1,.208.086A.6.6,0,0,1,1012.009,2422.182Z" fill="#0d0213"/><path d="M1009.2,2423.592a.6.6,0,0,1-.19-.047.15.15,0,1,0,.135.267A.626.626,0,0,1,1009.2,2423.592Z" fill="#0d0213"/><path d="M1007.318,2424.534a.7.7,0,0,1-.187-.045.761.761,0,0,1-.078.179.545.545,0,0,1,.21.087A.6.6,0,0,1,1007.318,2424.534Z" fill="#0d0213"/><path d="M1008.256,2424.063a.15.15,0,0,0-.264.134.537.537,0,0,1,.208.086A.607.607,0,0,1,1008.256,2424.063Z" fill="#0d0213"/><path d="M1011.072,2422.651a.644.644,0,0,1-.189-.046.63.63,0,0,1-.076.18.656.656,0,0,1,.208.086A.607.607,0,0,1,1011.072,2422.651Z" fill="#0d0213"/><path d="M1015.765,2420.3a.7.7,0,0,1-.19-.046.645.645,0,0,1-.076.18.539.539,0,0,1,.209.086A.591.591,0,0,1,1015.765,2420.3Z" fill="#0d0213"/><path d="M1005.441,2425.474a.15.15,0,0,0-.264.135.539.539,0,0,1,.208.085A.6.6,0,0,1,1005.441,2425.474Z" fill="#0d0213"/><path d="M1013.887,2421.24a.676.676,0,0,1-.19-.047.612.612,0,0,1-.076.181.639.639,0,0,1,.21.086A.626.626,0,0,1,1013.887,2421.24Z" fill="#0d0213"/><path d="M1006.38,2425.006a.713.713,0,0,1-.189-.046.66.66,0,0,1-.076.177.647.647,0,0,1,.208.086A.6.6,0,0,1,1006.38,2425.006Z" fill="#0d0213"/><path d="M1014.826,2420.771a.692.692,0,0,1-.19-.046.623.623,0,0,1-.074.178.613.613,0,0,1,.208.088A.6.6,0,0,1,1014.826,2420.771Z" fill="#0d0213"/><path d="M998.908,2394.8a42.234,42.234,0,0,0-21.461-1.377l3.007-9.052-88.4-29.364-29.364,88.4,88.4,29.364,3.008-9.054a42.487,42.487,0,1,0,44.81-68.917Zm-48.673,76.265-85.843-28.513,28.513-85.839,85.843,28.513Zm74.952-46.78c0,.021.01.042.015.063-.01-.006-.026,0-.032-.011S1025.181,2424.308,1025.187,2424.288Zm-.488-1.059a.151.151,0,0,1,.19.055c.007.024.014.049.023.074a.15.15,0,0,1-.074.15.16.16,0,0,1-.207-.071A.155.155,0,0,1,1024.7,2423.229Zm-.364,1.617a.075.075,0,0,1-.1-.037.077.077,0,0,1,.033-.1.078.078,0,0,1,.07.14Zm-.142-2.627a.235.235,0,0,1,.312.107.229.229,0,0,1-.1.31.232.232,0,0,1-.312-.1A.238.238,0,0,1,1024.193,2422.219Zm-.5,1.688a.156.156,0,0,1,.279-.14.156.156,0,1,1-.279.14Zm-.258,1.306a.077.077,0,0,1-.036.1.079.079,0,0,1-.1-.037.077.077,0,0,1,.032-.1A.079.079,0,0,1,1023.432,2425.213Zm.256-4a.314.314,0,0,1,.418.139.31.31,0,0,1-.14.414.31.31,0,0,1-.278-.553Zm-.934,3.164a.154.154,0,0,1,.067-.206.155.155,0,1,1-.067.206Zm-.26,1.3a.077.077,0,0,1-.036.1.08.08,0,0,1-.1-.034.078.078,0,1,1,.14-.07Zm.658-2.678a.233.233,0,0,1,.415-.21.232.232,0,0,1-.1.313A.234.234,0,0,1,1023.152,2423Zm.551-2.625a.388.388,0,1,1-.52-.173A.387.387,0,0,1,1023.7,2420.379Zm-1.887,4.469a.154.154,0,1,1,.276-.138.159.159,0,0,1-.069.21A.157.157,0,0,1,1021.816,2424.848Zm-.3,1.41a.081.081,0,0,1-.105-.035.079.079,0,0,1,.035-.1.076.076,0,0,1,.1.034A.079.079,0,0,1,1021.52,2426.258Zm.692-2.783a.234.234,0,1,1,.418-.209.234.234,0,0,1-.106.312A.237.237,0,0,1,1022.212,2423.475Zm.815-1.237a.31.31,0,1,1,.138-.416A.307.307,0,0,1,1023.027,2422.238Zm-2.151,3.081a.155.155,0,0,1,.069-.207.153.153,0,0,1,.209.069.157.157,0,0,1-.07.207A.155.155,0,0,1,1020.876,2425.319Zm-.26,1.3a.076.076,0,0,1-.034.1.079.079,0,0,1-.1-.035.081.081,0,0,1,.036-.1A.078.078,0,0,1,1020.616,2426.624Zm.659-2.68a.234.234,0,0,1,.1-.313.239.239,0,0,1,.316.1.237.237,0,0,1-.1.313A.232.232,0,0,1,1021.275,2423.944Zm.813-1.236a.31.31,0,1,1-.275-.555.313.313,0,0,1,.415.141A.308.308,0,0,1,1022.088,2422.708Zm.505-1.34a.388.388,0,1,1,.173-.52A.387.387,0,0,1,1022.593,2421.368Zm-2.654,4.42a.152.152,0,0,1,.07-.207.155.155,0,1,1,.139.277A.157.157,0,0,1,1019.939,2425.788Zm-.26,1.3a.078.078,0,0,1-.14.07.08.08,0,0,1,.033-.1A.081.081,0,0,1,1019.679,2427.093Zm.658-2.678a.227.227,0,0,1,.1-.31.231.231,0,0,1,.311.1.232.232,0,1,1-.415.209Zm.816-1.237a.311.311,0,1,1-.278-.556.314.314,0,0,1,.416.141A.31.31,0,0,1,1021.153,2423.178Zm.5-1.338a.388.388,0,0,1-.348-.693.384.384,0,0,1,.518.172A.39.39,0,0,1,1021.656,2421.84Zm-2.656,4.42a.156.156,0,0,1,.068-.208.154.154,0,0,1,.208.069.159.159,0,0,1-.069.21A.161.161,0,0,1,1019,2426.26Zm-.26,1.3a.077.077,0,1,1-.139.067.076.076,0,0,1,.033-.1A.081.081,0,0,1,1018.74,2427.565Zm.66-2.681a.232.232,0,1,1,.312.1A.232.232,0,0,1,1019.4,2424.884Zm.812-1.235a.309.309,0,0,1-.277-.553.309.309,0,1,1,.277.553Zm.506-1.34a.391.391,0,0,1-.521-.173.385.385,0,0,1,.17-.518.388.388,0,0,1,.351.691Zm-2.657,4.422a.155.155,0,0,1,.277-.141.155.155,0,1,1-.277.141Zm-.26,1.3a.075.075,0,0,1-.034.1.081.081,0,0,1-.105-.035.077.077,0,1,1,.139-.067Zm.658-2.681a.233.233,0,1,1,.418-.208.233.233,0,0,1-.418.208Zm.817-1.237a.31.31,0,1,1,.137-.412A.31.31,0,0,1,1019.276,2424.118Zm.5-1.338a.388.388,0,1,1,.17-.519A.383.383,0,0,1,1019.777,2422.78Zm-2.654,4.42a.156.156,0,0,1,.07-.208.155.155,0,1,1,.138.277A.156.156,0,0,1,1017.123,2427.2Zm-.26,1.3a.077.077,0,0,1-.036.1.08.08,0,0,1-.1-.034.079.079,0,0,1,.037-.1A.076.076,0,0,1,1016.863,2428.5Zm.658-2.678a.231.231,0,0,1,.1-.31.227.227,0,0,1,.311.1.233.233,0,0,1-.415.21Zm.814-1.238a.31.31,0,0,1-.278-.553.31.31,0,1,1,.278.553Zm.505-1.337a.39.39,0,0,1-.521-.176.387.387,0,0,1,.693-.345A.391.391,0,0,1,1018.84,2423.252Zm-2.655,4.419a.154.154,0,1,1,.206.069A.152.152,0,0,1,1016.185,2427.671Zm-.3,1.41a.078.078,0,0,1-.1-.037.076.076,0,1,1,.1.037Zm.7-2.785a.23.23,0,0,1,.1-.313.235.235,0,0,1,.312.106.233.233,0,0,1-.1.31A.23.23,0,0,1,1016.585,2426.3Zm.811-1.236a.309.309,0,1,1,.138-.415A.305.305,0,0,1,1017.4,2425.06Zm.5-1.338a.387.387,0,1,1,.173-.52A.389.389,0,0,1,1017.9,2423.722Zm-2.652,4.418a.152.152,0,0,1,.067-.2.151.151,0,0,1,.209.069.155.155,0,0,1-.069.208A.158.158,0,0,1,1015.247,2428.14Zm-.262,1.307a.076.076,0,0,1-.034.1.077.077,0,0,1-.1-.034.08.08,0,0,1,.033-.106A.078.078,0,0,1,1014.985,2429.447Zm.659-2.68a.234.234,0,1,1,.31.1A.23.23,0,0,1,1015.644,2426.767Zm.816-1.237a.31.31,0,1,1,.137-.413A.306.306,0,0,1,1016.46,2425.53Zm.5-1.339a.388.388,0,1,1,.173-.52A.387.387,0,0,1,1016.962,2424.191Zm-2.654,4.42a.152.152,0,0,1,.07-.207.154.154,0,1,1,.139.276A.155.155,0,0,1,1014.308,2428.611Zm-.26,1.3a.076.076,0,0,1-.034.1.079.079,0,0,1-.106-.033.078.078,0,0,1,.14-.07Zm.659-2.678a.232.232,0,0,1,.414-.209.232.232,0,0,1-.414.209Zm.812-1.238a.307.307,0,0,1-.414-.137.31.31,0,1,1,.555-.277A.308.308,0,0,1,1015.519,2426Zm.506-1.337a.388.388,0,0,1-.348-.693.388.388,0,0,1,.348.693Zm-2.656,4.42a.155.155,0,0,1,.071-.208.152.152,0,0,1,.206.069.155.155,0,1,1-.277.139Zm-.259,1.3a.078.078,0,1,1-.14.067.078.078,0,0,1,.033-.1A.079.079,0,0,1,1013.11,2430.388Zm.659-2.681a.232.232,0,1,1,.312.1A.232.232,0,0,1,1013.769,2427.707Zm.812-1.235a.309.309,0,1,1,.14-.415A.309.309,0,0,1,1014.581,2426.472Zm.506-1.34a.39.39,0,0,1-.52-.173.383.383,0,0,1,.169-.518.391.391,0,0,1,.521.172A.386.386,0,0,1,1015.087,2425.132Zm-2.657,4.422a.157.157,0,0,1,.072-.21.155.155,0,0,1,.137.279A.161.161,0,0,1,1012.43,2429.554Zm-.26,1.3a.073.073,0,0,1-.034.1.081.081,0,0,1-.1-.035.079.079,0,0,1,.036-.1A.076.076,0,0,1,1012.17,2430.859Zm.661-2.68a.232.232,0,0,1,.1-.313.234.234,0,0,1,.312.1.232.232,0,0,1-.415.209Zm.814-1.238a.31.31,0,0,1-.279-.553.308.308,0,0,1,.416.14A.3.3,0,0,1,1013.645,2426.941Zm.5-1.338a.388.388,0,1,1,.173-.521A.388.388,0,0,1,1014.146,2425.6Zm-2.654,4.42a.156.156,0,0,1,.07-.208.155.155,0,1,1,.138.277A.156.156,0,0,1,1011.492,2430.023Zm-.26,1.3a.075.075,0,0,1-.034.1.077.077,0,1,1-.068-.137A.077.077,0,0,1,1011.232,2431.328Zm.659-2.678a.233.233,0,1,1,.417-.209.233.233,0,0,1-.417.209Zm.815-1.237a.311.311,0,1,1,.138-.416A.309.309,0,0,1,1012.706,2427.413Zm.5-1.339a.387.387,0,1,1,.172-.52A.389.389,0,0,1,1013.209,2426.074Zm-2.655,4.42a.153.153,0,0,1,.07-.207.153.153,0,0,1,.138.273A.155.155,0,0,1,1010.554,2430.494Zm-.26,1.305a.077.077,0,1,1-.139.068.076.076,0,0,1,.033-.1A.077.077,0,0,1,1010.294,2431.8Zm.66-2.68a.231.231,0,1,1,.311.1A.232.232,0,0,1,1010.954,2429.119Zm.811-1.236a.309.309,0,0,1-.277-.553.309.309,0,1,1,.277.553Zm.507-1.34a.388.388,0,1,1-.348-.693.388.388,0,0,1,.348.693Zm-2.656,4.42a.154.154,0,0,1,.067-.206.152.152,0,0,1,.209.07.154.154,0,0,1-.069.207A.157.157,0,0,1,1009.616,2430.963Zm-.259,1.305a.08.08,0,0,1-.037.1.077.077,0,0,1-.1-.035.079.079,0,0,1,.033-.1A.08.08,0,0,1,1009.357,2432.268Zm.658-2.678a.233.233,0,1,1,.416-.209.237.237,0,0,1-.1.313A.234.234,0,0,1,1010.015,2429.59Zm.814-1.237a.31.31,0,1,1,.139-.415A.309.309,0,0,1,1010.829,2428.353Zm.5-1.339a.387.387,0,0,1-.521-.173.388.388,0,1,1,.521.173Zm-2.652,4.421a.151.151,0,0,1,.068-.208.154.154,0,0,1,.208.069.158.158,0,0,1-.069.207A.156.156,0,0,1,1008.679,2431.435Zm-.262,1.3a.076.076,0,0,1-.034.1.075.075,0,0,1-.1-.034.073.073,0,0,1,.033-.1A.077.077,0,0,1,1008.417,2432.739Zm.661-2.68a.231.231,0,0,1,.412-.207.231.231,0,0,1-.1.312A.227.227,0,0,1,1009.078,2430.059Zm.813-1.235a.311.311,0,1,1,.138-.415A.311.311,0,0,1,1009.891,2428.824Zm.5-1.338a.389.389,0,0,1-.521-.176.388.388,0,0,1,.693-.347A.392.392,0,0,1,1010.394,2427.486Zm-2.656,4.419a.156.156,0,1,1,.209.067A.154.154,0,0,1,1007.738,2431.905Zm-.259,1.3a.078.078,0,0,1-.14.068.079.079,0,0,1,.037-.1A.078.078,0,0,1,1007.479,2433.21Zm.659-2.68a.236.236,0,0,1,.1-.313.233.233,0,1,1-.1.313Zm.812-1.235a.309.309,0,1,1,.14-.415A.308.308,0,0,1,1008.95,2429.295Zm.506-1.34a.388.388,0,1,1,.172-.521A.387.387,0,0,1,1009.456,2427.955Zm-2.655,4.419a.151.151,0,0,1,.068-.205.153.153,0,0,1,.207.066.154.154,0,1,1-.275.139Zm-.262,1.308a.074.074,0,0,1-.034.1.079.079,0,0,1-.1-.034.08.08,0,0,1,.034-.106A.074.074,0,0,1,1006.539,2433.682Zm.661-2.68a.232.232,0,0,1,.1-.313.233.233,0,1,1-.1.313Zm.814-1.238a.31.31,0,1,1,.137-.413A.309.309,0,0,1,1008.014,2429.764Zm.5-1.339a.382.382,0,0,1-.517-.174.386.386,0,1,1,.517.174Zm-2.651,4.421a.154.154,0,1,1,.206.069A.154.154,0,0,1,1005.864,2432.846Zm-.263,1.3a.076.076,0,0,1-.034.1.073.073,0,0,1-.1-.034.076.076,0,1,1,.136-.069Zm.659-2.677a.233.233,0,1,1,.312.1A.235.235,0,0,1,1006.26,2431.473Zm.815-1.237a.311.311,0,1,1,.138-.416A.31.31,0,0,1,1007.075,2430.236Zm.5-1.339a.387.387,0,1,1,.173-.523A.389.389,0,0,1,1007.578,2428.9Zm-2.655,4.42a.156.156,0,0,1,.07-.207.153.153,0,0,1,.138.273A.155.155,0,0,1,1004.923,2433.317Zm-.26,1.305a.074.074,0,0,1-.034.1.078.078,0,0,1-.069-.139A.077.077,0,0,1,1004.663,2434.622Zm.66-2.68a.233.233,0,1,1,.311.1A.234.234,0,0,1,1005.323,2431.942Zm.815-1.237a.31.31,0,1,1,.137-.413A.308.308,0,0,1,1006.138,2430.705Zm.5-1.339a.388.388,0,1,1-.348-.693.388.388,0,0,1,.348.693Zm-2.656,4.42a.153.153,0,0,1,.071-.207.15.15,0,0,1,.2.071.153.153,0,0,1-.067.205A.156.156,0,0,1,1003.985,2433.786Zm-.259,1.305a.078.078,0,0,1-.037.1.077.077,0,0,1-.1-.034.08.08,0,0,1,.036-.107A.077.077,0,0,1,1003.726,2435.091Zm.658-2.678a.233.233,0,0,1,.416-.209.233.233,0,1,1-.416.209Zm.814-1.237a.31.31,0,1,1,.139-.415A.309.309,0,0,1,1005.2,2431.176Zm.5-1.339a.387.387,0,0,1-.346-.692.387.387,0,0,1,.346.692Zm-2.653,4.421a.155.155,0,1,1,.205.068A.154.154,0,0,1,1003.048,2434.258Zm-.26,1.3a.078.078,0,0,1-.036.1.073.073,0,0,1-.1-.034.076.076,0,0,1,.033-.1A.081.081,0,0,1,1002.788,2435.56Zm.657-2.676a.232.232,0,0,1,.1-.312.228.228,0,0,1,.311.1.233.233,0,0,1-.416.209Zm.815-1.237a.306.306,0,0,1-.414-.138.309.309,0,1,1,.414.138Zm.5-1.338a.39.39,0,0,1-.521-.176.388.388,0,0,1,.693-.347A.392.392,0,0,1,1004.763,2430.309Zm-2.652,4.418a.15.15,0,0,1,.067-.206.154.154,0,0,1,.208.067.155.155,0,0,1-.07.207A.151.151,0,0,1,1002.111,2434.727Zm-.263,1.306a.077.077,0,0,1-.034.1.082.082,0,0,1-.1-.032.081.081,0,0,1,.035-.108A.078.078,0,0,1,1001.848,2436.033Zm.659-2.68a.233.233,0,1,1,.417-.209.233.233,0,0,1-.417.209Zm.815-1.237a.311.311,0,0,1-.416-.135.316.316,0,0,1,.138-.419.313.313,0,0,1,.415.141A.309.309,0,0,1,1003.322,2432.116Zm.5-1.338a.388.388,0,1,1,.172-.521A.391.391,0,0,1,1003.825,2430.778Zm-2.655,4.419a.155.155,0,0,1,.278-.138.155.155,0,0,1-.278.138Zm-.26,1.3a.078.078,0,0,1-.036.1.079.079,0,0,1-.1-.034.08.08,0,0,1,.034-.106A.077.077,0,0,1,1000.91,2436.5Zm.659-2.677a.233.233,0,1,1,.311.1A.233.233,0,0,1,1001.569,2433.825Zm.814-1.238a.31.31,0,0,1-.279-.554.313.313,0,0,1,.418.139A.309.309,0,0,1,1002.383,2432.587Zm.5-1.338a.388.388,0,1,1,.17-.521A.388.388,0,0,1,1002.887,2431.249Zm-2.256,3.045a.232.232,0,1,1,.312.1A.235.235,0,0,1,1000.631,2434.294Zm-.193,1.443c-.006,0-.012,0-.017,0,0-.088.016-.178.019-.268a.143.143,0,0,1,.068.061A.154.154,0,0,1,1000.438,2435.737Zm1.006-2.679a.307.307,0,0,1-.415-.14.31.31,0,1,1,.415.14Zm.505-1.34a.387.387,0,1,1,.171-.521A.387.387,0,0,1,1001.949,2431.718Zm-.939.471a.388.388,0,1,1-.348-.693.388.388,0,0,1,.348.693Zm-.5,1.338a.3.3,0,0,1-.164.013c-.02-.19-.046-.38-.073-.569a.3.3,0,0,1,.237.556Zm20.918-13.18a.465.465,0,1,1-.621-.206A.464.464,0,0,1,1021.425,2420.347Zm.316-.678a.464.464,0,1,1-.207.623A.466.466,0,0,1,1021.741,2419.669Zm-1.255,1.149a.464.464,0,1,1-.623-.206A.463.463,0,0,1,1020.486,2420.818Zm-.938.469a.464.464,0,1,1-.623-.207A.463.463,0,0,1,1019.548,2421.287Zm-.938.472a.463.463,0,1,1-.622-.207A.46.46,0,0,1,1018.61,2421.759Zm-.938.469a.466.466,0,1,1-.625-.205A.467.467,0,0,1,1017.672,2422.228Zm-.939.471a.464.464,0,1,1-.623-.207A.465.465,0,0,1,1016.733,2422.7Zm-.939.471a.463.463,0,1,1-.621-.206A.465.465,0,0,1,1015.794,2423.17Zm-.937.469a.464.464,0,1,1-.625-.2A.464.464,0,0,1,1014.857,2423.639Zm-.94.471a.464.464,0,0,1-.83.416.464.464,0,0,1,.83-.416Zm-.937.469a.465.465,0,0,1-.207.623.463.463,0,1,1,.207-.623Zm-.939.472a.464.464,0,1,1-.621-.207A.461.461,0,0,1,1012.041,2425.051Zm-.939.471a.464.464,0,1,1-.621-.206A.459.459,0,0,1,1011.1,2425.522Zm-.938.469a.464.464,0,1,1-.83.415.464.464,0,0,1,.83-.415Zm-.938.471a.464.464,0,1,1-.622-.206A.464.464,0,0,1,1009.226,2426.462Zm-.938.469a.466.466,0,1,1-.625-.2A.464.464,0,0,1,1008.288,2426.931Zm-.939.471a.464.464,0,1,1-.83.416.464.464,0,0,1,.83-.416Zm-.939.472a.464.464,0,1,1-.621-.207A.461.461,0,0,1,1006.41,2427.874Zm-.937.468a.464.464,0,1,1-.829.417.459.459,0,0,1,.206-.621A.465.465,0,0,1,1005.473,2428.342Zm-.939.472a.464.464,0,1,1-.831.415.464.464,0,0,1,.831-.415Zm-.939.471a.463.463,0,0,1-.207.623.463.463,0,1,1-.415-.829A.463.463,0,0,1,1003.595,2429.285Zm-.938.469a.465.465,0,1,1-.622-.2A.462.462,0,0,1,1002.657,2429.754Zm-.938.471a.465.465,0,1,1-.622-.206A.465.465,0,0,1,1001.719,2430.225Zm-.94.471a.464.464,0,1,1-.621-.206A.465.465,0,0,1,1000.779,2430.7Zm-.535,1.441a.371.371,0,0,1-.037.366c-.029-.168-.077-.328-.113-.493A.362.362,0,0,1,1000.244,2432.137Zm23.276-12.691c-.036-.034-.087-.048-.11-.095a.4.4,0,0,1-.014-.2C1023.438,2419.247,1023.478,2419.346,1023.52,2419.446Zm-.426.584a.464.464,0,1,1,.209-.625A.466.466,0,0,1,1023.094,2420.03Zm-1.76-5.1c.072.126.137.259.206.388.037.062.069.128.1.192l.107.2c.037.068.073.139.11.206s.088.163.13.246c.131.252.264.505.39.76.017.031.031.066.047.1.139.279.27.565.4.85a.579.579,0,0,1-.276-.094.612.612,0,0,1-.136.363.539.539,0,0,1,.43.223.529.529,0,0,1,.029-.393c.115.252.231.5.341.755a.364.364,0,1,0-.56.436.528.528,0,0,0-.937.469.531.531,0,0,0-.94.471.53.53,0,0,0-.938.471.54.54,0,0,1-.671-.167.529.529,0,0,1-.944.456,1.268,1.268,0,0,0-1.2,1.123.529.529,0,0,0-.937.469.532.532,0,0,1-.676-.177,1.263,1.263,0,0,0-1.2,1.119.535.535,0,0,1-.672-.173.529.529,0,0,1-.939.466.531.531,0,0,1-.939.474,1.251,1.251,0,0,0-1.2,1.115.529.529,0,0,0-.939.471.528.528,0,0,0-.938.469.539.539,0,0,1-.675-.172.53.53,0,0,1-.938.469,1.23,1.23,0,0,0-1.2,1.114.531.531,0,0,0-.939.471.53.53,0,0,0-.939.472.528.528,0,0,0-.938.468.53.53,0,0,0-.938.472.531.531,0,0,0-.94.471.528.528,0,0,0-.937.469.522.522,0,0,1-.472,0c-.08-.241-.153-.487-.245-.723a.482.482,0,0,1,.044-.077.767.767,0,0,1-.083-.011c-.115-.288-.245-.57-.377-.853-.022-.046-.04-.093-.062-.14-.12-.245-.252-.486-.386-.725-.047-.088-.1-.173-.145-.259s-.09-.169-.14-.249c-.028-.049-.052-.1-.081-.144-.05-.08-.1-.159-.157-.238-.061-.1-.129-.188-.194-.281-.228-.337-.468-.666-.724-.985l23.62-11.841C1020.937,2414.256,1021.142,2414.588,1021.334,2414.927Zm-4.93-6.945c.61.694,1.2,1.4,1.759,2.137l-24.709,12.387a14.931,14.931,0,0,0-3.07-1.481Zm-52.541,26.34,7.434-3.727a14.879,14.879,0,0,0-.652,3.344l-7.985,4.005Zm-5.252,15.81.01-.03,2.01-6.051,10.432-5.23q.16.624.376,1.228v0c.011.026.019.056.029.082v0c.054.148.1.3.157.446.051.128.114.252.168.378.013.032.028.062.041.094h0c.023.052.046.107.07.159h0c.046.1.09.208.138.31l.005.01c.009.019.015.041.025.061l0,0c.077.158.156.315.239.471l.009.019h0c.144.272.293.544.454.809h0a.656.656,0,0,1-.1.173.54.54,0,0,1,.236.059h0c.094.148.2.289.3.432l0,0a.54.54,0,0,1-.128.391.554.554,0,0,1-.169.133.531.531,0,0,1-.4.032c-.006,0-.013,0-.019,0l-.013-.007a.544.544,0,0,1-.247-.2c.006.019.011.037.015.055a.537.537,0,0,1-.279.588h0a.369.369,0,1,0-.693.206.529.529,0,0,1-.244.266.535.535,0,0,1-.636-.128.465.465,0,0,1-.038-.049.54.54,0,0,1-.265.646.529.529,0,0,0-.938.471.528.528,0,0,0-.936.47.539.539,0,0,1-.677-.172.529.529,0,0,1-.94.465,1.253,1.253,0,0,0-1.2,1.12.536.536,0,0,1-.673-.174,1.267,1.267,0,0,0-1.2,1.114.527.527,0,0,0-.936.47.54.54,0,0,1-.677-.172.528.528,0,0,1-.936.469.539.539,0,0,1-.267.645.527.527,0,0,0-.936.469.536.536,0,0,1-.676-.172.53.53,0,0,1-.265.643.5.5,0,0,1-.545-.084Zm14.751-5.171a.474.474,0,0,1-.332.026c-.008,0-.016,0-.024,0a.466.466,0,0,1-.27-.232.563.563,0,0,1,.209-.625.468.468,0,0,1,.353-.024.456.456,0,0,1,.269.231A.463.463,0,0,1,973.362,2444.961Zm.309-.75c.063.082.132.158.2.24a.432.432,0,0,1-.191-.166C973.664,2444.262,973.678,2444.236,973.671,2444.211ZM959.6,2451.34a.464.464,0,1,1,.624.208A.463.463,0,0,1,959.6,2451.34Zm-.315.676a.463.463,0,0,1-.418-.827.463.463,0,1,1,.418.827Zm1.253-1.147a.463.463,0,1,1,.622.209A.463.463,0,0,1,960.538,2450.869Zm.938-.469a.466.466,0,1,1,.623.207A.464.464,0,0,1,961.476,2450.4Zm.94-.471a.464.464,0,1,1,.622.207A.464.464,0,0,1,962.416,2449.929Zm.938-.472a.463.463,0,1,1,.622.21A.462.462,0,0,1,963.354,2449.457Zm.937-.469a.464.464,0,1,1,.623.207A.464.464,0,0,1,964.291,2448.988Zm.938-.468a.466.466,0,1,1,.626.205A.465.465,0,0,1,965.229,2448.52Zm.94-.474a.463.463,0,1,1,.622.209A.463.463,0,0,1,966.169,2448.046Zm.938-.469a.464.464,0,0,1,.207-.623.464.464,0,1,1,.416.83A.463.463,0,0,1,967.107,2447.577Zm.937-.469a.466.466,0,1,1,.623.207A.465.465,0,0,1,968.044,2447.108Zm.939-.471a.465.465,0,1,1,.624.207A.466.466,0,0,1,968.983,2446.637Zm.939-.471a.464.464,0,1,1,.623.206A.465.465,0,0,1,969.922,2446.166Zm.938-.469a.429.429,0,0,1-.014-.213c0-.048-.026-.1-.011-.143,0-.005.009-.008.011-.013a.459.459,0,0,1,.222-.254h0v0a.461.461,0,0,1,.62.209.455.455,0,0,1,.027.353c0,.01-.017.014-.022.023a.427.427,0,0,1-.545.269c-.006,0-.014,0-.02,0A.468.468,0,0,1,970.86,2445.7Zm.938-.472a.464.464,0,0,1,.207-.623h0a.464.464,0,1,1,.416.829h0A.462.462,0,0,1,971.8,2445.225Zm-13.69,6.422a.431.431,0,0,1,.444.22.462.462,0,0,1-.207.623.437.437,0,0,1-.486-.092Zm-2.275,7.54a.08.08,0,0,1-.1-.035.074.074,0,0,1,.036-.1.077.077,0,1,1,.069.137Zm.5-1.341a.157.157,0,0,1-.208-.067.156.156,0,0,1,.278-.141A.156.156,0,0,1,956.335,2457.846Zm.5-1.338a.234.234,0,0,1-.311-.1l.1-.312a.232.232,0,1,1,.207.416Zm.5-1.341a.3.3,0,0,1-.371-.1l.153-.462a.3.3,0,0,1,.355.145A.308.308,0,0,1,957.342,2455.167Zm.5-1.338a.372.372,0,0,1-.43-.1l.2-.6a.371.371,0,0,1,.4.18A.389.389,0,0,1,957.845,2453.829Zm-1.074,4.886a.078.078,0,0,1-.106-.032.083.083,0,0,1,.036-.105.077.077,0,0,1,.1.035A.074.074,0,0,1,956.771,2458.715Zm.5-1.335a.161.161,0,0,1-.208-.072.155.155,0,0,1,.072-.207.151.151,0,0,1,.2.068A.157.157,0,0,1,957.273,2457.38Zm.5-1.344a.232.232,0,0,1-.207-.416.232.232,0,0,1,.207.416Zm.5-1.338a.311.311,0,1,1,.138-.415A.307.307,0,0,1,958.279,2454.7Zm.5-1.339a.388.388,0,1,1,.173-.52A.389.389,0,0,1,958.781,2453.359Zm-1.072,4.887a.078.078,0,0,1-.07-.14.081.081,0,0,1,.106.036A.077.077,0,0,1,957.709,2458.246Zm.505-1.34a.155.155,0,1,1,.067-.205A.154.154,0,0,1,958.214,2456.906Zm.5-1.338a.233.233,0,1,1,.1-.313A.238.238,0,0,1,958.715,2455.568Zm.5-1.342a.307.307,0,0,1-.414-.137.31.31,0,1,1,.555-.277A.308.308,0,0,1,959.216,2454.226Zm.506-1.337a.389.389,0,1,1,.17-.521A.391.391,0,0,1,959.722,2452.889Zm-1.074,4.886a.076.076,0,0,1-.1-.035.073.073,0,0,1,.037-.1.072.072,0,0,1,.1.034A.074.074,0,0,1,958.648,2457.775Zm.5-1.338a.159.159,0,0,1-.209-.069.156.156,0,0,1,.279-.141A.162.162,0,0,1,959.151,2456.437Zm.5-1.341a.231.231,0,1,1,.1-.311A.229.229,0,0,1,959.652,2455.1Zm.5-1.339a.31.31,0,1,1,.14-.414A.31.31,0,0,1,960.154,2453.757Zm.506-1.34a.387.387,0,1,1,.172-.52A.392.392,0,0,1,960.66,2452.417Zm-1.073,4.887a.075.075,0,0,1-.1-.034.076.076,0,0,1,.033-.1.077.077,0,0,1,.1.034A.076.076,0,0,1,959.587,2457.3Zm.5-1.336a.16.16,0,0,1-.207-.071.154.154,0,1,1,.276-.139A.158.158,0,0,1,960.089,2455.968Zm.5-1.344a.231.231,0,0,1-.311-.1.237.237,0,0,1,.1-.313.234.234,0,0,1,.315.1A.229.229,0,0,1,960.589,2454.624Zm.506-1.338a.311.311,0,1,1,.138-.415A.31.31,0,0,1,961.095,2453.286Zm.5-1.338a.388.388,0,1,1,.173-.52A.387.387,0,0,1,961.6,2451.948Zm-1.176,4.852a.081.081,0,0,1,.034-.1.077.077,0,0,1,.1.037.074.074,0,0,1-.033.1A.08.08,0,0,1,960.42,2456.8Zm.606-1.3a.155.155,0,0,1-.139-.276.155.155,0,1,1,.139.276Zm.505-1.34a.235.235,0,0,1-.312-.1.231.231,0,0,1,.1-.313.233.233,0,1,1,.209.416Zm.5-1.341a.31.31,0,1,1,.137-.413A.306.306,0,0,1,962.032,2452.815Zm.5-1.339a.386.386,0,0,1-.521-.172.388.388,0,1,1,.693-.348A.386.386,0,0,1,962.535,2451.476Zm-1.073,4.89a.078.078,0,0,1-.067-.142.078.078,0,0,1,.067.142Zm.5-1.343a.156.156,0,0,1-.208-.067.156.156,0,0,1,.278-.14A.156.156,0,0,1,961.966,2455.023Zm.5-1.339a.231.231,0,1,1-.207-.413.231.231,0,0,1,.207.413Zm.5-1.338a.31.31,0,0,1-.277-.554.313.313,0,0,1,.418.139A.309.309,0,0,1,962.969,2452.346Zm.506-1.34a.388.388,0,1,1,.172-.521A.391.391,0,0,1,963.475,2451.006Zm-1.073,4.886a.078.078,0,0,1-.106-.032.078.078,0,0,1,.14-.07A.075.075,0,0,1,962.4,2455.892Zm.5-1.338a.155.155,0,1,1,.069-.208A.155.155,0,0,1,962.9,2454.554Zm.5-1.339a.233.233,0,0,1-.311-.1.237.237,0,0,1,.1-.313.233.233,0,1,1,.208.416Zm.5-1.34a.311.311,0,1,1,.138-.415A.31.31,0,0,1,963.91,2451.875Zm.5-1.339a.388.388,0,1,1,.17-.521A.387.387,0,0,1,964.412,2450.536Zm-1.072,4.888a.081.081,0,0,1-.1-.035.079.079,0,0,1,.034-.106.083.083,0,0,1,.106.036A.079.079,0,0,1,963.34,2455.424Zm.5-1.339a.154.154,0,0,1-.207-.071.152.152,0,0,1,.067-.206.156.156,0,0,1,.208.067A.159.159,0,0,1,963.843,2454.085Zm.5-1.34a.233.233,0,1,1,.1-.313A.238.238,0,0,1,964.346,2452.745Zm.5-1.342a.309.309,0,0,1-.277-.553.309.309,0,1,1,.277.553Zm.506-1.337a.389.389,0,0,1-.35-.694.389.389,0,0,1,.35.694Zm-1.076,4.888a.078.078,0,1,1,.036-.1A.077.077,0,0,1,964.277,2454.954Zm.505-1.34a.158.158,0,0,1-.209-.069.154.154,0,0,1,.07-.207.158.158,0,0,1,.209.066A.163.163,0,0,1,964.782,2453.614Zm.5-1.341a.229.229,0,0,1-.311-.1.231.231,0,1,1,.311.1Zm.505-1.341a.307.307,0,0,1-.417-.135.31.31,0,1,1,.554-.277A.307.307,0,0,1,965.788,2450.932Zm.5-1.338a.388.388,0,1,1-.347-.693.388.388,0,0,1,.347.693Zm-1.073,4.887a.077.077,0,1,1-.07-.137.077.077,0,0,1,.1.034A.077.077,0,0,1,965.218,2454.481Zm.5-1.339a.154.154,0,1,1,.07-.207A.156.156,0,0,1,965.719,2453.142Zm.505-1.34a.232.232,0,0,1-.315-.1.235.235,0,0,1,.1-.313.239.239,0,0,1,.315.1A.232.232,0,0,1,966.224,2451.8Zm.5-1.339a.308.308,0,0,1-.414-.138.31.31,0,1,1,.414.138Zm.5-1.338a.388.388,0,1,1,.173-.52A.387.387,0,0,1,967.227,2449.125Zm-1.177,4.852a.08.08,0,0,1,.035-.1.078.078,0,0,1,.1.037.075.075,0,0,1-.033.1A.078.078,0,0,1,966.05,2453.977Zm.608-1.3a.155.155,0,0,1-.207-.072.153.153,0,0,1,.067-.205.155.155,0,1,1,.14.277Zm.5-1.342a.232.232,0,1,1-.206-.415.238.238,0,0,1,.313.1A.234.234,0,0,1,967.159,2451.332Zm.5-1.34a.309.309,0,1,1,.137-.413A.307.307,0,0,1,967.663,2449.992Zm.5-1.338a.386.386,0,0,1-.521-.173.388.388,0,1,1,.521.173Zm-1.073,4.889a.077.077,0,0,1-.1-.037.076.076,0,0,1,.033-.1.078.078,0,1,1,.07.14Zm.5-1.343a.154.154,0,1,1,.067-.206A.153.153,0,0,1,967.6,2452.2Zm.5-1.339a.231.231,0,1,1,.1-.31A.23.23,0,0,1,968.1,2450.861Zm.5-1.338a.309.309,0,0,1-.277-.553.309.309,0,1,1,.277.553Zm.5-1.338a.388.388,0,0,1-.347-.694.388.388,0,0,1,.347.694Zm-1.072,4.887a.081.081,0,0,1-.1-.035.078.078,0,1,1,.14-.07A.078.078,0,0,1,968.031,2453.072Zm.5-1.341a.155.155,0,1,1,.069-.208A.156.156,0,0,1,968.535,2451.731Zm.5-1.339a.233.233,0,0,1-.311-.1.238.238,0,0,1,.1-.313.233.233,0,0,1,.208.416Zm.5-1.341a.309.309,0,0,1-.278-.553.309.309,0,1,1,.278.553Zm.5-1.34a.387.387,0,0,1-.347-.691.39.39,0,0,1,.52.173A.383.383,0,0,1,970.042,2447.711Zm-1.175,4.855a.079.079,0,0,1,.033-.1.078.078,0,0,1,.1.037.076.076,0,0,1-.033.1A.077.077,0,0,1,968.867,2452.566Zm.607-1.3a.157.157,0,0,1-.207-.071.151.151,0,0,1,.067-.206.155.155,0,0,1,.14.277Zm.5-1.34a.232.232,0,1,1-.207-.416.231.231,0,0,1,.31.1A.237.237,0,0,1,969.977,2449.922Zm.5-1.342a.309.309,0,0,1-.416-.135.313.313,0,0,1,.139-.418.309.309,0,0,1,.277.553Zm.5-1.338a.384.384,0,0,1-.52-.173.387.387,0,1,1,.693-.344A.384.384,0,0,1,970.981,2447.242Zm-1.073,4.89a.078.078,0,0,1-.07-.14.079.079,0,0,1,.106.035A.082.082,0,0,1,969.908,2452.132Zm.505-1.341a.155.155,0,1,1,.068-.208A.158.158,0,0,1,970.413,2450.791Zm.5-1.341a.231.231,0,1,1-.207-.413.231.231,0,1,1,.207.413Zm.5-1.339a.309.309,0,1,1,.138-.415A.309.309,0,0,1,971.416,2448.111Zm.692-1.556a.4.4,0,0,1-.188.219.365.365,0,0,1-.378-.051.381.381,0,0,1-.144-.123.39.39,0,0,1,.174-.52h0v0a.4.4,0,0,1,.193-.013.363.363,0,0,1,.323.188.384.384,0,0,1,.022.3Zm-1.262,5.1a.078.078,0,0,1-.1-.034.081.081,0,0,1,.033-.106.082.082,0,0,1,.107.035A.078.078,0,0,1,970.846,2451.66Zm.5-1.341a.154.154,0,1,1,.067-.205A.152.152,0,0,1,971.35,2450.319Zm.5-1.338a.233.233,0,1,1,.1-.313A.234.234,0,0,1,971.852,2448.981Zm.5-1.341a.309.309,0,1,1-.278-.553.283.283,0,0,1,.2-.014.3.3,0,0,1,.214.152.294.294,0,0,1-.006.262A.287.287,0,0,1,972.355,2447.64Zm.646-1.5a.367.367,0,0,1-.143.166h0a.385.385,0,0,1-.52-.173.389.389,0,0,1,.173-.52h0a.371.371,0,0,1,.46.122c.017.023.046.027.059.05a.376.376,0,0,1,.017.245c0,.018.009.036,0,.051S973.013,2446.115,973,2446.136Zm-1.321,5.021a.083.083,0,0,1,.036-.108.078.078,0,0,1,.1.037.075.075,0,0,1-.033.1A.081.081,0,0,1,971.68,2451.157Zm.609-1.306a.155.155,0,1,1,.069-.208A.157.157,0,0,1,972.289,2449.851Zm.566-1.417c-.02.027-.032.059-.065.075s-.061,0-.093.008a.219.219,0,0,1-.182-.079c-.011-.012-.028-.015-.036-.032a.221.221,0,0,1-.009-.125.218.218,0,0,1,.113-.188h0c.017-.009.036,0,.054,0a.222.222,0,0,1,.255.109A.213.213,0,0,1,972.855,2448.434Zm.439-1.265h0v0a.3.3,0,0,1-.414-.138v0h0c-.011-.023,0-.047-.005-.071a.294.294,0,0,1,.142-.341h0v0a.292.292,0,0,1,.334.069c.028.026.065.035.082.071a.309.309,0,0,1,.016.236A.3.3,0,0,1,973.294,2447.169Zm.5-1.338a.34.34,0,0,1-.192.014.363.363,0,0,1-.33-.187c-.021-.044-.005-.088-.009-.134a.363.363,0,0,1,.18-.384h0v0a.39.39,0,0,1,.291-.02h0a.335.335,0,0,1,.241.413A.365.365,0,0,1,973.8,2445.831Zm-1.074,4.889a.078.078,0,0,1-.07-.14.078.078,0,1,1,.07.14Zm.55-1.4a.152.152,0,0,1-.048.056.127.127,0,0,1-.064,0,.137.137,0,0,1-.1-.036c-.016-.011-.035-.017-.045-.037a.153.153,0,0,1,0-.082.144.144,0,0,1,.076-.125h0a.153.153,0,0,1,.214.185C973.3,2449.3,973.283,2449.312,973.274,2449.323Zm.565-1.409a.228.228,0,0,1-.109.124h0v0a.234.234,0,0,1-.312-.1.238.238,0,0,1,.1-.313.243.243,0,0,1,.179-.013c.013,0,.017.02.029.026a.231.231,0,0,1,.1.091.209.209,0,0,1,.008.108c0,.022.013.046.006.069Zm.393-1.214a.352.352,0,0,1-.417-.136.3.3,0,0,1-.009-.144.294.294,0,0,1,.149-.276.3.3,0,0,1,.181-.012.329.329,0,0,1,.112.049.3.3,0,0,1,.122.1A.31.31,0,0,1,974.232,2446.7Zm-.014-1.837h0c.143.169.278.342.43.5a.373.373,0,0,1-.434-.181A.366.366,0,0,1,974.218,2444.863Zm-.556,5.386c-.02.01-.034-.011-.053-.018s-.042,0-.052-.017.011-.033.019-.052,0-.043.016-.053h0a.085.085,0,0,1,.1.035A.08.08,0,0,1,973.662,2450.249Zm.5-1.341h0v0a.158.158,0,0,1-.209-.069.155.155,0,0,1,.07-.207h0v0a.165.165,0,0,1,.079,0,.143.143,0,0,1,.127.073.146.146,0,0,1-.031.165C974.19,2448.88,974.184,2448.9,974.166,2448.908Zm.609-1.464a.229.229,0,0,1-.108.125.241.241,0,0,1-.178.014.227.227,0,0,1-.134-.117.288.288,0,0,1,.1-.313.238.238,0,0,1,.168-.011h.009a.228.228,0,0,1,.148.293Zm.395-1.216a.308.308,0,0,1-.416-.135.312.312,0,0,1,.138-.418c.024-.011.047,0,.07,0,.118.12.239.234.36.35h0A.3.3,0,0,1,975.17,2446.228Zm-.568,3.55h0v0c-.017.008-.032-.011-.051-.017s-.043,0-.052-.018v0a.077.077,0,0,1,.032-.1h0v0a.077.077,0,0,1,.1.037h0c.009.017-.011.033-.019.052S974.62,2449.77,974.6,2449.778Zm.5-1.339a.157.157,0,0,1-.208-.069.15.15,0,0,1-.009-.117l.006-.009a.149.149,0,0,1,.072-.081.146.146,0,0,1,.117-.009l.01.009a.155.155,0,0,1,.081.069.141.141,0,0,1,0,.084.114.114,0,0,1-.013.052A.135.135,0,0,1,975.1,2448.439Zm.5-1.341a.234.234,0,0,1-.177.013c-.011,0-.017-.016-.027-.022a.236.236,0,0,1-.108-.094.228.228,0,0,1,.1-.31.232.232,0,0,1,.313.1.236.236,0,0,1,.01.178A.227.227,0,0,1,975.606,2447.1Zm-.066,2.208v0c-.019.007-.034-.011-.052-.018s-.043,0-.053-.017.012-.035.018-.053,0-.042.017-.052h0a.077.077,0,0,1,.1.035A.075.075,0,0,1,975.54,2449.306Zm.5-1.335a.186.186,0,0,1-.1.005.14.14,0,0,1-.051-.029c-.02-.015-.045-.025-.056-.049a.176.176,0,0,1,.07-.207.153.153,0,0,1,.167.033c.013.013.032.019.041.036h0A.161.161,0,0,1,976.042,2447.971Zm.435.866a.078.078,0,0,1-.1-.035.081.081,0,0,1,.035-.1.08.08,0,0,1,.105.038A.076.076,0,0,1,976.477,2448.837Zm.5-1.338a.16.16,0,0,1-.21-.07.147.147,0,0,1,.037-.168c.077.056.163.1.24.158h0A.155.155,0,0,1,976.98,2447.5Zm.437.867h0v0c-.018.008-.033-.01-.051-.017s-.043,0-.053-.017v0a.076.076,0,0,1,.033-.1h0v0a.078.078,0,0,1,.1.037h0c.008.019-.011.032-.019.052S977.435,2448.358,977.417,2448.366Zm.107-2.256c-.116-.085-.224-.179-.337-.267a13.442,13.442,0,0,1-1.321-1.175h0c-.153-.157-.3-.312-.449-.477-.057-.061-.107-.127-.161-.19-.19-.218-.381-.437-.555-.67-.031-.041-.058-.086-.09-.127-.185-.25-.365-.505-.531-.765h0c-.022-.038-.048-.071-.071-.107-.171-.276-.325-.56-.476-.846v0l-.009-.014c-.049-.095-.106-.183-.153-.276l0-.007c-.058-.116-.1-.236-.156-.354l0,0c-.034-.069-.063-.143-.095-.215s-.053-.117-.078-.175h0l-.055-.126v0c-.047-.11-.1-.219-.143-.331-.018-.048-.031-.1-.049-.144v-.006c-.064-.168-.116-.344-.173-.515-.119-.367-.222-.735-.309-1.111a13.716,13.716,0,0,1,.321-7.35c.13-.392.283-.772.445-1.143a13.6,13.6,0,0,1,15.542-7.793c.395.095.79.2,1.182.329a13.3,13.3,0,0,1,2.228.981,13.475,13.475,0,0,1,3.855,3.158c.256.3.5.618.726.944.061.087.124.174.182.263s.136.184.2.282c.093.148.171.3.259.45.008.014.015.03.024.044s.021.035.03.052.028.048.041.072c.126.225.253.448.367.68.012.026.023.055.035.081.027.056.051.114.077.17s.039.091.059.136c.051.109.1.22.147.33.037.089.081.174.117.263s.066.18.1.272c.091.244.171.493.248.741.025.083.058.164.081.249.075.255.129.52.188.781.018.082.039.163.056.244q.07.352.123.708a13.41,13.41,0,0,1,.147,1.806c0,.12.013.238.01.359a13.572,13.572,0,0,1-21.566,10.8Zm1.8,29.69c-.739-.112-1.477-.243-2.215-.4l45.705-22.912c-.317.684-.654,1.355-1.005,2.013Z" fill="#0d0213"/><path d="M911.409,2390.92c1.155-.252,3.307-11.81,5.008-8.006a91.519,91.519,0,0,0-4.51,12.608c-.357.889-.581,2.176-1.911,1.451-.55-4.525.1-10.015-.268-14.483a53.117,53.117,0,0,0-4.33,9.053c-.536.864-.687,2.566-1.8,2.789-2.059-.447,3.639-9.442,4.163-11.035C912.669,2371.909,910.965,2387.349,911.409,2390.92Z" fill="#0d0213"/><path d="M935.237,2443.6c.377-.063.478-.188.522-.366a65.286,65.286,0,0,1,2.35-8.2c.285-.957,1.411-.419,1.278.341a10.084,10.084,0,0,1-.316,1.351c-4.072,13.681-3.2,15.149-6.938.2-1.093-.379-1.869,6.773-2.749,8.14-.267.993-1.56.437-1.451-.367,1.189-3.524,1.864-7.187,3.1-10.7.306-.531.135-1.938,1.033-1.681a1.158,1.158,0,0,1,.752,1.079C933.3,2436.873,934.68,2440.11,935.237,2443.6Z" fill="#0d0213"/><path d="M912.641,2433.887c.363,2.172,1.822,4,2.108,6.19-.128,1.35-1.455-.029-1.512-.709-.505-1.543-1.39-2.9-2-4.411-1.129.551-1.323,4.164-2.888,3.936-1.706-.625,2.258-6.278,2.536-7.793,1.3-3.038,2.5-7.377,5.385-2.413a3.2,3.2,0,0,1-1.924,4.719A3.56,3.56,0,0,0,912.641,2433.887Zm1.275-5.821c-.551,1.346-1.253,2.232-1.424,3.53C913.3,2433.462,917.4,2429.912,913.916,2428.066Z" fill="#0d0213"/><path d="M923.215,2420.6a53.609,53.609,0,0,0,6.247,1.508c.831.386-.168,1.377-.807,1.2-1.663-.528-6.786-.3-7.151-2.151.41-4.071,2.871-7.612,3.446-11.668a.659.659,0,0,1,.88-.589c1.583.737,4.613.589,5.488,2.1-.591,1.713-3.377-.41-4.707-.261a.466.466,0,0,0-.534.348c-1.918,5.532.2,2.66,3.2,4.912-.414,1.987-3-.182-4.286.18C923.826,2416.469,923.424,2419.347,923.215,2420.6Z" fill="#0d0213"/><path d="M905.488,2424.955a25.191,25.191,0,0,0-1.847,4.243c.876,1,4.183.909,3.7,2.512-.988,1.233-2.949-.9-4.289-.936-2.494,3.733-2.775,4.264,1.545,5.857.836.491.054,1.465-.592,1.327-1.673-.637-3.285-1.412-5.017-2.131a58.367,58.367,0,0,1,3.277-7.707c.949-1.539,1.264-3.655,2.749-4.767,1.6-.655,3.864,1.2,5.438,1.771a.676.676,0,0,1-.626,1.175C908.364,2425.89,907.065,2424.74,905.488,2424.955Z" fill="#0d0213"/><path d="M926.428,2387.093c1.336-.151,6.294.239,6.242,1.786-.215.844-1.027.472-1.6.343-1.126-.146-2.886-1.232-3.787-.33-2.435,5.954-.694,2.815,2.312,5.24-.367,1.51-2.49.251-3.533.25-1.484.21-1.355,2.968-2.041,4.121.127,1.141,2.026.7,2.851,1.092.806.1,1.853,1.038.628,1.421-1.618-.532-6.054.256-5.225-2.474C923.884,2394.836,924.554,2390.7,926.428,2387.093Z" fill="#0d0213"/><path d="M920.44,2441.683c1.116.78,3.9.307,4.327,1.654-.135,1.3-5.609-.1-5.866-1.172a1.806,1.806,0,0,1,.06-1.523c1.057-2.955,2.013-5.949,3.135-8.879.715-1.684.438-1.432,2.307-1.361,1.021.269,3.992.467,4.153,1.6-.068.591-.721.767-1.214.668-1.234-.284-2.283-.872-3.635-.756a14.082,14.082,0,0,0-1.387,3.736c.91.431,5.906,1.2,3.254,2.416C921.186,2436.772,921.258,2437.22,920.44,2441.683Z" fill="#0d0213"/><path d="M889.709,2425.072c2.612-1.608,3.327-3.85,5.618-5.5,1.318-.646,1.309,1,.412,1.543-1.889,2.138-3.842,4.153-5.709,6.308-3.4,4.754-3.606,2.27-2.058-1.793.346-3.007,1.252-5.917,1.553-8.917-.024-.959,1.048-.918,1.28-.08C890.821,2419.616,889.594,2421.876,889.709,2425.072Z" fill="#0d0213"/><path d="M949.841,2401.722c.658,2.833-4.063,5.093-5.934,2.955-.381-.647-2.005-3.823-.4-3.565,1.1,1.266.918,3.725,3.294,2.9,1.509-.117,2.171-2.273,1.425-3.266-1.153-1.727-3.652-2.857-3.221-5.279.26-1.551,2.083-2.5,3.5-2.635a3.83,3.83,0,0,1,2.155,1.066c.58.63,1.58,2.1.4,2.617a.428.428,0,0,1-.508-.365c-.2-1.385-1.769-2.6-3.06-1.63C944.053,2396.88,950.055,2399.1,949.841,2401.722Z" fill="#0d0213"/><path d="M939.425,2391.808c-.924,3.4-2.16,6.438-2.762,9.813.025.726-.9,1.446-1.321.6-.383-3.484,1.763-6.82,2.338-10.239.274-1.068-1.077-1.18-1.783-1.493-.952-.248-1.131-1.808.131-1.526,2.626,1.182,5.973,1.378,8.145,3.292C944.732,2394.69,940.619,2391.614,939.425,2391.808Z" fill="#0d0213"/><path d="M918.652,2408.906c-.861.953-3.637,13.789-4.973,10,.505-3.572,2.778-6.775,3.131-10.309a2.454,2.454,0,0,0-1.3-.362,3.965,3.965,0,0,1-2.114-1.431c-.34-1.189.928-1.032,1.55-.413,2.157,1.029,4.712.749,6.987,1.109C923.44,2409.427,919.792,2409.027,918.652,2408.906Z" fill="#0d0213"/><path d="M916.864,2397.774c-.661-.277-1.277-.283-1.261-1.011.857-4.037,2.833-7.749,3.9-11.724.1-1,1.277-1.355,1.53-.272C920.284,2389.271,918.175,2393.343,916.864,2397.774Z" fill="#0d0213"/><path d="M894.885,2433.087c-3.075.642.519-3.633.6-4.93.878-1.351,2.728-6.776,4-6.879a.976.976,0,0,1,.408,1.459C898.11,2426.137,896.662,2429.682,894.885,2433.087Z" fill="#0d0213"/></g></svg>